<svg xmlns="http://www.w3.org/2000/svg" xml:space="preserve" id="Layer_1" x="0" y="0" version="1.1" viewBox="0 0 128 128"><path id="leg_1_" d="m78.33 95.99-4.01-15.41-12.48 5.05s2.82 8.25 3.93 12.02c.92 3.12 2.47 6.31 7.53 8.79l22.24 9.26.6-7.71z" style="fill:#ba8d68"/><path id="sock_1_" d="M90.17 103.96c-3.13 4.29-2.36 8.54-2.36 8.54l8.51 3.8 1.06-8.25z" style="fill:#e0e0e0"/><path id="shoe_x5F_back_1_" d="M101.75 105.24c-.22-.64-1.33-1.24-2.64-.94l-2.24.64c-1.53.79-1.89 1.75-1.89 1.75-.44 5.15.57 9 .57 9l4.58 5.32a4.29 4.29 0 0 0 4.62 1.29l1.28-.43c.56-.19 1.15-1.18.87-2.29z" style="fill:#4568ad"/><path id="pants_x5F_back_1_" d="M60.78 83.29C60.54 84.91 65 95.13 65 95.13c7.18-.54 14.7-7.33 14.7-7.33s-3.92-4.44-3.56-12.59z" style="fill:#616161"/><path id="leg" d="m44.11 108.6 8.51-.07s-2.84-15.54-3.59-18.37l19.8-6.54-4.35-13.53-22.74 10.28c-2.88 1.3-5.77 4.87-4.17 10.85.93 3.43 6.54 17.38 6.54 17.38" style="fill:#ba8d68"/><path id="sock_x5F_front_1_" d="M51.46 101.64c-5.59-.47-9.09 2.58-9.09 2.58l3 9 7.75-2.82z" style="fill:#e0e0e0"/><g id="shoe_x5F_front_1_"><path d="M53.92 115.37c.64-.21 1.26-1.31.97-2.62l-.62-2.25c-.52-1.64-2.17-3.11-2.17-3.11-5.18-.53-8.62 2.96-8.62 2.96l-5.31 3.2a4.27 4.27 0 0 0-1.34 4.61l.42 1.29c.18.56 1.17 1.16 2.28.9z" style="fill:#4568ad"/><path d="M47.17 115.09c-4.39 1.71-7.46 3.03-8.73 4.03-1.33.91-.17 1.54 1.13 1.18l12.3-3.7c2.33-.79 3.18-1.8 3.08-2.92-.1-1.11-3.66-.2-7.78 1.41" style="fill:#294b7c"/></g><path id="pants_x5F_front_1_" d="M46.54 78.19c5.26 1.05 11.65 11.62 11.65 11.62s10.21-4.63 13.86-6.79c6.72-3.97 4.87-11.79 2.72-15.62l-2.73-5.96-19.36 4.93-.26 4.18.8 4.18z" style="fill:#7c7c7c"/><path id="shadow_x5F_shirt" d="M53.23 74.74c10.04-7.05 22.57-5.08 22.57-5.08-1.54-4.2-4.48-9.59-4.48-9.59s-18.82 4.97-19.18 7.55c-.37 2.58 1.09 7.12 1.09 7.12" style="opacity:.2"/><path id="arm_1_" d="M58.47 54.82 53.7 47.7 33.12 69.57s0 1.54 1.78 2.59 3.54.28 3.54.28z" style="fill:#ba8d68"/><path id="tone" d="M33.03 72s-1.54 2.53-2.06 5.75c-.21 1.33.25 2.52.42 2.74.55.71 1.53.87 1.85.28.27-.51-.41-1.36-.41-1.86.01-.6.35-1.08.35-1.08.21.62 1.64 1.93 2.11 1.8 1.33-.38-.73-2.04-.64-3.14.24-2.86 1.33-4.73 1.33-4.73z" style="fill:#91674d"/><path id="hand_1_" d="M39.37 70.45c.2 1.81-.16 1.64-.53 3.93-.22 1.41.49 1.95.45 2.96-.02.6-.7 1.26-1.39.86-1.53-.89-.84-4.5-3.72-3.68-2.11.6-3.07 5.24-4.84 6.72-1.73 1.45-3.17.26-2.73-.28 0 0 .94-1.7 2.05-3.53 1.33-2.2 1.8-6.28 5.62-8.84z" style="fill:#ba8d68"/><path id="shirt_1_" d="M60.91 40.05c-7.7 6.38-12.72 12.76-12.72 12.76 4.27.28 8.09 6.48 8.09 6.48s10.42-24.04 4.63-19.24" style="fill:#3615af"/><path id="head_1_" d="M69.35 15.85c-2.18-4.7-9.46-7.14-14.49-5.92-5.63 1.37-8.4 5.71-8.82 10.98-.15 1.91.05 3.79.47 5.1.05.16.45 1.3.5 1.66.32 1.39-2.3 2.99-2.5 4.57-.15 1.18 2.34 1.74 2.55 1.94 1.03.97-.1 5.89 6.62 6.07 2.34.06 2.79-.22 2.79-.22l.47 7.63 11.18-8.24s-2.07-3.28-.43-6.58c2.12-4.3 4.44-11 1.66-16.99" style="fill:#ba8d68"/><path id="mouth_1_" d="M47.95 36.91c.93-.02 1.83-.3 2.57-.94.81-.7.17-1.37-.78-.87-.57.3-1.4.49-2.17.4z" style="fill:#5d4037"/><ellipse id="eye_1_" cx="51.21" cy="28.14" rx="1.23" ry="1.88" style="fill:#49362e" transform="rotate(-6.102 51.21 28.142)"/><path id="eyebrow_1_" d="M50.04 25.53c-1.12.55-1.53-.17-1.25-.87.21-.51.86-1.02 2.28-1 1.34.03 2.01.68 2.44 1.07s.47.85.18.94c-.41.14-2.27-.82-3.65-.14" style="fill:#613e31"/><g id="hairGroup"><path id="hair_2_" d="M88.07 20.67c-6.3-4.61-7.65-11.01-15.45-10.27-5.14.49-7.45 6.86-6.83 8.68 1.19 3.51 4.42 2.38 6.13 2.48 0 0 3.19 6.06 11.9 7.34 13.67 2.01 17.17-5.27 17.17-5.27s-6.86 1.47-12.92-2.96" style="fill:#543930"/><g id="hairHighlights"><path d="M88.07 20.67c-6.3-4.61-7.45-10.99-15.45-10.27-5.08.45-7.45 6.86-6.83 8.68 1.19 3.51 4.42 2.38 6.13 2.48 0 0 3.19 6.06 11.9 7.34 13.67 2.01 17.17-5.27 17.17-5.27s-6.86 1.47-12.92-2.96" style="fill:#6d4c41"/><path d="M85.33 18.11c-4.15-4.14-6.21-8.33-12.71-7.72-5.14.49-7.42 6.69-6.8 8.51 0 0 1.62-4.06 8.01-4.36 6.38-.28 11.5 3.57 11.5 3.57" style="fill:#6d4c41"/><path d="M88.07 20.67c-1.57-1.15-2.95-2.52-4.26-3.97-1.16-1.28-2.1-2.44-3.98-2.41-2.97.05-5.79 4.69-4.21 7.95.97 2.01 4.87 5.38 13.37 6.19 9.19.89 12.01-4.82 12.01-4.82s-6.87 1.49-12.93-2.94" style="fill:#6d4c41"/></g></g><g id="handball_1_"><circle cx="93.55" cy="15.09" r="11.66" style="fill:#ced7db"/></g><path id="arm" d="M68.48 38.87c-5.57 2.65-.62 9.18-.62 9.18s10.75-1.8 15.12-2.83c6.21-1.44 7.15-3.58 8.66-5.46 1.21-1.51 7.22-10.4 7.22-10.4l-.34-3.15-5.51 1.2-9.28 8.52c0-.01-10.38.63-15.25 2.94" style="fill:#ba8d68"/><path id="hand" d="M93.18 27.87c-.14-2.83 3.46-4.27 3.46-4.27s-1.21-3.01-1.68-3.96c-.46-.95-.14-1.61.04-1.71.58-.33 1.17-.01 1.35.2.77.93 1.93 2.55 1.93 2.55.5-.2-.28-2.8-.67-4.55-.23-1.03.99-2.15 1.87-.32.73 1.51 1.67 4.35 1.67 4.35.17-1.16-.04-2.98-.27-5.27-.11-1.07.33-1.55 1.03-1.61.52-.05.97.09 1.33 2.23.11.64.29 4.25.29 4.25 1.01-.52 1.26-3.31 1.34-5.11.05-1.27 1.73-1.59 1.95.32.45 3.88-1.56 7.19-2.48 8.74-.48.81-5.78 5.83-5.78 5.83z" style="fill:#ba8d68"/><g id="shirt"><path d="M79 65.63c-8.76-8.29-4.64-15.43-4.64-15.43s.08-1.22 4.63-2.14c0 0-.64-5.25 1.98-12.23 0 0-10.01.1-14.15 1.46-2.48.81-6.49 1.36-10.26 5.56-2.16 2.4-3.65 4.7-5.17 12.14-1.69 8.29 1.85 19.76 1.85 19.76C60.88 66.05 79 65.63 79 65.63" style="fill:#651fff"/></g><g id="hairGroup_1_"><path id="hair_3_" d="M69.94 13.69c-2.58-2.99-6.7-4.85-11.03-4.96-3.77-.1-8.9.94-12 4.15-1.87 1.93-2.94 4.44-2.56 7.18.23 1.65 1.61 2.47 1.61 2.47s1.48-3.8 5.34-2.94c4.06.91 5.8.05 5.8.05-1.28 3.24-.05 4.97 1.03 5.95.62.56 1.19 1.23 1.51 1.62.17.2.31.19.37-.03.15-.52.42-1.46.63-1.91.71-1.49 1.92-1 1.93-.99 1.64.54 2.3 3.87-.33 5.9-.06.05-.24.17-.13.51 1.13 3.37 5.16 3.4 5.4 3.27l.01-.01.06-.03c.53-.26.84-.71.92-1.33.29-2.26 1.25-2.94 1.94-3.93.79-1.15 1.69-2.45 2.14-6.01.41-3.38-.5-6.47-2.64-8.96" style="fill:#543930"/><path id="hairHighlights_1_" d="M69.94 13.69c-2.58-2.99-6.7-4.85-11.03-4.96-3.77-.1-8.9.94-12 4.15-1.87 1.93-2.94 4.44-2.56 7.18.23 1.65 1.61 2.47 1.61 2.47s1.48-3.8 5.34-2.94c4.06.91 5.8.05 5.8.05-1.28 3.24-.05 4.97 1.03 5.95.62.56 1.19 1.23 1.51 1.62.17.2.31.19.37-.03.15-.52.42-1.46.63-1.91.71-1.49 1.92-1 1.93-.99 1.64.54 2.3 3.87-.33 5.9-.06.05-.24.17-.13.51 1.13 3.37 5.16 3.4 5.4 3.27l.01-.01.06-.03c.53-.26.84-.71.92-1.33.29-2.26 1.25-2.94 1.94-3.93.79-1.15 1.69-2.45 2.14-6.01.41-3.38-.5-6.47-2.64-8.96" style="fill:#6d4c41"/></g></svg>