<svg xmlns="http://www.w3.org/2000/svg" xml:space="preserve" id="图层_1_copy" x="0" y="0" version="1.1" viewBox="0 0 128 128"><path d="m26.87 62.99 5.68-19.87L80.18 99.3l-15.51 1.5z" style="fill:#bf8400"/><path d="M4 5.86V124h118.14c.69 0 1.03-.83.54-1.32L5.32 5.32C4.83 4.83 4 5.17 4 5.86M28.62 60.1l41.37 40.7H28.62z" style="fill:#eaa700"/><path d="M26.87 101.81 4 124h118.14c.69 0 1.03-.83.54-1.32l-5.3-5.3z" style="fill:#bf8400"/><path d="M7.12 8.81v111.36c0 .39.31.7.7.7h111.36c.62 0 .94-.76.5-1.2L8.32 8.32c-.44-.44-1.2-.13-1.2.49m21.77 52.5 37.8 37.8h-37.8z" style="fill:#fdd835"/><path d="M10.05 19.82c-.5.5-.5 1.32 0 1.82l1.01 1.01c.5.5 1.32.5 1.82 0l4.89-4.89-2.83-2.83z" style="fill:#795548"/><path d="m14.94 14.94-2.35 2.35 2.82 2.82 2.35-2.35z" style="fill:#5d4037"/><path d="M28.85 38.62c-.5.5-.5 1.32 0 1.82l1.01 1.01c.5.5 1.32.5 1.82 0l4.89-4.89-2.83-2.83z" style="fill:#795548"/><path d="m33.74 33.73-2.35 2.35 2.82 2.83 2.35-2.35z" style="fill:#5d4037"/><path d="M47.65 57.42c-.5.5-.5 1.32 0 1.82l1.01 1.01c.5.5 1.32.5 1.82 0l4.89-4.89-2.83-2.83z" style="fill:#795548"/><path d="m52.54 52.53-2.36 2.35 2.83 2.83 2.35-2.35z" style="fill:#5d4037"/><path d="M66.45 76.22c-.5.5-.5 1.32 0 1.82l1.01 1.01c.5.5 1.32.5 1.82 0l4.89-4.89-2.83-2.83z" style="fill:#795548"/><path d="m71.33 71.33-2.35 2.35 2.83 2.83 2.35-2.35z" style="fill:#5d4037"/><path d="M85.25 95.02c-.5.5-.5 1.32 0 1.82l1.01 1.01c.5.5 1.32.5 1.82 0l4.89-4.89-2.83-2.83z" style="fill:#795548"/><path d="m90.13 90.13-2.35 2.35 2.83 2.83 2.35-2.35z" style="fill:#5d4037"/><path d="M104.05 113.82c-.5.5-.5 1.32 0 1.82l1.01 1.01c.5.5 1.32.5 1.82 0l4.89-4.89-2.83-2.83z" style="fill:#795548"/><path d="m108.93 108.93-2.35 2.35 2.83 2.83 2.35-2.35z" style="fill:#5d4037"/><path d="M34.04 51.49c-.5.5-.5 1.32 0 1.82l1.75 1.75c.5.5 1.32.5 1.82 0l8.23-8.23-3.57-3.57z" style="fill:#795548"/><path d="m42.77 42.76-2.36 2.35 3.57 3.57 2.35-2.35z" style="fill:#5d4037"/><path d="M52.84 70.29c-.5.5-.5 1.32 0 1.82l1.75 1.75c.5.5 1.32.5 1.82 0l8.23-8.23-3.57-3.57z" style="fill:#795548"/><path d="m61.56 61.56-2.35 2.35 3.57 3.57 2.35-2.35z" style="fill:#5d4037"/><path d="M15.24 32.69c-.5.5-.5 1.32 0 1.82l1.75 1.75c.5.5 1.32.5 1.82 0l8.23-8.23-3.57-3.57z" style="fill:#795548"/><path d="m23.97 23.96-2.35 2.35 3.56 3.57 2.35-2.35z" style="fill:#5d4037"/><path d="M71.64 89.09c-.5.5-.5 1.32 0 1.82l1.75 1.75c.5.5 1.32.5 1.82 0l8.23-8.23-3.57-3.57z" style="fill:#795548"/><path d="m80.36 80.36-2.35 2.35 3.57 3.57 2.35-2.35z" style="fill:#5d4037"/><path d="M90.44 107.89c-.5.5-.5 1.32 0 1.82l1.75 1.75c.5.5 1.32.5 1.82 0l8.23-8.23-3.57-3.57z" style="fill:#795548"/><path d="m99.16 99.16-2.35 2.35 3.57 3.57 2.35-2.35z" style="fill:#5d4037"/></svg>