<svg xmlns="http://www.w3.org/2000/svg" xml:space="preserve" id="Layer_2" x="0" y="0" version="1.1" viewBox="0 0 128 128"><g style="opacity:.85"><path d="M4 33.83h120V95.8H4z" style="fill:#b7855f"/></g><path d="M124 34.96V18.24H4v16.73h11.98v59.71H4v17.09h120v-17.1h-11.98V34.96zm-10.65-8.94c0-.91.74-1.65 1.65-1.65h2.18c.91 0 1.65.74 1.65 1.65v4.01c0 .91-.74 1.65-1.65 1.65H115c-.91 0-1.65-.74-1.65-1.65zm-98.7 4.01c0 .91-.74 1.65-1.65 1.65h-2.18c-.91 0-1.65-.74-1.65-1.65v-4.01c0-.91.74-1.65 1.65-1.65H13c.91 0 1.65.74 1.65 1.65zm0 73.59c0 .91-.74 1.65-1.65 1.65h-2.18c-.91 0-1.65-.74-1.65-1.65V99.6c0-.91.74-1.65 1.65-1.65H13c.91 0 1.65.74 1.65 1.65zm98.7-4.02c0-.91.74-1.65 1.65-1.65h2.18c.91 0 1.65.74 1.65 1.65v4.01c0 .91-.74 1.65-1.65 1.65H115c-.91 0-1.65-.74-1.65-1.65zm-11.58-73.58c0-.91.74-1.65 1.65-1.65h2.18c.91 0 1.65.74 1.65 1.65v4.01c0 .91-.74 1.65-1.65 1.65h-2.18c-.91 0-1.65-.74-1.65-1.65zm-11.57 0c0-.91.74-1.65 1.65-1.65h2.18c.91 0 1.65.74 1.65 1.65v4.01c0 .91-.74 1.65-1.65 1.65h-2.18c-.91 0-1.65-.74-1.65-1.65zm-11.58 0c0-.91.74-1.65 1.65-1.65h2.18c.91 0 1.65.74 1.65 1.65v4.01c0 .91-.74 1.65-1.65 1.65h-2.18c-.91 0-1.65-.74-1.65-1.65zm-11.57 0c0-.91.74-1.65 1.65-1.65h2.18c.91 0 1.65.74 1.65 1.65v4.01c0 .91-.74 1.65-1.65 1.65H68.7c-.91 0-1.65-.74-1.65-1.65zm-11.58 0c0-.91.74-1.65 1.65-1.65h2.18c.91 0 1.65.74 1.65 1.65v4.01c0 .91-.74 1.65-1.65 1.65h-2.18c-.91 0-1.65-.74-1.65-1.65zm-11.57 0c0-.91.74-1.65 1.65-1.65h2.18c.91 0 1.65.74 1.65 1.65v4.01c0 .91-.74 1.65-1.65 1.65h-2.18c-.91 0-1.65-.74-1.65-1.65zm-11.58 0c0-.91.74-1.65 1.65-1.65h2.18c.91 0 1.65.74 1.65 1.65v4.01c0 .91-.74 1.65-1.65 1.65h-2.18c-.91 0-1.65-.74-1.65-1.65zm-11.57 0c0-.91.74-1.65 1.65-1.65h2.18c.91 0 1.65.74 1.65 1.65v4.01c0 .91-.74 1.65-1.65 1.65H22.4c-.91 0-1.65-.74-1.65-1.65zm5.48 77.6c0 .91-.74 1.65-1.65 1.65H22.4c-.91 0-1.65-.74-1.65-1.65V99.6c0-.91.74-1.65 1.65-1.65h2.18c.91 0 1.65.74 1.65 1.65zm11.57 0c0 .91-.74 1.65-1.65 1.65h-2.18c-.91 0-1.65-.74-1.65-1.65V99.6c0-.91.74-1.65 1.65-1.65h2.18c.91 0 1.65.74 1.65 1.65zm11.58 0c0 .91-.74 1.65-1.65 1.65h-2.18c-.91 0-1.65-.74-1.65-1.65V99.6c0-.91.74-1.65 1.65-1.65h2.18c.91 0 1.65.74 1.65 1.65zm11.57 0c0 .91-.74 1.65-1.65 1.65h-2.18c-.91 0-1.65-.74-1.65-1.65V99.6c0-.91.74-1.65 1.65-1.65h2.18c.91 0 1.65.74 1.65 1.65zm11.58 0c0 .91-.74 1.65-1.65 1.65H68.7c-.91 0-1.65-.74-1.65-1.65V99.6c0-.91.74-1.65 1.65-1.65h2.18c.91 0 1.65.74 1.65 1.65zm11.57 0c0 .91-.74 1.65-1.65 1.65h-2.18c-.91 0-1.65-.74-1.65-1.65V99.6c0-.91.74-1.65 1.65-1.65h2.18c.91 0 1.65.74 1.65 1.65zm11.58 0c0 .91-.74 1.65-1.65 1.65h-2.18c-.91 0-1.65-.74-1.65-1.65V99.6c0-.91.74-1.65 1.65-1.65h2.18c.91 0 1.65.74 1.65 1.65zm11.57 0c0 .91-.74 1.65-1.65 1.65h-2.18c-.91 0-1.65-.74-1.65-1.65V99.6c0-.91.74-1.65 1.65-1.65h2.18c.91 0 1.65.74 1.65 1.65zm.79-8.95H19.96V34.96h88.08z" style="fill:#424242"/><path d="M4.66 18.24H124" style="fill:none;stroke:#757575;stroke-width:.9587;stroke-miterlimit:10"/><path d="M20.29 35.15h88.08v59.71H20.29z" style="fill:#ffcc80"/></svg>