<svg xmlns="http://www.w3.org/2000/svg" xmlns:xlink="http://www.w3.org/1999/xlink" xml:space="preserve" id="Layer_1" x="0" y="0" version="1.1" viewBox="0 0 128 128"><g id="shirt_1_"><path d="M116 124.14v-3.12c0-16.78-26.35-25.09-52-25.06-25.49.03-52 7.28-52 25.06v3.12z" style="fill:#448aff"/></g><g id="helmet_x5F_back_1_"><path d="M18 52.31c0 9.34 20.6 16.92 46 16.92s46-7.58 46-16.92-92-9.35-92 0" style="fill:#ffea00"/><path d="M105.38 52.29c-8.12-5.31-19.54-9.71-41.38-9.72-21.85.01-33.27 4.4-41.38 9.72-.62.41-.78 1.21-.33 1.8C26.75 59.93 45.76 65.67 64 65.68c18.24-.02 38-6.62 41.71-11.58.44-.6.3-1.4-.33-1.81" style="fill:#edbf00"/></g><g id="hair"><path id="hair_2_" d="M104.11 45.38c0 17.47-.95 40.07-5.04 56.57-9.73-4.01-22.48-6-35.07-5.99-12.56.02-25.37 1.79-35.14 5.71-4.03-16.48-4.97-38.92-4.97-56.29 0-.61-.33-35.53 40.68-35.53s39.54 34.92 39.54 35.53" style="fill:#312d2d"/></g><g id="neck"><path id="neck_1_" d="M64 90.11h-9.08v9.98c0 4.51 3.7 8.17 8.26 8.17h1.65c4.56 0 8.26-3.66 8.26-8.17v-9.98z" style="fill:#edc391"/></g><path id="head_1_" d="M64 15.77c-17.2 0-33.13 12.79-33.13 39.91 0 21.79 13.49 34.67 25.23 38.83C58.9 95.5 61.6 96 64 96c2.38 0 5.07-.49 7.85-1.47 11.76-4.14 25.28-17.03 25.28-38.84 0-27.13-15.93-39.92-33.13-39.92" style="fill:#f9ddbd"/><g id="face"><g id="hair_1_"><path id="hair_3_" d="M101.89 45.38s1.02-35.57-37.81-35.57-37.97 35.57-37.97 35.57.33 31.34 3.2 37.26 7.19 5.71 7.19 5.71-2.03-12.4-2.26-24.9c-.06-2.92-.94-15.73 5.16-17.09 22.36-5.02 35.01-14.88 35.01-14.88 3.29 7.19 13.58 14.19 17.27 16.86 3.03 2.19 2.61 11.2 2.55 15.03l-3.05 24.92s4.68.37 7.65-5.64c2.97-6.03 3.06-37.27 3.06-37.27" style="fill:#312d2d"/></g><g id="eyes_3_"><ellipse cx="48.4" cy="58.81" rx="4.93" ry="5.1" style="fill:#312d2d"/><ellipse cx="79.6" cy="58.81" rx="4.93" ry="5.1" style="fill:#312d2d"/></g><path d="M55.64 49.82c-.93-1.23-3.07-3.01-7.23-3.01s-6.31 1.79-7.23 3.01c-.41.54-.31 1.17-.02 1.55.26.35 1.04.68 1.9.39s2.54-1.16 5.35-1.18c2.81.02 4.49.89 5.35 1.18s1.64-.03 1.9-.39c.28-.38.39-1.01-.02-1.55M86.83 49.82c-.93-1.23-3.07-3.01-7.23-3.01s-6.31 1.79-7.23 3.01c-.41.54-.31 1.17-.02 1.55.26.35 1.04.68 1.9.39s2.54-1.16 5.35-1.18c2.81.02 4.49.89 5.35 1.18s1.64-.03 1.9-.39c.28-.38.39-1.01-.02-1.55" style="fill:#454140" id="eyebrow_1_"/><path id="nose" d="M67.81 68.15c-.11-.04-.21-.07-.32-.08H60.5c-.11.01-.21.04-.32.08-.63.26-.98.91-.68 1.61s1.69 2.66 4.49 2.66 4.2-1.96 4.5-2.66-.04-1.35-.68-1.61" style="fill:#dba689"/><path id="mouth" d="M72.32 76.23c-3.15 1.87-13.47 1.87-16.61 0-1.81-1.07-3.65.57-2.9 2.21.74 1.61 6.37 5.36 11.23 5.36s10.42-3.75 11.16-5.36c.75-1.64-1.07-3.28-2.88-2.21" style="fill:#444"/></g><path id="hairHighlights" d="M104.12 42.7c0 18.35-.67 42.05-5.05 59.25-9.58-3.79-22.59-5.9-34.91-5.9h-.14c-12.34.02-25.5 1.91-35.16 5.62-4.32-17.06-4.95-40.73-4.95-58.97 0-.61-.33-29.53 40.68-29.53s39.53 28.92 39.53 29.53" style="fill:#454140"/><g id="safety_x5F_jacket_1_"><path d="M58.5 124.14H29.55V101.4c1.79-.7 3.68-1.32 5.64-1.86 2.89-.82 5.94-1.49 9.1-2.01 2.14-.36 4.33-.65 6.55-.88z" style="fill:#ff9100"/><path d="M50.96 124.14H36.29l-1.1-24.6c2.89-.82 5.94-1.49 9.1-2.01z" style="fill:#ff0"/><path d="M98.45 101.7v22.44H69.5l7.65-27.45c2.21.24 4.4.56 6.53.94 3.17.57 6.23 1.27 9.12 2.13 1.97.58 3.86 1.23 5.65 1.94" style="fill:#ff9100"/><path d="m92.8 99.76-1.09 24.38H77.04l6.64-26.51c3.17.57 6.23 1.27 9.12 2.13" style="fill:#ff0"/></g><g id="helmet"><path id="XMLID_4_" d="M64.41 8.1c-46.76 0-43.24 46.43-43.24 46.43s12.21-10.8 43.5-10.8 42.1 9.8 42.1 9.8S111.17 8.1 64.41 8.1" style="fill:#ff0"/><path d="M74.72 42.33h-20.8V9.23c0-2.79 2.26-5.05 5.05-5.05h10.7c2.79 0 5.05 2.26 5.05 5.05z" style="fill:#ff0"/><defs><path id="SVGID_7_" d="M64.41 8.1c-46.76 0-43.24 46.43-43.24 46.43s12.21-10.8 43.5-10.8 42.1 9.8 42.1 9.8S111.17 8.1 64.41 8.1"/></defs><clipPath id="SVGID_8_"><use xlink:href="#SVGID_7_" style="overflow:visible"/></clipPath><path id="XMLID_3_" d="m47.12 10.4 6.95-2.3v23.29c-1.41-10.06-3.43-17.34-6.95-20.99" style="opacity:.5;clip-path:url(#SVGID_8_);fill:#edbf00"/><defs><path id="SVGID_9_" d="M64.41 8.1c-46.76 0-43.24 46.43-43.24 46.43s12.21-10.8 43.5-10.8 42.1 9.8 42.1 9.8S111.17 8.1 64.41 8.1"/></defs><clipPath id="SVGID_10_"><use xlink:href="#SVGID_9_" style="overflow:visible"/></clipPath><path d="m81.71 10.4-6.95-2.3v23.29c1.41-10.06 3.43-17.34 6.95-20.99" style="opacity:.5;clip-path:url(#SVGID_10_);fill:#edbf00"/><path d="M109.53 51.17c-.25-.42-.64-.74-1.07-.99C90.36 39.76 64 40.1 64 40.1s-26.36-.34-44.46 10.07c-.44.25-.82.57-1.07.99-.53.9-.97 2.61.75 5.08 0 0 10.95-10.85 44.78-11.53 33.82.69 44.78 11.53 44.78 11.53 1.72-2.46 1.28-4.17.75-5.07" style="fill:#ffea00"/></g></svg>