<svg xmlns="http://www.w3.org/2000/svg" xml:space="preserve" id="Layer_1" x="0" y="0" version="1.1" viewBox="0 0 128 128"><g id="hairGroup_1_"><path id="hair_10_" d="M64.56 4.1c-41.01 0-40.68 37.92-40.68 38.52 0 24.56 1.88 59.25 11.71 72.9 3.9 5.41 11.43 5.71 11.43 5.71l16.97-.03 16.97.03s7.53-.3 11.43-5.71c9.83-13.65 11.71-48.34 11.71-72.9 0-.6 1.47-38.52-39.54-38.52" style="fill:#3c2c23"/><path id="hairHighlights_2_" d="M64.56 4.1c-41.01 0-40.68 37.92-40.68 38.52 0 24.56 1.88 59.25 11.71 72.9 3.9 5.41 11.43 5.71 11.43 5.71l16.97-.03 16.97.03s7.53-.3 11.43-5.71c9.83-13.65 11.71-48.34 11.71-72.9 0-.6 1.47-38.52-39.54-38.52" style="fill:#554138"/></g><g id="face"><path id="head" d="M64 16.04c-17.2 0-33.13 12.79-33.13 39.91 0 21.79 13.49 34.67 25.23 38.83 2.8.99 5.5 1.49 7.9 1.49 2.38 0 5.07-.49 7.85-1.47 11.76-4.14 25.28-17.03 25.28-38.84 0-27.13-15.93-39.92-33.13-39.92" style="fill:#a56c43"/><path id="nose" d="M67.81 68.05c-.1-.04-.21-.07-.32-.08H60.5c-.11.01-.21.04-.32.08-.63.26-.98.91-.68 1.61s1.69 2.66 4.49 2.66 4.19-1.96 4.49-2.66c.31-.69-.03-1.35-.67-1.61" style="fill:#875334"/><g id="eyes"><ellipse cx="47.75" cy="58.87" rx="4.87" ry="5.04" style="fill:#42312c"/><ellipse cx="80.25" cy="58.87" rx="4.87" ry="5.04" style="fill:#42312c"/></g><path d="M54.98 49.82c-.93-1.23-3.07-3.01-7.23-3.01s-6.31 1.79-7.23 3.01c-.41.54-.31 1.17-.02 1.55.26.35 1.04.68 1.9.39s2.54-1.16 5.35-1.18c2.81.02 4.49.89 5.35 1.18s1.64-.03 1.9-.39c.29-.38.39-1.01-.02-1.55M87.48 49.82c-.93-1.23-3.07-3.01-7.23-3.01s-6.31 1.79-7.23 3.01c-.41.54-.31 1.17-.02 1.55.26.35 1.04.68 1.9.39s2.54-1.16 5.35-1.18c2.81.02 4.49.89 5.35 1.18s1.64-.03 1.9-.39c.29-.38.39-1.01-.02-1.55" style="fill:#42312c" id="eyebrows"/><path id="mouth" d="M70.35 83.26c0 3.18-2.84 3.85-6.35 3.85s-6.35-.73-6.35-3.85c0-3.28 2.84-5.3 6.35-5.3s6.35 1.95 6.35 5.3" style="fill:#473530"/></g><g id="hairHighlights_1_"><path d="M64 95.69v-9.44l28.57-2.26 2.6 3.2s-6.15 8.51-22.23 8.51z" style="fill:#554138"/><path d="M95.11 83.06c-4.28-6.5 5.21-8.93 5.21-8.93l.01.01c-1.65 2.05-2.4 3.84-1.43 5.61 1.21 2.21 4.81 2.53 4.81 2.53s-4.91 4.36-8.6.78" style="fill:#554138"/><path d="M64.04 95.69v-9.44l-28.57-2.26-2.6 3.2s6.15 8.51 22.23 8.51z" style="fill:#554138"/><path d="M32.94 83.06c4.28-6.5-5.21-8.93-5.21-8.93l-.01.01c1.65 2.05 2.4 3.84 1.43 5.61-1.21 2.21-4.81 2.53-4.81 2.53s4.9 4.36 8.6.78" style="fill:#554138"/></g><path id="shirt_x5F_back_1_" d="M107.91 123.9c0-17.64-21.88-26.59-43.9-26.56-21.88.03-43.9 7.88-43.9 26.56z" style="fill:#651fff"/><g id="shadow_x5F_shirt_2_" style="opacity:.4"><path d="M107.91 123.42c-1.1-14.08-21.88-24-43.9-23.97-21.88.03-40.67 7.89-43.9 23.97z" style="fill:#212121"/></g><g id="hairGroup"><path id="hair_5_" d="M64.56 4.1c-41.01 0-40.68 37.92-40.68 38.52 0 7.76.19 16.53.75 25.32l6.72-.02c-.06-2.92 1.99-20.97 8.08-22.34 22.36-5.03 35.01-16.89 35.01-16.89 3.29 7.19 13.58 14.19 17.27 16.86 3.03 2.19 3.96 18.55 3.9 22.38h7.71c0-.05.02-.1.02-.16.56-8.75.74-17.46.74-25.17.02-.58 1.49-38.5-39.52-38.5" style="fill:#3c2c23"/><path id="hairHighlights" d="M64.56 4.1c-41.01 0-40.68 37.92-40.68 38.52 0 7.76.19 16.53.75 25.32l6.72-.02c-.06-2.92 1.99-20.97 8.08-22.34 22.36-5.03 35.01-16.89 35.01-16.89 3.29 7.19 13.58 14.19 17.27 16.86 3.03 2.19 3.96 18.55 3.9 22.38h7.71c0-.05.02-.1.02-.16.56-8.75.74-17.46.74-25.17.02-.58 1.49-38.5-39.52-38.5" style="fill:#554138"/></g><path id="tone_1_" d="M21.86 81.94 9.97 76.87a3.256 3.256 0 0 1-1.72-4.28l.09-.21a3.256 3.256 0 0 1 4.28-1.72l11.89 5.06c1.66.71-.99 6.92-2.65 6.22" style="fill:#875334"/><path id="hand_1_" d="M39.09 76.13s-18.03-11.35-22.44-15.1c-2.61-2.22-5.48-6.03-6.97-7.86-1.35-1.66-5.13.22-5.36 2.35-.14 1.25.11 2.78 1.14 4.59 0 0 6.69 15.98 14.71 21.37l10.97 4.82z" style="fill:#a56c43"/><path id="shirt_1_" d="M102.3 104.2 36.36 72.97a1.815 1.815 0 0 0-2.31.73l-6.49 11.39c-.49.83-.23 1.9.58 2.42l55.15 36.39h32.48a25.75 25.75 0 0 0-13.47-19.7" style="fill:#651fff"/><path id="shirt_x5F_shadow_1_" d="m91.47 99.18-22.52 15.35L39.7 95.12l20.71-10.75z" style="fill:#212121"/><path id="tone" d="m106.33 81.94 11.89-5.06a3.256 3.256 0 0 0 1.72-4.28l-.09-.21a3.256 3.256 0 0 0-4.28-1.72l-11.89 5.06c-1.65.7 1 6.91 2.65 6.21" style="fill:#875334"/><path id="hand" d="M89.11 76.13s18.03-11.35 22.44-15.1c2.61-2.22 5.48-6.03 6.97-7.86 1.35-1.66 5.13.22 5.36 2.35.14 1.25-.11 2.78-1.14 4.59 0 0-6.69 15.98-14.72 21.37L97.06 86.3z" style="fill:#a56c43"/><path id="shirt" d="m100.46 85.09-6.5-11.39a1.79 1.79 0 0 0-1.56-.89c-.25 0-.51.05-.75.16L25.72 104.2a25.75 25.75 0 0 0-13.47 19.7h32.48l55.15-36.4c.81-.52 1.06-1.58.58-2.41" style="fill:#651fff"/></svg>