<svg xmlns="http://www.w3.org/2000/svg" xmlns:xlink="http://www.w3.org/1999/xlink" xml:space="preserve" id="Layer_1" x="0" y="0" version="1.1" viewBox="0 0 128 128"><g id="chalk_x5F_board"><path d="M6.36 10.9h115.29v77.52H6.36z" style="fill:#26a69a"/><path d="M119.29 13.26v72.81H8.71V13.26zM124 8.55H4v82.23h120z" style="fill:#8d6e63"/></g><path id="neck" d="M64 90.78h-9.5v10.83c0 4.9 3.87 8.87 8.63 8.87h1.73c4.77 0 8.63-3.97 8.63-8.87V90.78z" style="fill:#99674f"/><g id="books"><g id="XMLID_158_"><path d="M82.7 97.21c-3.98-.68-8.12-1.12-12.3-1.34l-2.69 2.89-3.65 3.93-3.67-3.94-2.69-2.89c-4.18.2-8.32.6-12.31 1.22C27.06 99.93 12 107.36 12 120.75v3.23h104v-3.23c0-12.64-14.95-20.47-33.3-23.54" style="fill:#e1f5fe"/></g><path d="M104.11 123.98H23.04c.27-6.14 1.29-13.82 4.08-21.85 0 0 2.09-1.06 5.48-2.26 1.05-.38 2.23-.77 3.51-1.14 2.7-.8 5.86-1.53 9.23-1.93l2.41 14.53 15.67-8.22h1.27l15.67 8.22 2.41-14.53c10.09 1.2 18.22 5.33 18.22 5.33 2.79 8.03 3.37 15.71 3.12 21.85" style="fill:#00bfa5"/><path d="M36.11 98.73c-2.77 9.78-4.08 19.87-4.34 25.25h-3.02c.22-5.19 1.36-14.61 3.85-24.11 1.05-.38 2.23-.77 3.51-1.14" style="fill:#b2dfdb"/><path d="M99.25 123.98c-.23-5.35-1.57-14.54-4.22-24.3l-3.52-1.1c2.93 10.05 4.45 19.86 4.72 25.4z" style="fill:#b2dfdb"/><path d="m74.11 91.88-3.71 3.99-1.33 1.43-1.36 1.46-3.65 3.93-3.67-3.94-1.35-1.45-1.34-1.44-3.7-3.98-8.66 4.92.05.28.25 1.51.24 1.46 1.87 11.28 16.31-8.55 16.3 8.55 1.85-11.16.25-1.49.24-1.47.07-.41z" style="fill:#e1f5fe"/><path id="shadow" d="m100.98 123.98.78-2.7.63-2.18-.06-.02.01-.05-1.55-.44 1.64-5.72c.1-.35.09-.7 0-1.02 0-.01-.01-.03-.01-.04a.3.3 0 0 0-.04-.1c-.17-.54-.56-.97-1.09-1.13l-.15-.04h-.01l-3.75-1.08-34.94-10.04c-.05-.01-.09-.01-.13-.03a6.177 6.177 0 0 0-7.51 4.27l-1.44 5.03q-.15.51-.33 1.11l-1.32 4.61-2.75 9.58z" style="fill:#212121"/><path d="m102.28 123.98 3.47-12.11c.29-1.01-.29-2.06-1.3-2.34l-38.69-11.1a6.19 6.19 0 0 0-7.65 4.24L52 123.98z" style="fill:#424242"/><path d="m104.02 123.98 1.06-3.68c.35-1.22-.38-2.5-1.62-2.85l-41.52-11.9c-4.53-1.3-5.32 2.35-6.59 6.78l-3.34 11.65z" style="fill:#ef5350"/><g style="opacity:.2"><path d="M64.33 101.57c.18 0 .38.02.59.07l37.25 10.7-.31 1.08c-11.79-3.29-34.29-9.62-38.94-11.16.24-.33.71-.69 1.41-.69m0-3.33c-4.52 0-6.78 5.57-3.12 6.94 4.03 1.5 42.93 12.32 42.93 12.32l1.58-5.52c.31-1.06-.19-2.14-1.11-2.4L65.77 98.42q-.75-.18-1.44-.18" style="fill:#424242"/></g><path d="m103.37 112.12-39.8-11.42c-1.08-.31-2.26.46-2.62 1.71l-.06.22c-.36 1.25.23 2.53 1.31 2.84l39.8 11.42s-.34-.83.07-2.3c.41-1.48 1.3-2.47 1.3-2.47" style="fill:#bdbdbd"/><defs><path id="SVGID_10_" d="m105.67 118.03-44.5-12.66c-3.53-1-3.9.22-4.81 3.43l-4.34 15.18h54.15z"/></defs><clipPath id="SVGID_11_"><use xlink:href="#SVGID_10_" style="overflow:visible"/></clipPath><path d="m55.87 123.98 7.76-27.03-6.43-1.85-8.29 28.88z" style="clip-path:url(#SVGID_11_);fill:#212121"/></g><g id="face"><path id="ears" d="M91.33 50.43H36.67c-5.89 0-10.71 5.14-10.71 11.41s4.82 11.41 10.71 11.41h54.65c5.89 0 10.71-5.14 10.71-11.41s-4.81-11.41-10.7-11.41" style="fill:#99674f"/><path id="head" d="M64 11.07c-17.4 0-33.52 18.61-33.52 45.4 0 26.64 16.61 39.81 33.52 39.81S97.52 83.1 97.52 56.46c0-26.78-16.12-45.39-33.52-45.39" style="fill:#ba8d68"/><g id="eyes"><ellipse cx="48.19" cy="58.81" rx="4.93" ry="5.1" style="fill:#49362e"/><ellipse cx="79.33" cy="58.81" rx="4.93" ry="5.1" style="fill:#49362e"/></g><path id="nose" d="M67.86 68.06c-.11-.04-.21-.07-.32-.08h-7.08c-.11.01-.22.04-.32.08-.64.26-.99.92-.69 1.63s1.71 2.69 4.55 2.69 4.25-1.99 4.55-2.69c.3-.71-.05-1.37-.69-1.63" style="fill:#99674f"/><path id="mouth" d="M72.53 76.14c-3.18 1.89-13.63 1.89-16.81 0-1.83-1.09-3.7.58-2.94 2.24.75 1.63 6.44 5.42 11.37 5.42s10.55-3.79 11.3-5.42c.75-1.66-1.09-3.33-2.92-2.24" style="fill:#5d4037"/><path d="M40.01 50.72c2.99-4.23 9.78-4.63 13.67-1.48.62.5 1.44 1.2 1.68 1.98.4 1.27-.82 2.26-2.01 1.96-.76-.19-1.47-.6-2.22-.83-1.37-.43-2.36-.55-3.59-.55-1.82-.01-2.99.22-4.72.92-.71.29-1.29.75-2.1.41-.93-.38-1.28-1.57-.71-2.41M86.07 53.13c-.29-.13-.57-.29-.86-.41-1.78-.74-2.79-.93-4.72-.92-1.7.01-2.71.24-4.04.69-.81.28-1.84.98-2.74.71-1.32-.4-1.28-1.84-.56-2.76.86-1.08 2.04-1.9 3.29-2.44 2.9-1.26 6.44-1.08 9.17.55.89.53 1.86 1.26 2.4 2.18.78 1.3-.4 3.03-1.94 2.4" style="fill:#613e31" id="eyebrows_1_"/></g><g id="hairGroup"><path id="hair_7_" d="M64 4.03h-.04c-45.43.24-36.12 52.14-36.12 52.14s2.04 5.35 2.97 7.71c.13.34.63.3.71-.05.97-4.34 4.46-19.73 6.22-24.41a6.075 6.075 0 0 1 6.79-3.83c4.45.81 11.55 1.81 19.37 1.81h.16c7.82 0 14.92-1 19.37-1.81 2.9-.53 5.76 1.08 6.79 3.83 1.75 4.66 5.22 19.96 6.2 24.36.08.36.58.39.71.05l2.98-7.67c.02.01 9.33-51.89-36.11-52.13" style="fill:#543930"/><path id="hairHighlights" d="M100.13 56.17S109.44 4.27 64 4.03h-.04c-.71 0-1.4.02-2.08.05-1.35.06-2.66.16-3.92.31h-.04c-.09.01-.17.03-.26.04-38.24 4.81-29.82 51.74-29.82 51.74l2.98 7.68c.13.34.62.31.7-.05.98-4.39 4.46-19.71 6.22-24.37a6.075 6.075 0 0 1 6.79-3.83c4.45.81 11.55 1.81 19.37 1.81h.16c7.82 0 14.92-1 19.37-1.81 2.9-.53 5.76 1.08 6.79 3.83 1.76 4.68 5.25 20.1 6.21 24.42.08.36.57.39.7.05.95-2.36 3-7.73 3-7.73" style="fill:#6d4c41"/></g><path id="glasses" d="M93.93 52.93c-.07-1.19-.12-1.31-1.69-1.81-1.23-.39-7.95-.94-13.01-.66-.36.02-.71.04-1.04.07-4.59.39-10.1 2.24-14.24 2.34-1.76.04-9.01-1.86-14.14-2.26-.33-.02-.66-.05-1-.06-5.07-.26-11.82.33-13.05.73-1.57.51-1.62.63-1.68 1.82-.07 1.18.13 2.2 1.06 2.51 1.27.42 1.28 2 2.13 6.54.77 4.14 2.62 7.41 10.57 7.98.34.02.66.04.98.04 7.03.1 9.45-4.53 10.25-6.07 1.49-2.86 1.02-6.8 4.96-6.81 3.93-.01 3.56 3.86 5.07 6.71.81 1.53 3.17 6.18 10.14 6.08.34 0 .69-.02 1.05-.05 7.94-.62 9.78-3.9 10.52-8.04.82-4.55.83-6.14 2.09-6.56.91-.3 1.1-1.31 1.03-2.5zM53.37 68.17c-1.22.57-2.85.86-4.57.86-3.59-.01-7.57-1.27-9.01-3.81-2.04-3.62-2.57-10.94.03-12.47 1.14-.67 4.99-1.13 8.97-.96 4.13.18 8.4 1.04 9.94 3.06 2.56 3.33-1.5 11.5-5.36 13.32zm34.9-3.1c-1.43 2.56-5.44 3.85-9.05 3.86-1.7.01-3.31-.27-4.51-.83-3.87-1.8-7.97-9.94-5.45-13.29 1.53-2.04 5.82-2.92 9.96-3.12 3.97-.19 7.81.25 8.94.91 2.62 1.52 2.13 8.84.11 12.47z" style="fill:#212121;stroke:#212121;stroke-width:.5499;stroke-miterlimit:10"/></svg>