<svg xmlns="http://www.w3.org/2000/svg" xml:space="preserve" id="Layer_1" x="0" y="0" version="1.1" viewBox="0 0 128 128"><path id="ears" d="M91.33 50.43H36.67c-5.89 0-10.71 5.14-10.71 11.41 0 6.28 4.82 11.41 10.71 11.41h54.65c5.89 0 10.71-5.14 10.71-11.41.01-6.27-4.81-11.41-10.7-11.41" style="fill:#edc391"/><path id="head" d="M64 11.07c-17.4 0-33.52 18.61-33.52 45.39 0 1.59.06 3.13.18 4.63v.01c.31 4.05 1.03 7.74 2.09 11.09q.24.765.51 1.5v.01c.11.31.22.61.34.9.09.24.18.48.28.71.14.35.29.7.44 1.04q.375.855.78 1.65c0 .02.01.04.02.05.17.33.34.66.51.98s.35.64.53.95c2.85 4.93 6.61 8.74 10.88 11.42.88.56 1.78 1.07 2.7 1.52.58.3 1.18.58 1.77.83.64.27 1.29.52 1.94.74.29.11.57.2.86.29.19.06.38.12.56.17.02.01.04.01.05.01.13.05.26.08.39.11.2.07.4.12.6.16.14.05.27.08.4.11.2.05.4.1.6.13 2.33.54 4.71.8 7.09.8s4.76-.26 7.08-.8c.2-.03.4-.08.61-.13.12-.03.25-.06.38-.1.2-.05.41-.1.62-.17.11-.02.23-.05.35-.1.01.01.03 0 .05-.01q.3-.075.6-.18c.29-.09.57-.18.86-.29q.975-.33 1.95-.75c.57-.24 1.14-.5 1.7-.78a.2.2 0 0 0 .06-.04c5.42-2.7 10.21-7.06 13.66-13.08.18-.31.35-.63.52-.95.16-.29.31-.59.46-.89.02-.03.04-.06.05-.1.26-.5.5-1.02.73-1.55.13-.3.27-.61.39-.92.12-.27.23-.55.33-.83.1-.25.19-.5.28-.75.19-.49.36-1 .52-1.51 1.09-3.39 1.83-7.15 2.15-11.28v-.01c.11-1.49.17-3.01.17-4.59 0-26.78-16.12-45.39-33.52-45.39" style="fill:#f9ddbd"/><g id="eyes"><ellipse cx="47.56" cy="58.81" rx="4.93" ry="5.1" style="fill:#312d2d"/><ellipse cx="80.44" cy="58.81" rx="4.93" ry="5.1" style="fill:#312d2d"/></g><path id="nose" d="M67.86 68.06c-.11-.04-.21-.07-.32-.08h-7.07c-.11.01-.22.04-.32.08-.64.26-.99.92-.69 1.63s1.71 2.69 4.55 2.69 4.25-1.99 4.55-2.69c.29-.71-.06-1.37-.7-1.63" style="fill:#dba689"/><path id="mouth" d="M70.35 83.26c0 3.18-2.84 3.85-6.35 3.85s-6.35-.73-6.35-3.85c0-3.28 2.84-5.3 6.35-5.3s6.35 1.95 6.35 5.3" style="fill:#444"/><g id="hairHighlights_1_"><path d="M63.9 95.69v-9.44l28.57-2.26 2.6 3.2s-6.15 8.51-22.23 8.51z" style="fill:#454140"/><path d="M63.94 95.69v-9.44l-28.57-2.26-2.6 3.2S38.92 95.7 55 95.7z" style="fill:#454140"/></g><path id="shirt_x5F_back_1_" d="M107.81 123.9c0-17.64-21.88-26.59-43.9-26.56-21.88.03-43.9 7.88-43.9 26.56z" style="fill:#00bfa5"/><g id="shadow_x5F_shirt_2_" style="opacity:.4"><path d="M107.91 123.42c-1.1-14.08-21.88-24-43.9-23.97-21.88.03-40.67 7.89-43.9 23.97z" style="fill:#212121"/></g><path id="tone_1_" d="M21.76 81.94 9.87 76.87a3.256 3.256 0 0 1-1.72-4.28l.09-.21a3.256 3.256 0 0 1 4.28-1.72l11.89 5.06c1.66.71-.99 6.92-2.65 6.22" style="fill:#edbd82"/><path id="hand_1_" d="M38.99 76.13s-18.03-11.35-22.44-15.1c-2.61-2.22-5.48-6.03-6.97-7.86-1.35-1.66-5.13.22-5.36 2.35-.14 1.25.11 2.78 1.14 4.59 0 0 6.69 15.98 14.71 21.37l10.97 4.82z" style="fill:#f9ddbd"/><path id="shirt_1_" d="M102.2 104.2 36.26 72.97a1.815 1.815 0 0 0-2.31.73l-6.49 11.39c-.49.83-.23 1.9.58 2.42l55.15 36.39h32.48a25.75 25.75 0 0 0-13.47-19.7" style="fill:#00bfa5"/><path id="shirt_x5F_shadow_1_" d="m91.37 99.18-22.52 15.35L39.6 95.12l20.71-10.75z" style="fill:#212121"/><path id="tone" d="m106.23 81.94 11.89-5.06a3.256 3.256 0 0 0 1.72-4.28l-.09-.21a3.256 3.256 0 0 0-4.28-1.72l-11.89 5.06c-1.65.7.99 6.91 2.65 6.21" style="fill:#edbd82"/><path id="hand" d="M89.01 76.13s18.03-11.35 22.44-15.1c2.61-2.22 5.48-6.03 6.97-7.86 1.35-1.66 5.13.22 5.36 2.35.14 1.25-.11 2.78-1.14 4.59 0 0-6.69 15.98-14.71 21.37L96.96 86.3z" style="fill:#f9ddbd"/><path id="shirt" d="m100.36 85.09-6.5-11.39a1.79 1.79 0 0 0-1.56-.89c-.25 0-.51.05-.75.16L25.62 104.2a25.75 25.75 0 0 0-13.47 19.7h32.48l55.15-36.4c.8-.52 1.06-1.58.58-2.41" style="fill:#00bfa5"/><g id="hairGroup"><path id="hair_7_" d="M64.02 4.03h-.04c-45.43.24-36.12 52.14-36.12 52.14s2.04 5.35 2.97 7.71c.13.34.63.3.71-.05.96-4.34 4.46-19.73 6.22-24.41a6.08 6.08 0 0 1 6.8-3.83c4.45.81 11.55 1.81 19.37 1.81h.16c7.82 0 14.92-1 19.37-1.81 2.9-.53 5.76 1.08 6.79 3.83 1.75 4.66 5.22 19.96 6.2 24.36.08.36.58.39.71.05l2.98-7.67c.01.01 9.32-51.89-36.12-52.13" style="fill:#312d2d"/><path id="hairHighlights" d="M100.15 56.17s9.31-51.9-36.13-52.14h-.04c-.71 0-1.4.02-2.08.05-1.34.06-2.65.16-3.9.31h-.04c-.09.01-.17.03-.26.04-38.25 4.81-29.84 51.74-29.84 51.74l2.98 7.68c.13.34.62.31.7-.05.98-4.39 4.46-19.71 6.22-24.37a6.08 6.08 0 0 1 6.8-3.83c4.45.81 11.55 1.81 19.37 1.81h.16c7.82 0 14.92-1 19.37-1.81 2.9-.53 5.76 1.08 6.79 3.83 1.76 4.68 5.25 20.1 6.21 24.42.08.36.57.39.7.05.94-2.36 2.99-7.73 2.99-7.73" style="fill:#454140"/></g><path d="M40.03 48.74c3.18-4.51 10.66-4.66 14.41-.82.65.67 1.34 1.53.85 2.5-.54 1.07-1.65.9-2.56.53-2.43-.98-4.94-1.42-7.55-.89-1.13.23-2.1.7-3.17 1.08-1.45.5-2.91-1.01-1.98-2.4M86.09 51.14c-2.23-.97-4.49-1.53-6.95-1.25-1.12.13-2.22.42-3.26.83-.83.33-1.72.86-2.58.28-2.45-1.69 1.89-4.44 3.17-4.99 2.76-1.19 6.05-1.08 8.72.31 1.06.55 2.21 1.35 2.84 2.4.79 1.31-.39 3.05-1.94 2.42" style="fill:#454140" id="eyebrows"/></svg>