<svg xmlns="http://www.w3.org/2000/svg" xmlns:xlink="http://www.w3.org/1999/xlink" xml:space="preserve" id="Layer_1" x="0" y="0" version="1.1" viewBox="0 0 128 128"><path id="hair_3_" d="M98.95 80.02c-1.25-2.27.34-4.58 3.06-7.44 3.54-3.73 7.33-11.5 6.16-20.08-.44-3.21-1.94-6.19-4.11-8.6-2.42-2.69-5.65-6.27-5.64-6.31 0 0-14.66 7.1-34.37 7.1s-32.1-11.58-32.68-11.5c0 0-21.13 19.88-5.27 39.38 2.49 3.06 4.3 5.17 3.06 7.44-1.21 2.21-4.81 2.53-4.81 2.53s.83 2.26 2.83 3.48c1.85 1.13 4.13 1.39 5.7 1.43 0 0 6.15 8.51 22.23 8.51h17.9c16.08 0 22.23-8.51 22.23-8.51 1.57-.04 3.85-.3 5.7-1.43 2-1.22 2.83-3.48 2.83-3.48s-3.61-.31-4.82-2.52" style="fill:#3c2c23"/><g id="hairHighlights"><path d="M64.04 95.96v-9.44l28.57-2.26 2.6 3.2s-6.15 8.51-22.23 8.51z" style="fill:#554138"/><path d="M95.15 83.33c-4.28-6.5 5.21-8.93 5.21-8.93l.01.01c-1.65 2.05-2.4 3.84-1.43 5.61 1.21 2.21 4.81 2.53 4.81 2.53s-4.9 4.36-8.6.78" style="fill:#554138"/><path d="M103.06 42.76c3.99 4.48 6.04 8.17 5.07 16.42-.66 5.67-3.39 10.48-5.87 13.14-.57.62-3.01 3.01-3.57 4.92 0 0-9.54-13.31-12.39-21.13-.57-1.58-1.1-3.2-1.17-4.88-.05-1.26.14-2.76.87-3.83.89-1.3 10.24-12.3 10.24-12.3 0 .01 3.8 4.28 6.82 7.66" style="fill:#554138"/><path d="M31.81 33.44c-17.2 16.57-12.04 32.24-5.25 39.69.57.62 2.73 3.17 3.28 5.08 0 0 9.54-13.31 12.39-21.13.58-1.58 1.1-3.2 1.17-4.88.05-1.26-.14-2.76-.87-3.83-.89-1.31-1.93-.96-3.44-.96-2.87-.01-7.28-13.97-7.28-13.97" style="fill:#554138"/><path d="M64.09 95.96v-9.44l-28.57-2.26-2.6 3.2s6.15 8.51 22.23 8.51z" style="fill:#554138"/><path d="M32.98 83.33c4.28-6.5-5.21-8.93-5.21-8.93l-.01.01c1.65 2.05 2.4 3.84 1.43 5.61-1.21 2.21-4.81 2.53-4.81 2.53s4.9 4.36 8.6.78" style="fill:#554138"/></g><path id="neck_1_" d="M73.63 112.3V89.51H54.37v22.79z" style="fill:#7a4c32"/><path id="suit_back_layer_1_" d="M116.52 123.96v-3.11c0-9.38-8.44-15.34-15.73-18.43-6.45-2.74-14.28-5.1-23.99-5.8 0 0-2.92 19.52-12.65 19.38-8.32-.12-11.91-19.41-11.91-19.41-20.55 1.94-40.75 9.46-40.75 24.26v3.11z" style="fill:#212121"/><g id="suit_top_1_"><path d="M71.91 123.96 75.34 106H52.66l3.84 17.96z" style="fill:#e0e0e0"/><path d="M66.85 113.53h-5.63l-1.78-7.5h9.12zM67.96 123.96l-1.14-10.43h-5.64l-1.14 10.43z" style="fill:#212121"/><path d="m63.98 106-8.65 7.19-1.62 1.35-3.49-17.81q.75-.09 1.5-.15c1.11-.11 1.37-.2 2.49-.27 0 0 1.81 3.08 3.66 5.5 3.17 4.13 6.11 4.19 6.11 4.19M77.76 96.78l-3.48 17.76L63.99 106s2.96-.06 6.13-4.19c1.92-2.5 3.67-5.48 3.67-5.48 1.12.08 1.38.17 2.49.28.5.05.99.1 1.48.17" style="fill:#fafafa"/><path d="m55.23 113.19-3.61-16.61q-.75.06-1.5.15c-3.16.34-8.08 1.18-8.08 1.18l-3.1 6.57 7.12 4.36-4.75 6.11 9.25 9.01h7.01zM72.77 113.19l3.61-16.61q.75.06 1.5.15c3.35.22 8.01 1.03 8.01 1.03l3.17 6.72-7.12 4.36 4.75 6.11-9.25 9.01h-7.01z" style="fill:#424242"/></g><path d="M92.2 119.78c-.04.02-.08.04-.12.04h-4.12c-.15 0-.21.19-.09.28.1.07.19.14.29.2.33.23.73.34 1.13.34h3.23c-.09-.3-.2-.59-.32-.86M92 119.38c-.22-.42-.43-.74-.59-.96h-5.29c-.11 0-.17.14-.08.22.05.05.1.09.15.14.45.4 1.03.61 1.62.61H92zM92.65 121.1h-2.84c-.09 0-.12.12-.04.16 1.72.86 2.69.8 2.69.8h.33a6 6 0 0 0-.14-.96M102.04 119.82h-4.12c-.05 0-.09-.02-.12-.04-.12.26-.23.56-.32.87h3.23c.4 0 .8-.12 1.13-.34.09-.06.19-.13.29-.2.12-.09.06-.29-.09-.29M103.88 118.41h-5.29c-.16.22-.37.54-.59.96h4.18c.6 0 1.18-.21 1.62-.61.05-.05.1-.09.15-.14.09-.07.04-.21-.07-.21M100.19 121.1h-2.84q-.105.465-.15.96h.33s.97.06 2.69-.8c.09-.04.06-.16-.03-.16M96.78 117.29c-.32.15-.7.24-1.04.29-.49.07-.99.07-1.48 0-.35-.05-.72-.14-1.04-.29-.2-.09-.44.01-.52.21l-.33.83c-.09.22-.07.36.01.47.3.4 1 1.5 1.05 2.83.01.15.08.28.22.35.27.13.75.38 1.11.68.15.12.36.12.51 0 .36-.3.83-.54 1.11-.68.13-.06.21-.2.22-.35.05-1.33.75-2.42 1.05-2.83.08-.11.1-.25.04-.37-.09-.23-.25-.62-.37-.92-.1-.21-.34-.31-.54-.22" style="fill:#ffc107" id="emblem_1_"/><path id="ears_2_" d="M91.38 50.6H36.73c-5.89 0-10.71 5.13-10.71 11.41s4.82 11.41 10.71 11.41h54.65c5.89 0 10.71-5.14 10.71-11.41S97.27 50.6 91.38 50.6" style="fill:#7a4c32"/><path id="head_1_" d="M64.06 11.24c-17.4 0-33.52 18.61-33.52 45.4 0 26.64 16.61 39.81 33.52 39.81s33.52-13.17 33.52-39.81c0-26.79-16.12-45.4-33.52-45.4" style="fill:#a56c43"/><path d="M54.85 49.99c-.93-1.23-3.07-3.01-7.23-3.01s-6.31 1.79-7.23 3.01c-.41.54-.31 1.17-.02 1.55.26.35 1.04.68 1.9.39s2.54-1.16 5.35-1.18c2.81.02 4.49.89 5.35 1.18s1.64-.03 1.9-.39c.29-.38.39-1.01-.02-1.55M87.72 49.99c-.93-1.23-3.07-3.01-7.23-3.01s-6.31 1.79-7.23 3.01c-.41.54-.31 1.17-.02 1.55.26.35 1.04.68 1.9.39s2.54-1.16 5.35-1.18c2.81.02 4.49.89 5.35 1.18s1.64-.03 1.9-.39c.29-.38.39-1.01-.02-1.55" style="fill:#42312c" id="eyebrows_2_"/><g id="eyes_2_"><ellipse cx="47.62" cy="58.98" rx="4.93" ry="5.1" style="fill:#42312c"/><ellipse cx="80.49" cy="58.98" rx="4.93" ry="5.1" style="fill:#42312c"/></g><g id="hairGroup"><path id="hair" d="M99.19 20.17c-.98-4.1-68.14-11.51-65.18-2.92-2.97.11-7.17 20.56-7.17 20.56-1.6 14.14 4.41 28.29 4.41 28.29S36 48.59 35.6 45.91c0 0 7.87-1.46 16.79-6.24 6.03-3.23 10.15-7.03 16.94-8.46 10.32-2.17 12.62 4.82 12.62 4.82s9.55-1.72 12.43 10.7c1.19 5.11 1.96 13.58 2.61 18.77-.06-.45 3.28-6.01 3.91-11.7.16-1.48 3.49-11.8-1.71-33.63" style="fill:#3c2c23"/><path id="hairHighlights_1_" d="M99.19 20.17c-.98-4.1-68.14-11.51-65.18-2.92-2.97.11-7.17 20.56-7.17 20.56-1.6 14.14 4.41 28.29 4.41 28.29S36 48.59 35.6 45.91c0 0 7.87-1.46 16.79-6.24 6.03-3.23 10.15-7.03 16.94-8.46 10.32-2.17 12.62 4.82 12.62 4.82s9.55-1.72 12.43 10.7c1.19 5.11 1.96 13.58 2.61 18.77-.06-.45 3.28-6.01 3.91-11.7.16-1.48 3.49-11.8-1.71-33.63" style="fill:#554138"/></g><path id="mouth_2_" d="M72.47 76.31c-3.18 1.89-13.63 1.89-16.81 0-1.83-1.09-3.7.58-2.94 2.24.75 1.63 6.44 5.42 11.37 5.42s10.55-3.79 11.3-5.42c.76-1.66-1.09-3.32-2.92-2.24" style="fill:#473530"/><path id="nose_2_" d="M67.92 68.23c-.11-.04-.21-.07-.32-.08h-7.08c-.11.01-.22.04-.32.08-.64.26-.99.92-.69 1.63s1.71 2.69 4.55 2.69 4.25-1.99 4.55-2.69c.3-.71-.05-1.37-.69-1.63" style="fill:#875334"/><g id="cap_1_"><g id="XMLID_3_"><path d="M63.79 24.37c-33.25 0-38.58 11.36-38.58 11.36s10.25 9.91 38.58 10.1c28.34-.19 39.11-10.73 39.11-10.73s-5.85-10.73-39.11-10.73" style="fill:#666"/></g><path d="M20.41 34.65c1.69 6.19 3.31 8.74 3.31 8.74C25.44 41.39 35.65 32 63.93 32h.16c28.28 0 37.96 9.57 39.67 11.57 0 0 2.11-2.9 3.81-9.09C111.5 20.16 92.04 4.12 64.04 4.12c-27.92.01-47.54 16.22-43.63 30.53" style="fill:#303030"/><defs><path id="SVGID_8_" d="M20.41 34.65c1.69 6.19 3.31 8.74 3.31 8.74C25.44 41.39 35.65 32 63.93 32h.16c28.28 0 38.03 9.43 39.74 11.43 0 0 2.04-2.76 3.74-8.95C111.5 20.16 92.04 4.12 64.04 4.12c-27.92.01-47.54 16.22-43.63 30.53"/></defs><clipPath id="SVGID_9_"><use xlink:href="#SVGID_8_" style="overflow:visible"/></clipPath><path id="XMLID_1_" d="M99.67 35.76a4.63 4.63 0 0 0-1.72-2.81c-3.74-2.9-14.93-10.1-33.89-10.1-19.45 0-30.34 7.19-33.95 10.1-.86.69-1.45 1.67-1.65 2.75l-.01.06c-.62 3.29 2.35 6.14 5.61 5.36 6.79-1.64 17.85-3.73 30-3.75 12.15.02 23.21 2.12 30 3.75 3.25.78 6.23-2.07 5.61-5.36" style="clip-path:url(#SVGID_9_);fill:#212121"/><path d="M57.31 20.48c-.09.06-.18.1-.29.1h-9.84c-.36 0-.5.46-.21.67q.345.255.69.48c.8.54 1.74.82 2.71.82h7.72c-.23-.74-.49-1.44-.78-2.07M56.84 19.51c-.52-1-1.03-1.78-1.4-2.3H42.79c-.27 0-.4.33-.2.51.12.11.25.22.37.33a5.88 5.88 0 0 0 3.88 1.46zM58.38 23.62h-6.79c-.21 0-.28.29-.09.39 4.11 2.05 6.44 1.91 6.44 1.91h.79c-.05-.8-.17-1.57-.35-2.3M80.82 20.58h-9.84c-.11 0-.21-.04-.29-.1-.29.63-.55 1.33-.78 2.07h7.72c.96 0 1.91-.28 2.71-.82q.345-.225.69-.48c.29-.21.15-.67-.21-.67M85.21 17.21H72.56c-.37.52-.88 1.3-1.4 2.3h9.99c1.43 0 2.81-.51 3.88-1.46.12-.11.25-.22.37-.33.2-.18.07-.51-.19-.51M76.41 23.62h-6.79c-.17.73-.29 1.5-.35 2.3h.79s2.33.14 6.44-1.91c.18-.1.12-.39-.09-.39M68.25 14.53c-.76.35-1.66.56-2.49.69-1.17.18-2.36.18-3.53 0-.83-.13-1.73-.34-2.49-.69-.48-.22-1.04.02-1.24.51l-.8 1.98c-.21.52-.17.86.02 1.12.71.96 2.39 3.59 2.5 6.76.01.35.2.67.52.83.65.31 1.79.91 2.64 1.61.36.3.86.3 1.22 0 .86-.71 1.99-1.3 2.64-1.61.32-.15.5-.47.52-.83.11-3.17 1.8-5.79 2.5-6.76.19-.26.23-.59.11-.89-.23-.56-.6-1.49-.89-2.21a.91.91 0 0 0-1.23-.51" style="fill:#ffc107"/></g><path d="M20.41 34.65c1.69 6.19 3.31 8.74 3.31 8.74C25.44 41.39 35.65 32 63.93 32h.16c28.28 0 37.97 9.59 39.69 11.59 0 0 2.11-2.91 3.8-9.1 3.93-14.32-15.53-30.36-43.53-30.36-27.93 0-47.55 16.21-43.64 30.52" style="opacity:.3;fill:#212121"/></svg>