<svg xmlns="http://www.w3.org/2000/svg" xml:space="preserve" id="Layer_1" x="0" y="0" version="1.1" viewBox="0 0 128 128"><path id="hair" d="M64 3.81c-44.41.87-50.07 41.56-50.06 66.39 0 18.65 2.54 35.64 4.33 45.29a10.14 10.14 0 0 0 9.97 8.31h71.53c4.89 0 9.08-3.5 9.97-8.31 1.79-9.65 4.33-26.64 4.33-45.29 0-24.83-5.66-65.52-50.07-66.39" style="fill:#ab872f"/><path d="M64 3.81c-44.41.87-50.07 41.56-50.06 66.39 0 18.65 2.54 35.64 4.33 45.29a10.14 10.14 0 0 0 9.97 8.31h71.53c4.89 0 9.08-3.5 9.97-8.31 1.79-9.65 4.33-26.64 4.33-45.29 0-24.83-5.66-65.52-50.07-66.39" style="fill:#bfa055"/><g id="hair_x5F_group_6_"><path id="hairHighlights_16_" d="M19.19 71.7s3.4 52.09 44.9 52.09 44.27-51.25 44.27-51.25z" style="fill:#bfa055"/></g><path id="head" d="M95.84 52.18C92.11 48.79 82.5 41.89 78.55 33.4c0 0-11.52 13.74-37.36 18.95-14.53 2.93-14.53 11.56-14.53 15.27s.6 15.03 1.43 18.19c1.94 7.44 4.61 11.65 10.28 11.65 6.64 0 9.8-7.85 25.62-7.85s18.7 9.24 25.62 7.85c4.34-.88 6.63-3.79 9.07-8.27 2.16-3.97 2.66-13.65 2.5-22.78-.29-5.25-.68-10.01-5.34-14.23" style="fill:#e0bb95"/><path id="nose_7_" d="M69.24 85.69c-.15-.06-.29-.09-.44-.11h-9.6c-.15.02-.29.05-.44.11-.87.35-1.35 1.25-.94 2.21.42.96 2.33 3.65 6.18 3.65s5.76-2.69 6.18-3.65c.4-.95-.08-1.85-.94-2.21" style="fill:#c48e6a"/><g id="eyes_7_"><ellipse cx="42.96" cy="73.33" rx="6.67" ry="6.91" style="fill:#5d4037"/><ellipse cx="85.43" cy="73.33" rx="6.67" ry="6.91" style="fill:#5d4037"/></g><g id="eyebrows_11_"><path d="M52.07 62.53c-1.19-1.57-3.94-3.86-9.27-3.86s-8.09 2.29-9.27 3.86c-.53.7-.39 1.5-.03 1.98.34.45 1.33.87 2.44.5 1.1-.37 3.26-1.49 6.86-1.51 3.61.03 5.76 1.14 6.86 1.51 1.1.38 2.1-.04 2.44-.5.36-.48.5-1.29-.03-1.98M94.48 62.53c-1.19-1.57-3.94-3.86-9.27-3.86s-8.09 2.29-9.27 3.86c-.53.7-.39 1.5-.03 1.98.34.45 1.33.87 2.44.5 1.1-.37 3.26-1.49 6.86-1.51 3.61.03 5.76 1.14 6.86 1.51 1.1.38 2.1-.04 2.44-.5.36-.48.49-1.29-.03-1.98" style="fill:#ab872f" id="eyebrows_12_"/></g><path id="mouth_1_" d="M64.24 107.43c5.14 0 10.84-3.12 13.63-5.51.74-.62.29-1.83-.68-1.83h-26c-.97 0-1.41 1.21-.68 1.83 2.84 2.39 8.6 5.51 13.73 5.51" style="fill:#e0bb95"/></svg>