<svg xmlns="http://www.w3.org/2000/svg" xml:space="preserve" id="Layer_1" x="0" y="0" version="1.1" viewBox="0 0 128 128"><g id="hairGroup_1_"><path id="hair_10_" d="M64.57 2.87c-41.01 0-40.68 37.92-40.68 38.52 0 24.56 1.88 59.25 11.71 72.9 3.9 5.41 11.43 5.71 11.43 5.71l16.97-.02 16.97.02s7.54-.3 11.43-5.71c9.83-13.65 11.71-48.34 11.71-72.9-.01-.6 1.47-38.52-39.54-38.52" style="fill:#543930"/><path id="hairHighlights_1_" d="M64.57 2.87c-41.01 0-40.68 37.92-40.68 38.52 0 24.56 1.88 59.25 11.71 72.9 3.9 5.41 11.43 5.71 11.43 5.71l16.97-.02 16.97.02s7.54-.3 11.43-5.71c9.83-13.65 11.71-48.34 11.71-72.9-.01-.6 1.47-38.52-39.54-38.52" style="fill:#6d4c41"/></g><g id="shirt"><g id="XMLID_53_"><path d="M64.14 96H64c-25.65.03-52 7.1-52 24.99V124h104v-3.01C116 104.12 89.9 96 64.14 96" style="fill:#e3f2fd"/></g><path d="M75.65 90.8h-23.3l-6.97 7.53 8.2 12.71c.9 1.39 2.89 1.5 3.93.21l6.48-8.01 6.48 8.01c1.04 1.29 3.04 1.18 3.93-.21l8.2-12.71z" style="fill:#f5f5f5"/><circle cx="64" cy="111.31" r="1.69" style="fill:#64b5f6"/><circle cx="64" cy="119.31" r="1.69" style="fill:#64b5f6"/></g><path id="neck" d="M64 84.33h-9.08v9.98c0 4.51 3.7 8.17 8.26 8.17h1.65c4.56 0 8.26-3.66 8.26-8.17v-9.98z" style="fill:#e59600"/><path id="head" d="M64 16.04c-17.2 0-33.13 12.79-33.13 39.91 0 21.78 13.49 34.67 25.23 38.83 2.8.99 5.5 1.49 7.9 1.49 2.38 0 5.07-.49 7.85-1.47 11.76-4.14 25.28-17.03 25.28-38.84 0-27.13-15.93-39.92-33.13-39.92" style="fill:#ffca28"/><path id="nose" d="M67.81 68.06c-.11-.04-.21-.07-.32-.08H60.5c-.11.01-.21.04-.32.08-.63.26-.98.91-.68 1.61s1.69 2.66 4.49 2.66 4.2-1.96 4.49-2.66c.31-.7-.03-1.36-.67-1.61" style="fill:#e59600"/><g id="eyes"><ellipse cx="47.75" cy="58.87" rx="4.87" ry="5.04" style="fill:#404040"/><ellipse cx="80.25" cy="58.87" rx="4.87" ry="5.04" style="fill:#404040"/></g><path d="M54.99 49.82c-.93-1.23-3.07-3.01-7.23-3.01s-6.31 1.79-7.23 3.01c-.41.54-.31 1.17-.02 1.55.26.35 1.04.68 1.9.39s2.54-1.16 5.35-1.18c2.81.02 4.49.89 5.35 1.18s1.64-.03 1.9-.39c.28-.38.38-1.01-.02-1.55M87.48 49.82c-.93-1.23-3.07-3.01-7.23-3.01s-6.31 1.79-7.23 3.01c-.41.54-.31 1.17-.02 1.55.26.35 1.04.68 1.9.39s2.54-1.16 5.35-1.18c2.81.02 4.49.89 5.35 1.18s1.64-.03 1.9-.39c.29-.38.39-1.01-.02-1.55" style="fill:#6d4c41" id="eyebrows"/><path id="mouth" d="M72.32 76.14c-3.15 1.87-13.47 1.87-16.61 0-1.81-1.07-3.65.57-2.9 2.21.74 1.61 6.37 5.36 11.23 5.36s10.42-3.75 11.16-5.36c.75-1.64-1.08-3.29-2.88-2.21" style="fill:#795548"/><g id="hairGroup"><path id="hair_5_" d="M64.57 2.87c-41.01 0-40.68 37.92-40.68 38.52 0 7.76.19 16.53.75 25.32l6.72-.02c-.06-2.92 1.99-20.97 8.08-22.34 22.36-5.03 35.01-16.89 35.01-16.89 3.29 7.18 13.58 14.19 17.27 16.86 3.03 2.19 4.27 18.55 4.21 22.38h7.4c0-.05.02-.1.02-.16.56-8.75.74-17.46.74-25.17.01-.58 1.49-38.5-39.52-38.5" style="fill:#543930"/><path id="hairHighlights" d="M64.57 2.87c-41.01 0-40.68 37.92-40.68 38.52 0 7.76.19 16.53.75 25.32l6.72-.02c-.06-2.92 1.99-20.97 8.08-22.34 22.36-5.03 35.01-16.89 35.01-16.89 3.29 7.18 13.58 14.19 17.27 16.86 3.03 2.19 4.27 18.55 4.21 22.38h7.4c0-.05.02-.1.02-.16.56-8.75.74-17.46.74-25.17.01-.58 1.49-38.5-39.52-38.5" style="fill:#6d4c41"/></g></svg>