<svg xmlns="http://www.w3.org/2000/svg" xmlns:xlink="http://www.w3.org/1999/xlink" xml:space="preserve" id="Layer_1" x="0" y="0" version="1.1" viewBox="0 0 128 128"><path id="tone" d="m21.18 42.61 11.72-2.09a2.913 2.913 0 0 0-1.25-5.69l-11.61 3.23c-1.57.35-2.63 1.38-2.29 2.95.35 1.57 1.86 1.95 3.43 1.6" style="fill:#91674d"/><g id="body"><path d="M89.08 71.67c-5.11-2.41-9.21-6.93-12.69-11.39L59.64 38.85a7.14 7.14 0 0 0-4.49-3.26c-.08-.02-.16-.03-.24-.05l.01-.07-34.28-2.99c-1.07-.09-2.14.02-3.17.34l-5.32 1.66c-.7.22-1.37.53-2 .93-1.24.79-3.47 2.26-4.5 3.16-.57.5-.95 1.01-.95 1.92 0 .74.3 1.4.86 1.86.61.51 1.47.71 2.35.55 1.11-.2 2.34-1.27 3.18-2.13.23-.24.53-.39.86-.43l5.63-.74c.43-.06.85-.04 1.25.05.75.17 1.63.32 2.66.51 1.33.24 2.99.53 4.93.96 2.4.53 20.25 6.29 20.42 6.34 1.21.42 2.27 1.23 2.98 2.3l6.72 10.1c2.53 3.8 2.5 8.81-.06 12.47l-.1.14c-2.71 3.91-5.94 10.83-7.19 15.43-2.69 9.87-1.06 16.29 4.87 19.09l22.85 10.79 19.77-41.85z" style="fill:#ba8d68"/></g><path id="suit" d="M113.15 84.31 89.53 70.79a36.6 36.6 0 0 1-13.14-10.5L59.64 38.85a7.14 7.14 0 0 0-4.49-3.26c-.19-.04-.37-.08-.55-.11a.6.6 0 0 0-.19-.06l-19.2-1.67a.52.52 0 0 0-.37.12c-2.05 1.77-3.28 4.79-3.21 7.87 0 .2.02.4.04.6s.16.36.35.42c6.06 1.87 14.74 4.67 14.82 4.7 1.21.42 2.27 1.23 2.98 2.3l6.72 10.1c2.26 3.4.81 12.06-1.97 16.3-.14.21-.1.49.1.66 4.23 3.56 6.2 6.9 5.26 8.94-.93 2.03-4.64 2.67-10.17 1.77a.49.49 0 0 0-.57.41c-.05.29-.19 1.01-.35 1.87-.45 2.33-.82 4.31-.85 4.87-.01.2.09.38.26.47 3.98 2.11 28.35 22.46 28.43 22.46.19 0 18.57-7.61 18.65-7.79 0 0 19.64-17.92 21.05-23.22.25-.98-1.99-1.64-3.23-2.29" style="fill:#ffa000"/><path id="neck" d="M61.14 87.92a6.19 6.19 0 0 0-1.74-8.58l-4.41-2.92-6.83 10.32 4.41 2.92c2.84 1.89 6.68 1.11 8.57-1.74" style="fill:#99674f"/><path id="hair" d="M19.95 60.96s.13-.21.19-.3l.2-.3c8-10.58 15.78-8.85 20.52-6.69 5.14 2.33 8.71 4.42 8.71 4.42s-.31.06-.81.22c-.52.18-.95.47-.95.47l3.54 3.19-10.64-1.48a.15.15 0 0 0-.16.08l-1.26 2.46a79 79 0 0 1-4.2 7.19h.01c-.07.1-.13.2-.2.3s-.13.2-.2.3h-.01a79 79 0 0 1-4.98 6.68l-1.77 2.12a.15.15 0 0 0-.01.18l5.52 9.22L29.13 87s-.11.51-.07 1.06c.04.52.11.83.11.83s-3.68-2.35-7.62-6.39c-3.73-3.83-8.05-10.36-1.6-21.54" style="fill:#543930"/><path id="ears" d="M52.1 58.71c-2.69-1.78-4.77.43-4.77.43l-.76 1.15-16.51 24.93-.76 1.15s-1.22 2.78 1.47 4.56c2.37 1.57 4.51.37 5.72-1.45L53 64.54c1.2-1.82 1.47-4.26-.9-5.83" style="fill:#99674f"/><path id="head" d="M20.71 61.1c7.12-10.76 17.33-8.05 29.04-.29 12.15 8.04 10.12 17.93 6.3 23.7-3.76 5.68-12.04 11.55-24.27 3.45-11.72-7.77-18.19-16.1-11.07-26.86" style="fill:#ba8d68"/><path d="M44.03 62.7s-2.06-.05-3.49 2.07c-1.43 2.13-.6 4.01-.6 4.01a.756.756 0 0 0 1.34.16c.05-.07.11-.28.12-.31.33-1.63.99-2.63.99-2.63s.67-.99 2.05-1.91c.02-.01.19-.15.24-.22.23-.35.14-.82-.21-1.05a.7.7 0 0 0-.44-.12M35.16 75.92s-2.06-.05-3.48 2.07c-1.43 2.13-.6 4.01-.6 4.01a.756.756 0 0 0 1.34.16c.05-.07.11-.28.12-.31.33-1.63.99-2.63.99-2.63s.67-.99 2.05-1.91c.02-.01.19-.15.24-.22.23-.35.14-.82-.21-1.05a.8.8 0 0 0-.45-.12" style="fill:#613e31" id="eyebrows_1_"/><g id="swimming_x5F_goggles"><path d="M40.21 76.18c1.84 1.24 2.3 3.78.17 6.93-2.1 3.11-4.66 3.68-6.5 2.44s-2.77-3.92-.56-7.18c2.14-3.18 5.05-3.43 6.89-2.19" style="fill:#01579b"/><ellipse id="SVGID_2_" cx="37.05" cy="80.86" rx="3.94" ry="2.95" style="fill:#b3e5fc" transform="rotate(-55.779 37.052 80.86)"/><defs><ellipse id="SVGID_3_" cx="37.05" cy="80.86" rx="3.94" ry="2.95" transform="rotate(-55.779 37.052 80.86)"/></defs><clipPath id="SVGID_5_"><use xlink:href="#SVGID_3_" style="overflow:visible"/></clipPath><path d="m39.97 85.71-4.73-8.11.58-3.06 4.73 8.11z" style="clip-path:url(#SVGID_5_);fill:#fff"/><path d="M48.44 64.01c1.84 1.24 2.3 3.78.17 6.93-2.1 3.11-4.66 3.68-6.5 2.44s-2.87-3.87-.67-7.13c2.15-3.18 5.16-3.48 7-2.24" style="fill:#01579b"/><ellipse id="SVGID_4_" cx="45.28" cy="68.69" rx="3.94" ry="2.95" style="fill:#b3e5fc" transform="rotate(-55.779 45.276 68.686)"/><defs><ellipse id="SVGID_6_" cx="45.28" cy="68.69" rx="3.94" ry="2.95" transform="rotate(-55.779 45.276 68.686)"/></defs><clipPath id="SVGID_7_"><use xlink:href="#SVGID_6_" style="overflow:visible"/></clipPath><path d="m48.2 73.54-4.73-8.11.58-3.07 4.73 8.11z" style="clip-path:url(#SVGID_7_);fill:#fff"/><path d="m43.49 73.6-2.55 3.77-1.88-1.27 2.55-3.77zM48.23 59.86c1.26 1.5 1.36 3.38.96 5.3l-1.88-1.26c.71-1.56.57-3.33-.96-5.3zM29.96 86.91c1.87.6 3.65-.01 5.28-1.11l-1.88-1.26c-1.18 1.25-2.88 1.78-5.28 1.11z" style="fill:#01579b"/></g><g id="swimming_x5F_cap"><path d="M18.1 59.1s-.15.21-.21.3-.19.3-.19.3c-7.01 11.69-1.42 20 2.69 23.45 4.56 3.83 8.65 5.67 8.65 5.67s-.08-.32-.13-.84c-.06-.56.04-1.07.04-1.07s-1.44-5.54-.72-10.09c.74-4.65 5.79-12.21 9.3-14.43 3.72-2.35 5.87-3.38 10.24-3.63 0 0 .44-.29.98-.46.51-.16.83-.21.83-.21s-3.4-2.83-8.64-5.68c-3.98-2.16-14.33-4.43-22.84 6.69" style="fill:#ffa000"/></g><path id="nose" d="M46.61 76.09c-.04.03-.08.07-.12.11l-1.84 2.9c-.02.05-.04.1-.05.15-.06.33.12.65.49.71s1.55 0 2.29-1.17c.74-1.16.29-2.26.08-2.57-.21-.3-.58-.33-.85-.13" style="fill:#99674f"/><ellipse id="mouth" cx="50.48" cy="80.97" rx="3.19" ry="1.93" style="fill:#5d4037" transform="rotate(-53.114 50.483 80.975)"/><path id="water_x5F_top" d="M112 81.98c-6.57 0-9.93 7.19-16 7.19-6.06 0-9.43-7.19-16-7.19s-9.93 7.19-16 7.19-9.43-7.19-16-7.19-9.94 7.19-16 7.19-9.43-7.19-16-7.19c-4.93 0-8.06 4.05-11.88 6.07v35.9h119.81V88.08c-3.82-2-6.96-6.1-11.93-6.1" style="fill:#039be5"/><path id="water_x5F_bottom" d="M111.97 105.69c-6.57 0-9.93-7.19-16-7.19-6.06 0-9.43 7.19-16 7.19s-9.93-7.19-16-7.19-9.43 7.19-16 7.19-9.94-7.19-16-7.19-9.43 7.19-16 7.19c-4.92 0-8.04-4.03-11.85-6.06v24.32h119.81V99.56c-3.83 2-6.98 6.13-11.96 6.13" style="fill:#29b6f6"/></svg>