<svg xmlns="http://www.w3.org/2000/svg" xml:space="preserve" id="Layer_3" x="0" y="0" version="1.1" viewBox="0 0 128 128"><path d="M76.1 124.17H59.47V4h11.96c.69 0 1.36.29 1.83.8l2.45 2.65c.25.27.39.62.39.99z" style="fill:#a3673e"/><path d="M72.53 124.17H55.9V5.36c0-.75.61-1.36 1.36-1.36h13.91c.75 0 1.36.61 1.36 1.36z" style="fill:#bf855e"/><path d="m76.1 83-20.2.02v15L76.1 98z" style="fill:#424242"/><path d="M55.9 22.02 76.1 22V7l-20.2.02z" style="fill:#424242"/><path d="M108.54 89.63H22.25c-.35 0-.69-.09-.99-.26l-3.97-2.23c-.52-.29-.85-.85-.85-1.45v-71.7c0-.54.44-.99.99-.99h89.1c.48 0 .96.16 1.34.45l1.89 1.45c.5.38.79.98.79 1.6v71.1c.01 1.13-.9 2.03-2.01 2.03" style="fill:#9e9e9e"/><path d="M106.27 86.67H17.45c-.56 0-1.01-.45-1.01-1.01V14.01c0-.56.45-1.01 1.01-1.01h88.82c.56 0 1.01.45 1.01 1.01v71.65c0 .56-.45 1.01-1.01 1.01" style="fill:#f5f5f5"/><path d="M40.24 38.25h43.04M40.72 60.75h43.04" style="fill:none;stroke:#616161;stroke-width:9;stroke-linecap:round;stroke-miterlimit:10"/><path d="M106.31 26.56h-88.9a.97.97 0 0 1-.97-.97V13.97c0-.54.44-.97.97-.97h88.89c.54 0 .97.44.97.97v11.62c.01.54-.43.97-.96.97" style="fill:#f5f5f5"/><path d="M30.01 13.99v71.69c0 .55-.44.99-.99.99H17.43c-.55 0-.99-.44-.99-.99V13.99c0-.55.44-.99.99-.99h11.59c.54 0 .99.44.99.99" style="fill:#bdbdbd"/></svg>