<svg xmlns="http://www.w3.org/2000/svg" xml:space="preserve" id="Layer_9" x="0" y="0" version="1.1" viewBox="0 0 128 128"><path d="M11.57 11.44h104.9v104.9H11.57z" style="fill:#e1f5fe"/><path d="M90.95 11.44 11.53 50.19l.09 45.86 89.3-84.61z" style="fill:#fff"/><path d="m105.56 11.44-80.1 105.1 48.94-.2 42.07-96.42v-8.48z" style="fill:#fff"/><path d="M11.61 93.25 98 11.44h11.23L22 116.56l-10.43-.22z" style="fill:#fff"/><path d="M4 7.53v112.93a3.53 3.53 0 0 0 3.53 3.53h112.93a3.53 3.53 0 0 0 3.53-3.53V7.53A3.53 3.53 0 0 0 120.46 4H7.53A3.53 3.53 0 0 0 4 7.53m54.01 52.66H17.14c-1.15 0-2.08-.93-2.08-2.08V16.56c0-1.15.93-2.08 2.08-2.08h40.87c1.15 0 2.08.93 2.08 2.08v41.56c0 1.14-.93 2.07-2.08 2.07m52.76 0H69.9c-1.15 0-2.08-.93-2.08-2.08V16.56c0-1.15.93-2.08 2.08-2.08h40.87c1.15 0 2.08.93 2.08 2.08v41.56c0 1.14-.93 2.07-2.08 2.07m-52.76 53.34H17.14c-1.15 0-2.08-.93-2.08-2.08V69.89c0-1.15.93-2.08 2.08-2.08h40.87c1.15 0 2.08.93 2.08 2.08v41.56c0 1.15-.93 2.08-2.08 2.08m52.76 0H69.9c-1.15 0-2.08-.93-2.08-2.08V69.89c0-1.15.93-2.08 2.08-2.08h40.87c1.15 0 2.08.93 2.08 2.08v41.56c0 1.15-.93 2.08-2.08 2.08" style="fill:#d68b52"/><path d="M69.15 58.63V17.89l-3.18-4.18v48.1h48.1l-4.17-3.17z" style="fill:#ffccbc"/><path d="M65.97 13.71v10.46l3.18-3.19v-3.09h40.75v40.75l4.17 3.17v-48.1z" style="fill:#b25b47"/><path d="M65.97 22.8v15.29l3.18-3.18V19.59z" style="fill:#b25b47"/><path d="M18.1 17.89h40.75v40.75H18.1zm-4.17-4.18v48.1h48.1v-48.1z" style="fill:#ffccbc"/><path d="M13.93 13.71v17.98l4.17-3.17V17.97l.04-.08h40.71v40.75l3.18 3.17v-48.1z" style="fill:#b25b47"/><path d="M13.93 30.41V45.7l4.17-3.18V27.2z" style="fill:#b25b47"/><path d="M109.9 110.11H69.15V69.36h40.75zm4.17 4.18v-48.1h-48.1v48.1z" style="fill:#ffccbc"/><path d="M66.04 66.19h-.07v8.1h3.18v-4.93h40.75v40.67l4.17 4.17V66.19z" style="fill:#b25b47"/><path d="M65.97 73.77v18.5l3.18-3.19V73.77z" style="fill:#b25b47"/><path d="M58.85 84.37v25.74l-40.75-.08V69.36h40.69l3.17-3.17H13.93v48.01l48.1-.1V81.09z" style="fill:#ffccbc"/><path d="M61.96 66.19H13.93v16.83l4.17-.03V69.36h40.75v11.57h3.18V66.19z" style="fill:#b25b47"/><path d="M58.85 80.49v18.5l3.18-3.19V80.49z" style="fill:#b25b47"/><path d="M13.93 82.55v18.51l4.17-3.19V82.55z" style="fill:#b25b47"/></svg>