<svg xmlns="http://www.w3.org/2000/svg" xml:space="preserve" id="Layer_1" x="0" y="0" version="1.1" viewBox="0 0 128 128"><g id="suit_1_"><g id="XMLID_134_"><path d="M64.35 92.23h-.13c-25.82.04-52.19 9.31-52.19 31.37v.37h103.58v-.37c0-20.79-25.33-31.37-51.26-31.37" style="fill:#b3b3b3"/></g><path d="M89.07 123.97v-8.7c0-2.19-1.79-3.99-3.99-3.99H44.64c-2.19 0-3.99 1.79-3.99 3.99v8.7z" style="fill:#a6a6a6"/><path d="M116.11 123.97v-.35c0-5.12-2.25-8.34-3.4-11.25l-8.06 2.81 3.29 8.8h8.17zM20.45 123.97c.19-1.03.3-2.08.3-3.16 0-4.02-1.62-7.73-4.43-10.77-2.73 3.6-4.2 7.67-4.2 12.22v1.71z" style="fill:#757575"/><path d="M97.4 102.53c-11.44 4.91-23.94 7.24-36.38 6.81a85 85 0 0 1-18.15-2.61c-3.09-.79-6.14-1.76-9.12-2.89-2.67-1.02-5.37-2.03-7.34-4.2-1.75-1.93-2.85-4.62-2.26-7.24.59-2.6 2.58-4.82 5.02-5.83 2.79-1.16 5.77-.89 8.5.24 2.8 1.17 5.66 2.17 8.58 2.96 11.9 3.23 24.63 3.12 36.48-.3 1.69-.49 3.36-1.04 5.01-1.66 1.63-.61 3.21-1.45 4.92-1.8 2.92-.6 6.24.03 8.51 2.05 2.3 2.05 3.34 5.28 2.34 8.23-.98 2.86-3.39 5.07-6.11 6.24" style="fill:#e6e6e6"/></g><ellipse id="helmet_x5F_back_1_" cx="63.95" cy="52.97" rx="49.17" ry="48.69" style="fill:#4c4c4c"/><path d="M110.39 53.04a45.43 45.43 0 0 1-9.11 27.24c-.59.8-1.21 1.57-1.85 2.32a46.7 46.7 0 0 1-8.49 7.75 46.2 46.2 0 0 1-16.08 7.28c-.61.16-1.22.29-1.84.41a47.105 47.105 0 0 1-18.17.01c-.66-.13-1.31-.27-1.95-.43a46.35 46.35 0 0 1-16.53-7.7c-2.99-2.18-5.7-4.71-8.06-7.52-.55-.65-1.07-1.3-1.58-1.98v-.01c-.35-.45-.69-.91-1.01-1.38-5.19-7.43-8.23-16.44-8.21-26.13.02-11.97 4.68-22.88 12.29-31.05C38.32 12.72 50.51 7 64.02 7.02c14.58.02 27.6 6.72 36.1 17.17 6.44 7.9 10.29 17.94 10.27 28.85" style="fill:#212121"/><g id="hairGroup_1_"><path id="hair" d="M102.88 45.26c0 10.61-.35 23.17-1.6 35.02-.59.8-1.21 1.57-1.85 2.32a46.7 46.7 0 0 1-8.49 7.75 46.2 46.2 0 0 1-16.08 7.28c-.61.16-1.22.29-1.84.41a47.105 47.105 0 0 1-18.17.01c-.66-.13-1.31-.27-1.95-.43a46.35 46.35 0 0 1-16.53-7.7c-2.99-2.18-5.7-4.71-8.06-7.52-.55-.65-1.07-1.3-1.58-1.98v-.01c-1.26-11.89-1.62-24.5-1.62-35.15 0-.31-.09-9.95 5.73-18.95 5.17-8 15.01-15.49 33.71-15.49 20.47 0 30.02 8.98 34.47 17.76 4.2 8.28 3.86 16.4 3.86 16.68" style="fill:#543930"/><path id="hairHighlights_1_" d="M102.88 45.26c0 10.61-.35 23.17-1.6 35.02-.59.8-1.21 1.57-1.85 2.32a46.7 46.7 0 0 1-8.49 7.75 46.2 46.2 0 0 1-16.08 7.28c-.61.16-1.22.29-1.84.41a47.105 47.105 0 0 1-18.17.01c-.66-.13-1.31-.27-1.95-.43a46.35 46.35 0 0 1-16.53-7.7c-2.99-2.18-5.7-4.71-8.06-7.52-.55-.65-1.08-1.31-1.58-1.99-1.26-11.89-1.62-24.5-1.62-35.15 0-.31-.09-9.95 5.73-18.95 5.17-8 15.01-15.49 33.71-15.49 20.47 0 30.02 8.98 34.47 17.76 4.2 8.28 3.86 16.4 3.86 16.68" style="fill:#6d4c41"/></g><path id="neck" d="m74.87 91.79-.01 5.84c-.61.16-1.22.29-1.84.41a47.105 47.105 0 0 1-18.17.01c-.66-.13-1.31-.27-1.95-.43l.01-5.86z" style="fill:#99674f"/><path id="head" d="M95.99 56.3c0 21.18-13.13 33.69-24.54 37.71-2.7.95-5.31 1.43-7.62 1.43-2.33 0-4.95-.49-7.67-1.45-11.4-4.04-24.49-16.54-24.49-37.69 0-15.3 5.22-25.9 12.87-32.07a53.9 53.9 0 0 1 19.42-3.59c6.66 0 13.04 1.2 18.94 3.41 7.77 6.15 13.09 16.81 13.09 32.25" style="fill:#ba8d68"/><path id="nose" d="M67.53 68.05c-.1-.04-.21-.07-.31-.08h-6.78c-.1.01-.21.04-.31.08-.61.25-.95.89-.66 1.56.29.68 1.64 2.58 4.36 2.58s4.07-1.9 4.36-2.58c.3-.67-.04-1.31-.66-1.56" style="fill:#99674f"/><g id="eyes"><ellipse cx="48.06" cy="59.14" rx="4.73" ry="4.89" style="fill:#49362e"/><ellipse cx="79.61" cy="59.14" rx="4.73" ry="4.89" style="fill:#49362e"/></g><path d="M55.08 50.35c-.9-1.19-2.98-2.93-7.02-2.93s-6.12 1.73-7.02 2.93c-.4.53-.3 1.14-.02 1.5.26.34 1.01.66 1.85.38.83-.28 2.47-1.13 5.2-1.15 2.73.02 4.36.86 5.2 1.15.83.28 1.59-.03 1.85-.38.26-.37.36-.98-.04-1.5M86.63 50.35c-.9-1.19-2.98-2.93-7.02-2.93s-6.12 1.73-7.02 2.93c-.4.53-.3 1.14-.02 1.5.26.34 1.01.66 1.85.38.83-.28 2.47-1.13 5.2-1.15 2.73.02 4.36.86 5.2 1.15.83.28 1.59-.03 1.85-.38.25-.37.35-.98-.04-1.5" style="fill:#613e31" id="eyebrows"/><path id="mouth" d="M71.91 75.9c-3.05 1.82-13.07 1.82-16.12 0-1.75-1.04-3.55.55-2.82 2.15.72 1.57 6.18 5.2 10.9 5.2s10.12-3.64 10.83-5.2c.73-1.6-1.04-3.2-2.79-2.15" style="fill:#5d4037"/><g id="hairGroup"><path id="hair_5_" d="M64.55 8.8c-39.76 0-39.44 33.86-39.44 34.44 0 7.52.18 16.02.73 24.55l6.51-.02c-.05-2.83 1.93-20.33 7.83-21.66 21.68-4.87 33.95-16.37 33.95-16.37 3.19 6.97 13.16 13.76 16.75 16.34 2.94 2.12 3.84 17.99 3.78 21.7h7.47c0-.05.02-.1.02-.15.54-8.48.72-16.93.72-24.4.01-.58 1.44-34.43-38.32-34.43" style="fill:#543930"/><path id="hairHighlights" d="M64.55 8.8c-39.76 0-39.44 33.86-39.44 34.44 0 7.52.18 16.02.73 24.55l6.51-.02c-.05-2.83 1.93-20.33 7.83-21.66 21.68-4.87 33.95-16.37 33.95-16.37 3.19 6.97 13.16 13.76 16.75 16.34 2.94 2.12 3.84 17.99 3.78 21.7h7.47c0-.05.02-.1.02-.15.54-8.48.72-16.93.72-24.4.01-.58 1.44-34.43-38.32-34.43" style="fill:#6d4c41"/></g><g id="helmet_1_"><path d="M113.13 53.21c0 .24-.01.48-.01.73a54.4 54.4 0 0 0-13.77-18.15 53.9 53.9 0 0 0-16.45-9.74 53.9 53.9 0 0 0-18.94-3.41c-6.85 0-13.39 1.27-19.42 3.59-6 2.29-11.49 5.64-16.25 9.79A54.6 54.6 0 0 0 14.8 53.94c0-.25-.02-.49-.02-.73-.42-26.8 21.72-49.18 49.18-49.18 27.16 0 49.17 22.02 49.17 49.18" style="fill:#f2f2f2"/></g></svg>