<svg xmlns="http://www.w3.org/2000/svg" xml:space="preserve" id="Layer_3" x="0" y="0" version="1.1" viewBox="0 0 128 128"><path d="M81.23 119.44c0 1.51-1.09 2.84-2.69 3.27-2.36.63-6.71 1.29-14.54 1.29s-12.18-.66-14.54-1.29c-1.6-.43-2.69-1.76-2.69-3.27v-5.62c0-1.55 1.39-2.81 3.11-2.81h28.24c1.72 0 3.11 1.26 3.11 2.81z" style="fill:#37474f"/><path d="M77.98 113.76c-11.52 1.13-16.34 1.03-27.97 0-11.49-1.02-23.95-13.8-23.95-27.03V39.78c0-14.82 12.01-26.83 26.83-26.83H75.1c14.82 0 26.83 12.01 26.83 26.83v46.95c0 13.23-12.62 25.92-23.95 27.03" style="fill:#c62828"/><ellipse cx="63.96" cy="64.34" rx="37.66" ry="50.08" style="fill:#fff176"/><path d="M26.03 46.57c3.44 1.16 17.17 5.28 37.9 5.28 21.05 0 34.88-4.25 38.05-5.34" style="fill:none;stroke:#f44336;stroke-width:2;stroke-linecap:round;stroke-miterlimit:10"/><path d="M26.03 60.05c3.44 1.16 17.17 5.28 37.9 5.28 20.87 0 34.64-4.18 37.97-5.31" style="fill:none;stroke:#f44336;stroke-width:2;stroke-linecap:round;stroke-miterlimit:10"/><path d="M26.03 73.53c3.44 1.16 17.17 5.28 37.9 5.28 20.87 0 34.64-4.18 37.97-5.31" style="fill:none;stroke:#f44336;stroke-width:2;stroke-linecap:round;stroke-miterlimit:10"/><path d="M33.18 21.58c6.53 1.61 16.25 3.3 30.74 3.3 14.53 0 24.15-1.68 30.67-3.29M26.31 33.18c3.87 1.27 17.42 5.19 37.61 5.19 20.31 0 33.9-3.96 37.68-5.21M26.03 87.01c3.44 1.16 17.17 5.28 37.9 5.28 20.87 0 34.64-4.18 37.97-5.31M30.7 101.87c6.04 1.65 16.89 3.91 33.22 3.91 16.16 0 27.2-2.51 33.29-4.16" style="fill:none;stroke:#9b0000;stroke-width:2;stroke-linecap:round;stroke-miterlimit:10"/><path d="M81.23 12.43c0 1.51-1.09 2.84-2.69 3.27-2.37.63-6.71 1.29-14.54 1.29s-12.18-.66-14.54-1.29c-1.6-.43-2.69-1.76-2.69-3.27V6.81c0-1.55 1.39-2.81 3.11-2.81h28.24c1.72 0 3.11 1.26 3.11 2.81z" style="fill:#37474f"/><path d="M49.77 5.75c.95.22 2.58.46 5.21.49.5.01.9.38.9.83l.01 7.47c0 .48-.45.85-.98.83-3.13-.11-4.96-.76-5.77-1.13a.82.82 0 0 1-.5-.74V6.56c0-.53.55-.94 1.13-.81" style="fill:#2f7889"/></svg>