<svg xmlns="http://www.w3.org/2000/svg" xml:space="preserve" id="Layer_1" x="0" y="0" version="1.1" viewBox="0 0 128 128"><g id="hairGroup"><path id="hair_3_" d="M99.74 80.12c-1.25-2.28.35-4.6 3.07-7.47 4.32-4.56 9.03-15.12 4.66-25.85.03-.06-.86-1.87-.84-1.93l-1.8-.09c-.58-.08-20.34-.12-40.11-.12s-39.54.04-40.12.12c0 0-2.66 1.96-2.64 2.02-4.37 10.73.34 21.29 4.66 25.85 2.72 2.87 4.32 5.19 3.07 7.47-1.21 2.21-4.83 2.54-4.83 2.54s.83 2.27 2.84 3.49c1.86 1.13 4.14 1.39 5.72 1.43 0 0 6.17 8.54 22.31 8.54h17.96c16.13 0 22.31-8.54 22.31-8.54 1.58-.04 3.86-.3 5.72-1.43 2.01-1.22 2.84-3.49 2.84-3.49s-3.6-.32-4.82-2.54" style="fill:#232020"/><g id="hairHighlights_1_"><path d="M64.71 96.12v-9.48l28.68-2.27L96 87.58s-6.17 8.54-22.31 8.54z" style="fill:#444140"/><path d="M95.93 83.44c-4.3-6.52 5.23-8.96 5.23-8.96l.01.01c-1.66 2.06-2.41 3.86-1.44 5.63 1.21 2.21 4.83 2.54 4.83 2.54s-4.92 4.38-8.63.78" style="fill:#444140"/><path d="M107.49 46.8c4.26 10.39-.22 21.09-4.43 25.6-.58.62-3.02 3.02-3.58 4.94 0 0-9.58-13.35-12.44-21.2-.58-1.58-1.1-3.22-1.17-4.9-.05-1.26.14-2.77.87-3.84.89-1.32 20.24-1.71 20.24-1.71 0 .01.51 1.11.51 1.11" style="fill:#444140"/><path d="M21.97 46.8c-4.26 10.39.23 21.09 4.43 25.6.58.62 3.02 3.02 3.58 4.94 0 0 9.58-13.35 12.44-21.2.58-1.58 1.1-3.22 1.17-4.9.05-1.26-.15-2.77-.87-3.84-.89-1.32-1.94-.97-3.45-.97-2.89 0-15.54-.74-16.52-.74-.01.01-.78 1.11-.78 1.11" style="fill:#444140"/><path d="M64.75 96.12v-9.48l-28.68-2.27-2.61 3.21s6.17 8.54 22.31 8.54z" style="fill:#444140"/><path d="M33.53 83.44c4.3-6.52-5.23-8.96-5.23-8.96l-.01.01c1.66 2.06 2.41 3.86 1.44 5.63-1.21 2.21-4.83 2.54-4.83 2.54s4.92 4.38 8.63.78" style="fill:#444140"/></g></g><g id="shirt"><path d="M64.13 96H64c-25.49.03-52 7.28-52 25.06V124h104v-2.94C116 104.3 89.74 96 64.13 96" style="fill:#f78c1f"/></g><path id="ears" d="M91.33 50.43H36.67c-5.89 0-10.71 5.14-10.71 11.41s4.82 11.41 10.71 11.41h54.65c5.89 0 10.71-5.14 10.71-11.41s-4.81-11.41-10.7-11.41" style="fill:#3c2b24"/><path id="neck" d="M54.92 90.08v9.98c0 4.51 3.46 8.17 9.08 8.17s9.08-3.66 9.08-8.17v-9.98z" style="fill:#3c2b24"/><path id="head" d="M64 11.07c-17.4 0-33.52 18.61-33.52 45.4 0 26.64 16.61 39.81 33.52 39.81S97.52 83.1 97.52 56.46c0-26.78-16.12-45.39-33.52-45.39" style="fill:#70534a"/><path id="mouth" d="M72.32 76.14c-3.15 1.87-13.47 1.87-16.61 0-1.81-1.07-3.65.57-2.9 2.21.74 1.61 6.37 5.36 11.23 5.36s10.42-3.75 11.16-5.36c.75-1.64-1.08-3.29-2.88-2.21" style="fill:#1a1717"/><path id="nose" d="M67.86 68.06c-.11-.04-.21-.07-.32-.08h-7.08c-.11.01-.22.04-.32.08-.64.26-.99.92-.69 1.63s1.71 2.69 4.55 2.69 4.25-1.99 4.55-2.69c.3-.71-.05-1.37-.69-1.63" style="fill:#33251f"/><path d="M47.63 60.3c-2.06 0-3.9-.5-5.18-1.29-.55-.34-.87-.14-.77.5.37 2.48 2.9 4.4 5.95 4.4 3.06 0 5.58-1.92 5.95-4.4.1-.64-.22-.84-.77-.5-1.28.79-3.12 1.29-5.18 1.29M80.25 60.3c-2.06 0-3.9-.5-5.18-1.29-.55-.34-.87-.14-.77.5.38 2.48 2.9 4.4 5.95 4.4s5.58-1.92 5.95-4.4c.1-.64-.22-.84-.77-.5-1.28.79-3.13 1.29-5.18 1.29" style="fill:#1a1717" id="eyes"/><path d="M54.99 49.82c-.93-1.23-3.07-3.01-7.23-3.01s-6.31 1.79-7.23 3.01c-.41.54-.31 1.17-.02 1.55.26.35 1.04.68 1.9.39s2.54-1.16 5.35-1.18c2.81.02 4.49.89 5.35 1.18s1.64-.03 1.9-.39c.28-.38.38-1.01-.02-1.55M87.48 49.82c-.93-1.23-3.07-3.01-7.23-3.01s-6.31 1.79-7.23 3.01c-.41.54-.31 1.17-.02 1.55.26.35 1.04.68 1.9.39s2.54-1.16 5.35-1.18c2.81.02 4.49.89 5.35 1.18s1.64-.03 1.9-.39c.29-.38.39-1.01-.02-1.55" style="fill:#1a1717" id="eyebrows"/><g id="hairGroup_1_"><path id="hair" d="M104.93 25.19c-2.45-3.71-7.94-8.67-12.86-9-.79-4.74-5.86-8.75-10.77-10.31-13.28-4.21-21.92.51-26.56 3.04-.97.53-7.19 3.98-11.55 1.5-2.73-1.55-2.68-5.76-2.68-5.76S31.95 7.92 34.88 17c-2.94.12-6.79 1.36-8.83 5.49-2.43 4.91-1.57 9.02-.86 10.99-2.53 2.15-5.71 6.72-3.53 12.65 1.64 4.47 8.2 6.52 8.2 6.52-.46 8.04 1.04 12.99 1.83 14.99.14.35.64.32.73-.04.99-3.98 4.38-17.86 4.04-20.28 0 0 11.39-2.26 22.25-10.26 2.21-1.63 4.6-3.01 7.15-4.03 13.64-5.43 16.5 7.2 16.5 7.2s9.79-2.79 12.31 7.94c1.15 4.9 1.8 12.79 2.41 18.31.04.39.57.47.73.11.96-2.18 2.86-6.53 3.32-10.95.16-1.56 4.36-3.62 6.16-10.3 2.38-8.91-.58-17.48-2.36-20.15" style="fill:#232020"/><g id="hairHighlights"><path d="M101.07 55.69c.16-1.56 4.36-3.62 6.16-10.3.19-.71.36-1.44.5-2.16 1.46-8.12-1.17-15.58-2.8-18.04-2.26-3.43-7.13-7.92-11.74-8.84-.4-.05-.79-.1-1.17-.12 0 0 .33 2.15-.54 3.88-1.12 2.23-3.42 2.76-3.42 2.76 12.03 12.01 11.17 22.06 13.01 32.82" style="fill:#444140"/><path d="M57.65 7.41c-1.1.53-2.07 1.06-2.9 1.52-.97.53-7.19 3.98-11.55 1.5-2.68-1.52-2.68-5.6-2.68-5.74-1.24 1.57-4.97 12.83 5.95 13.58 4.71.32 7.61-3.78 9.33-7.26.6-1.28 1.58-3.11 1.85-3.6" style="fill:#444140"/><path d="M79.93 5.47c7.35 1.99 10.93 5.73 12.12 10.72.35 1.47.77 15.14-25.32-.4-9.71-5.78-7.06-9.4-5.92-9.81 4.44-1.6 10.89-2.74 19.12-.51" style="fill:#444140"/><path d="M40.47 4.68c-.01.01-.03.01-.06.03h-.01c-.94.39-8.27 3.79-5.53 12.3l7.81 1.26c-6.91-7.01-2.18-13.6-2.18-13.6s-.01 0-.03.01" style="fill:#444140"/><path d="M39.7 17.78 34.87 17c-.19 0-.83.06-1.18.11-2.72.38-5.92 1.78-7.65 5.38-1.86 3.87-1.81 7.2-1.31 9.42.15.75.45 1.58.45 1.58s2.39-2.26 8.08-2.42z" style="fill:#444140"/><path d="M24.95 33.69c-2.38 2.11-5.58 6.82-3.22 12.65 1.78 4.4 8.12 6.32 8.12 6.32 0 .02 1.27.4 1.92.4l1.48-21.97c-3.04 0-5.96.91-7.85 2.23.02.01-.46.33-.45.37" style="fill:#444140"/></g></g><g id="hand_1_"><path d="M43.4 32.93c-.42-.81-1.06-1.44-2.93-1.7-.68-.18-3.64-.58-5.93-3.68-1.41-1.91-2.81-5.35-2.39-8.33l2.62-15.5H20.7l-.56 12.44s-2.01 11.78-2.01 11.85l.52 15.55 2.14 18.6c.11 1.35.87 2.67 3 2.67 2.73 0 3.54-2.36 3.79-5.67l.26-15.99c0-2.09 1.24-4 3.15-4.85.6-.27 1.27-.37 1.96-.37 1.5 0 3.11.48 4.38.77.29.06.6.1.93.1 1.76 0 3.9-.92 4.78-2.36.86-1.44.79-2.68.36-3.53" style="fill:#70534a"/></g><g id="hand"><path d="m107.86 16.15-.56-12.44H93.23l2.62 15.5c.42 2.99-.98 6.43-2.39 8.33-2.29 3.1-5.25 3.51-5.93 3.68-1.86.26-2.51.89-2.93 1.7-.44.85-.5 2.09.36 3.51.88 1.45 3.02 2.36 4.78 2.36.33 0 .64-.03.93-.1 1.27-.29 2.88-.77 4.38-.77.69 0 1.36.1 1.96.37 1.91.85 3.15 2.76 3.15 4.85l.26 15.99c.25 3.31 1.06 5.67 3.79 5.67 2.13 0 2.89-1.31 3-2.67l2.14-18.6.52-15.55c0-.05-2.01-11.83-2.01-11.83" style="fill:#70534a"/></g></svg>