<svg xmlns="http://www.w3.org/2000/svg" xml:space="preserve" id="Layer_1" x="0" y="0" version="1.1" viewBox="0 0 128 128"><g id="facial_expressions"><g id="robot"><path d="M12.53 53.05c-4.57.01-8.28 3.72-8.28 8.29v38.38a8.297 8.297 0 0 0 8.28 8.28h5.55V53zM115.72 53.05c4.57.01 8.28 3.72 8.28 8.29v38.38c-.01 4.57-3.71 8.28-8.28 8.29h-5.55v-55z" style="fill:#c62828"/><path d="m113.17 54.41-.12-10c-.03-4.3-3.53-7.77-7.83-7.75H67.05V23.25c5.11-1.69 7.89-7.2 6.2-12.31s-7.2-7.89-12.31-6.2-7.89 7.2-6.2 12.31a9.74 9.74 0 0 0 6.2 6.2v13.46H22.78c-4.28.01-7.75 3.47-7.78 7.75v71.78c.03 4.28 3.5 7.74 7.78 7.76h82.44c4.3.01 7.8-3.46 7.83-7.76v-7.37h.12z" style="fill:#90a4ae"/><path d="M64 18c-2.21 0-4-1.79-4-4s1.79-4 4-4 4 1.79 4 4-1.79 4-4 4" style="fill:#c62828"/></g><g id="robot-face"><g id="mouth"><path d="M44.15 94.45h39.71c3.46 0 6.27 2.81 6.27 6.27v.57c0 3.46-2.81 6.27-6.27 6.27H44.15c-3.46 0-6.27-2.81-6.27-6.27v-.57c0-3.46 2.81-6.27 6.27-6.27" style="fill:#e0e0e0"/><path d="M53.67 94.47h2.36v13.09h-2.36z" style="fill:#333"/><path d="M62.88 94.47h2.36v13.09h-2.36z" style="fill:#333"/><path d="M71.97 94.47h2.36v13.09h-2.36z" style="fill:#333"/><path d="M81.62 94.47h2.36v13.09h-2.36z" style="fill:#333"/><path d="M44.02 94.45h2.36v13.09h-2.36z" style="fill:#333"/></g><path id="nose" d="M64 85.33h-5.33c-.55 0-1-.45-1-1 0-.16.04-.31.11-.45l2.74-5.41 2.59-4.78a.996.996 0 0 1 1.76 0l2.61 5 2.71 5.19c.25.49.06 1.09-.43 1.35-.14.07-.29.11-.45.11z" style="fill:#c62828"/><g id="eyes"><circle cx="42.64" cy="66.81" r="11.5" style="fill:#fff"/><circle cx="42.64" cy="66.81" r="11.5" style="fill:none;stroke:#333;stroke-width:2;stroke-miterlimit:10"/><path d="M85 55.28c-6.35 0-11.5 5.15-11.5 11.5s5.15 11.5 11.5 11.5 11.5-5.15 11.5-11.5c-.01-6.35-5.15-11.49-11.5-11.5" style="fill:#fff"/><path d="M85 55.28c-6.35 0-11.5 5.15-11.5 11.5s5.15 11.5 11.5 11.5 11.5-5.15 11.5-11.5c-.01-6.35-5.15-11.49-11.5-11.5z" style="fill:none;stroke:#333;stroke-width:2;stroke-miterlimit:10"/></g></g></g></svg>