<svg xmlns="http://www.w3.org/2000/svg" xml:space="preserve" id="Layer_1" x="0" y="0" version="1.1" viewBox="0 0 128 128"><g id="wings_3_"><path d="M103.62 85.2c-11.04 11.24-47.55-18.37-39.7-24.6 9.49-7.54 54.74 9.29 39.7 24.6" style="fill:#80ffee"/><path d="M102.66 82.21C94.56 70.73 85.45 65.19 72.5 60.1c-.29-.11-.6-.33-.58-.64s.64-.29.51-.01M92.82 84.66c-2.44-.98-20.06-17.74-27.16-25.47l.49.34" style="fill:none;stroke:#87cdde;stroke-width:.9563;stroke-linecap:round;stroke-linejoin:round;stroke-miterlimit:10"/><path d="M95.31 80.89c-1.81-6.25-4.28-8.96-6.43-12.49" style="fill:none;stroke:#87cdde;stroke-width:.9563;stroke-linecap:round;stroke-linejoin:round;stroke-miterlimit:10"/><path d="M118.54 35.52c6.64 19.8-55.96 37.47-58.55 26.1-3.57-15.61 50.34-50.56 58.55-26.1" style="fill:#80ffee"/><path d="M110.46 31.56C92.2 38.51 77.77 49.02 64.15 62.7M115.77 37.47c-15.38 12.46-31.5 20.92-50.79 26.35" style="fill:none;stroke:#87cdde;stroke-width:.9563;stroke-linecap:round;stroke-linejoin:round;stroke-miterlimit:10"/><path d="M97.43 31.02c-5.33 4.8-7.72 8.38-10.12 12.42M113.74 33.26c-4.72 3.95-8.3 7.58-10.26 13.35M91.42 53.37c-5.97 1.22-10.36 1.32-15.62-.61" style="fill:none;stroke:#87cdde;stroke-width:.9563;stroke-linecap:round;stroke-linejoin:round;stroke-miterlimit:10"/><path d="M24.38 85.2c11.04 11.24 47.55-18.37 39.7-24.6-9.49-7.54-54.74 9.29-39.7 24.6" style="fill:#80ffee"/><path d="M25.39 80.43c8.97-10.2 17.84-14.49 30.11-20.32.28-.13.6-.33.58-.64s-.64-.29-.51-.01M39.54 80.89c3.72-2.49 15.7-13.97 22.79-21.7l-.49.34" style="fill:none;stroke:#87cdde;stroke-width:.9563;stroke-linecap:round;stroke-linejoin:round;stroke-miterlimit:10"/><path d="M31.5 81.54c1.08-3.71 10.56-12.46 12.57-15.75" style="fill:none;stroke:#87cdde;stroke-width:.9563;stroke-linecap:round;stroke-linejoin:round;stroke-miterlimit:10"/><path d="M9.47 33.3C2.82 53.1 65.42 70.78 68.02 59.4 71.58 43.8 17.67 8.84 9.47 33.3" style="fill:#80ffee"/><path d="M17.26 29.35c18.27 6.95 32.96 17.46 46.58 31.14M13.11 39.11C28.5 51.57 43.73 56.17 63.01 61.6" style="fill:none;stroke:#87cdde;stroke-width:.9563;stroke-linecap:round;stroke-linejoin:round;stroke-miterlimit:10"/><path d="M29.36 29.5c4.23 2.82 6.09 4.91 7.84 9.61M16.77 33.75c4.72 3.95 7.3 8.23 9.26 14M30.94 42.72c7.32 3.4 16.19 9.65 21.26 9.82" style="fill:none;stroke:#87cdde;stroke-width:.9563;stroke-linecap:round;stroke-linejoin:round;stroke-miterlimit:10"/></g><path id="foot_3_" d="M50.58 88.82c-1.64.3-3.18 1.64-3.43 3.29-.12.82.12 1.64.36 2.43.65 2.11 1.33 4.2 2.04 6.28.39 1.14.96 2.43 2.13 2.71.78.19 1.61-.17 2.18-.74s.92-1.31 1.23-2.05c1.44-3.44 3.12-4.93 3.18-8.65.07-4.74-4.17-3.91-7.69-3.27" style="fill:#8d5738"/><path id="shadow_5_" d="m68.64 85.79-10.37 3.52 1.38 8.02s7.55-.6 11.85-1.51c4.3-.9-2.86-10.03-2.86-10.03" style="fill:#8d5738"/><path id="leg_5_" d="m55.64 90.21 13-4.42c0-.43-4.1-11.29-4.1-11.29l8.23-14.6c1.75 3.3 7.11 18.7 8.84 26.71.65 3.01-.48 6.94-4.98 8.11-5.02 1.3-9.87 1.92-16.25 2.58-6.37.66-8.57-5.38-4.74-7.09" style="fill:#8d5738"/><path id="leg_4_" d="M65.46 74.38c-.3-4.5-1.21-9.32-2.13-13.95l-.42-.26-11.06 8.87-1.49 24.46-3.22 15.87c-1.56.2-3.17.85-3.78 2.27-.32.76-.3 1.62-.26 2.45.1 2.2.23 4.4.4 6.6.09 1.2.32 2.59 1.38 3.16.71.38 1.6.24 2.29-.17.69-.4 1.22-1.04 1.7-1.67 1.47-1.94 3.65-6.32 3.65-6.32s6.21-11.51 8.47-19.36c3.12-10.88 4.32-21.98 4.47-21.95" style="fill:#8d5738"/><path id="arm_5_" d="M30.01 75.09c-2.86-.68-5.05-1.69-6.54-2.19-1.5-.5-1.55-3.35 1.59-2.43 1.79.52 1.08-.68-.39-1.45-1.47-.78-5.2 1.08-6.08.25-.61-.57-.52-1.39-.18-1.7 1.15-1.02 3.9-1.99 6.32-1.88 2.16.1 5.55 3.29 7.63 2.74.01 0 3.97-7.04 7.59-13.47l5.86-10.41 10.88 4.62s-18.5 21.87-19.47 22.77c-2.17 2.01-4.17 3.87-7.21 3.15" style="fill:#8d5738"/><path id="arm_4_" d="M104.34 49.19c-.08-.09-.17-.17-.26-.26a2.69 2.69 0 0 0-2.8-.48c-1.25.49-5.64 3.46-6.71 4.1l-5.04 3.03-5.86-9.76-9.25 4.78 10.65 12.45c1.14 1.71 3.57 2.44 5.39 1.48 0 0 .08-.06.21-.15.27-.12.54-.28.78-.46 3.08-2.44 9.6-7.91 10.56-8.83 1.49-1.47 4.27-3.79 2.33-5.9" style="fill:#8d5738"/><path id="hand_1_" d="M106.38 53.59c-1.68 1.36-5.35 1.1-6.94-1.5-2.88-4.72 2.68-7.65 4.84-7.5 2.25.16 5.72 6.17 2.1 9" style="fill:#8d5738"/><path id="shadow_4_" d="m103.61 47.87 1.04 1.27-1.12 5.44-1.14.12-4.65 4.05 1-8.51s-.28-.06 1.68-.32c1.95-.26 3.19-2.05 3.19-2.05" style="fill:#a56c43"/><g id="wand_3_"><path d="m110.46 21.27-.09-.03-9.15 40.97a.482.482 0 1 0 .94.22v-.01z" style="fill:#6d4c41;stroke:#6d4c41;stroke-miterlimit:10"/><path d="m111.39 14.69-2.5 3.44-4.24-.11 2.5 3.44-1.41 4.01 4.04-1.32 3.37 2.58v-4.25l3.5-2.41-4.05-1.31z" style="fill:#ffd600"/><path d="M104.55 50.74c.22-.05.38-.12.56-.26l-.79 3.89-1.85.06.93-4.17c.31.27.67.59 1.15.48" style="fill:#6d4c41"/></g><g id="suite_2_"><path d="m76.33 53.51.14 15.76L68 75.88c-.8.44-1.7.67-2.61.67-.88.01-1.75-.19-2.54-.58l-11.01-6.48-.13-15.77-7.64-6.97s1.05-4.06 8.4-6.3c2.7-.82 6.25-1.4 10.91-1.44 5.15-.04 9.06.59 12 1.51 6.97 2.16 8.55 5.88 8.55 5.88z" style="fill:#ffab00"/></g><path id="hair_x5F_orange_x5F_back" d="M77.46 31.58c-.4-.81-.08-1.62 1.18-2.98 1.57-1.68 3.58-6.01 1.53-10.42v-.02h-.41c-.1-.25-.22-.51-.35-.76-.44-.07-6.88.03-8.5.03H57.02c-1.63 0-8.06-.1-8.5-.03-.13.25-.25.51-.35.76h-.69c.01.02.02.05.03.07-1.68 4.3.13 8.54 1.79 10.37 1.05 1.15 1.61 2.06 1.18 3-.22.47-.55.75-1.03.85l-.83.17.45.74c.16.27.39.5.64.66.72.45 1.59.56 2.2.58.07 0 .17.08.32.26 1.96 2.26 3.5 2.99 8.26 3.17v-.06c1 .04 2.14.06 3.47.06 1.31 0 2.43-.02 3.41-.06v.06c4.81-.18 6.36-.9 8.32-3.17.15-.17.25-.25.32-.26.61-.01 1.48-.13 2.2-.58.26-.16.48-.39.64-.66l.45-.74-.83-.17c-.43-.1-.77-.38-1.01-.87" style="fill:#ff8f00"/><path id="chest_2_" d="M68.17 39.18V34.6h-8.68v4.58c-2.81.24-5.12.69-7.01 1.26.88 3.35 5.03 6.97 11.56 6.92 6.35-.05 10.39-3.56 11.35-6.85-1.96-.61-4.34-1.09-7.22-1.33" style="fill:#8d5738"/><g id="face_2_"><g id="ears_3_"><path id="ears" d="m74.12 21.47-2.71-.06-14.66-.31-2.71-.06c-2.16-.05-3.97 1.8-4.02 4.11s1.68 4.23 3.85 4.27l2.71.06 14.66.31 2.71.06c2.16.05 3.97-1.8 4.02-4.11.05-2.3-1.68-4.22-3.85-4.27" style="fill:#7a4c32"/></g><path id="head_2_" d="M64.39 6.8C58 6.67 51.93 13.38 51.73 23.22c-.21 9.78 5.79 14.75 12 14.88s12.41-4.58 12.62-14.36c.21-9.84-5.57-16.8-11.96-16.94" style="fill:#a56c43"/><path d="M67.76 21.27c.33-.42 1.09-1.01 2.54-.97 1.44.04 2.17.68 2.47 1.12.14.19.09.41-.01.54-.1.12-.37.22-.66.12-.3-.11-.87-.43-1.84-.46-.97-.02-1.56.26-1.87.36-.3.09-.57-.03-.65-.15-.1-.16-.13-.38.02-.56M55.56 20.94c.33-.42 1.09-1.01 2.54-.97 1.44.04 2.17.68 2.47 1.12.14.19.09.41-.01.54-.1.12-.37.22-.66.12-.3-.11-.87-.43-1.84-.46-.97-.02-1.56.26-1.87.36-.3.09-.57-.03-.65-.15a.5.5 0 0 1 .02-.56" style="fill:#42312c" id="eyebrows_2_"/><g id="eyes_3_"><ellipse cx="57.98" cy="24.21" rx="1.87" ry="1.81" style="fill:#42312c" transform="rotate(-88.802 57.98 24.21)"/><ellipse cx="70.05" cy="24.46" rx="1.87" ry="1.81" style="fill:#42312c" transform="rotate(-88.802 70.054 24.463)"/></g><path id="nose_3_" d="M65.37 27.77a.3.3 0 0 0-.12-.03l-2.6-.05q-.06 0-.12.03c-.24.09-.37.33-.27.59.11.26.61 1 1.65 1.02s1.58-.7 1.69-.95c.12-.27 0-.51-.23-.61" style="fill:#875334"/><path id="mouth_3_" d="M67.14 30.77c-1.18.67-5.02.59-6.18-.13-.66-.41-1.36.18-1.1.8.26.61 2.33 2.04 4.13 2.08 1.81.04 3.9-1.31 4.19-1.91.31-.6-.36-1.22-1.04-.84" style="fill:#473530"/><path id="hair_x5F_orange" d="M79.2 12.11c-2.31-3.95-5.25-3.44-5.36-3.41.09-1.99-2.5-4.18-4.19-4.81-.99-.37-1.95-.52-2.85-.52-3.3 0-5.87 2-6.94 2.42-1 .4-1.81.55-2.45.55-2.28 0-2.56-1.94-2.56-1.94-1.54.92-1.81 2.86-1.15 4.26 0 0-2.31-.68-3.91 1.16s-.75 4.85-.75 4.85-2.06.5-1.78 3.82c.13 2.12 3.62 3.89 3.62 3.89s.29 2.01 1.17 4.75c.54-2.79 1.61-6.74 1.61-6.74.03-.01 2.84-.65 5.99-2.65.66-.42 1.26-.86 1.84-1.3 1.38-1.03 2.69-2 4.52-2.46.53-.13 1.03-.2 1.5-.2 2.06 0 3.18 1.3 3.61 2.25h.08c1.09 0 3.74.5 4.64 5.13.3 1.56.45 4.1.24 6.37 3.19-2.62 3.83-7.75 3.83-7.75.83-3.66-.2-6.81-.71-7.67" style="fill:#ff8f00"/></g><g id="hand_x5F_right_2_"><path id="finger_14_" d="M104.05 52.19c-.16.66.25 1.33.9 1.48l1.69.41a1.224 1.224 0 1 0 .58-2.38l-1.69-.41a1.21 1.21 0 0 0-1.48.9" style="fill:#8d5738"/><path id="finger_13_" d="M104.14 50.31c-.07.68.43 1.28 1.11 1.35l2.26.23c.68.07 1.28-.43 1.35-1.11s-.43-1.28-1.11-1.35l-2.26-.23c-.68-.06-1.28.43-1.35 1.11" style="fill:#8d5738"/><path id="finger_12_" d="M103.98 48.17s.55 1.3 1.21 1.3l2.52-.01c.67-.01 1.21-.55 1.2-1.22v-.1c0-.67-.55-1.21-1.22-1.2l-2.52.01c-.66.01-1.2.55-1.19 1.22" style="fill:#8d5738"/><path id="finger_11_" d="M103.46 46.8c.15.65.8 1.06 1.45.91l2.68-.62a1.23 1.23 0 0 0 .91-1.46c-.15-.65-.8-1.06-1.45-.91l-2.68.62c-.66.15-1.05.8-.91 1.46" style="fill:#8d5738"/><path id="tone_11_" d="M107.65 51.9c-.46-.34-.96-.47-1.46-.56-.51-.07-1.02-.09-1.57.08.46.34.96.48 1.46.56.51.07 1.02.09 1.57-.08" style="fill:#875334"/><path id="tone_10_" d="M107.84 49.45c-.49-.25-.98-.31-1.47-.31-.49.01-.98.08-1.46.35.49.26.98.31 1.47.31.48-.02.97-.09 1.46-.35" style="fill:#875334"/><path id="tone_9_" d="M104.77 47.81c.59.11 1.13.02 1.66-.11.52-.15 1.03-.35 1.49-.74-.59-.11-1.13-.03-1.66.11-.52.15-1.03.35-1.49.74" style="fill:#875334"/><path id="finger_10_" d="M107.03 48.06c.49.78-.49 1.55-1.08 1.66-.58.11-1-.38-1.26-.91-.49-.97-.87-1.39-1.22-1.56-.32-.16-.03 2.03-2.18 2.48-1.24.26-2.28-.62-2.29-1.51-.01-1.19 2.06-3.13 4.71-3.6 2.49.2 3.08 3.06 3.32 3.44" style="fill:#8d5738"/><path id="tone_8_" d="M100.41 49.91c1.43.24 2.87-.93 3.29-2.32l.04-.13.02-.07c.01-.03.02-.06 0 0-.03.07-.11.12-.18.12-.07.01-.18-.07-.19-.12l.23.47c.16.31.33.61.51.91.31.56.85 1.36 1.76 1.41.85.04 1.72-.69 1.57-1.63-.17-.71-.43-1.37-.83-1.96-.79-1.17-1.29-2.18-2.9-1.98 1.37.19 1.96 1.03 2.54 2.2.3.58.53 1.22.65 1.84.08.47-.49.96-.98.89-.25-.02-.49-.14-.7-.34-.21-.19-.36-.47-.54-.76-.17-.29-.33-.58-.49-.88l-.23-.44c-.04-.12-.23-.26-.39-.25-.16 0-.32.1-.39.24-.04.09-.03.11-.04.12l-.01.06-.03.11c-.17.61-.51 1.16-.96 1.6-.23.21-.51.39-.8.52-.32.14-.63.21-.95.39" style="fill:#875334"/></g></svg>