<svg xmlns="http://www.w3.org/2000/svg" xml:space="preserve" id="Layer_1" x="0" y="0" version="1.1" viewBox="0 0 128 128"><path d="M41 13.49c2.54-4.1 8.28-7.29 13.04-6.5 5.33.88 8.19 4.72 8.95 9.58.27 1.76.22 3.52-.08 4.77-.04.15-.33 1.23-.35 1.58-.2 1.31 2.34 2.62 2.64 4.06.22 1.09-2.05 1.78-2.23 1.98-.89.98.52 5.63-5.72 6.1-2.4.18-1.93.03-2.63.3-1.1.42-1 3.36-1 3.36s-.61 4.82-4.74 3.55c-4.71-1.46-4.89-4.78-4.89-4.78s1.75-4.65-1.06-9.48c-2.24-3.88-3.56-11.89-1.93-14.52" style="fill:#e0bb95"/><path d="M62.34 31.55c-.86.05-1.72-.15-2.45-.69-.8-.59-.25-1.25.66-.86.55.24 1.33.35 2.04.22z" style="fill:#6d4c41"/><path d="M58.65 25.38c-.63-.02-1.11-.82-1.08-1.78.03-.97.57-1.73 1.19-1.71.63.02 1.11.82 1.08 1.79-.03.95-.57 1.72-1.19 1.7" style="fill:#5d4037"/><path d="M59.59 21.04c1.13.26 1.35-.48.95-1.05-.3-.42-.99-.75-2.28-.42-1.21.31-1.68 1.04-1.99 1.49s-.24.87.04.89c.39.02 1.88-1.24 3.28-.91" style="fill:#ab872f"/><path d="M40.47 10.67c2.32-2.85 6.57-4.7 10.61-4.88 2.72-.12 5.34.4 7.57 1.48.04.02 3.95 2.36 4.89 4.43 1.01 2.21.07 3.49-.16 3.72-.36.36-1.17.24-1.17.24-1.59-.14-6.33-.75-8.91-.25-.41.08-.86.2-1.05.57-.08.16-.16 1.19-.18 1.37-.2 2.33-.03 3.8-.76 5.25-.12.24-.59.54-.59.54l-.93-1.48c-.59-.85-1.12-1.58-1.9-1.44-2.3.41-2.04 4.5.63 5.5 0 0-.36 2.6-2.76 3.55-2.12.79-3.03.33-3.26-.64-.49-2.1-1.64-3.32-2.24-4.29-.71-1.15-1.45-2.33-1.95-5.4-.49-3.08.25-5.93 2.16-8.27" style="fill:#ab872f"/><path d="M40.47 10.67c2.32-2.85 6.57-4.7 10.61-4.88 2.72-.12 5.34.4 7.57 1.48.04.02 4.1 2.37 4.89 4.43.99 2.57.07 3.49-.16 3.72-.36.36-1.17.24-1.17.24-1.59-.14-6.33-.75-8.91-.25-.41.08-.86.2-1.05.57-.08.16-.16 1.19-.18 1.37-.2 2.33-.03 3.8-.76 5.25-.12.24-.59.54-.59.54l-.93-1.48c-.59-.85-1.12-1.58-1.9-1.44-2.3.41-2.04 4.5.63 5.5 0 0-.36 2.6-2.76 3.55-2.12.79-3.03.33-3.26-.64-.49-2.1-1.64-3.32-2.24-4.29-.71-1.15-1.45-2.33-1.95-5.4-.49-3.08.25-5.93 2.16-8.27" style="fill:#bfa055"/><path d="m104.32 121.23 2.13-2.04-35.79-37.54-9.88-10.26-2.13 2.03 15.32 16z" style="fill:#e0e0e0"/><path d="m93.72 105.86 12.72 13.35-2.14 2.04-12.72-13.35z" style="fill:#ff3d00"/><path d="M106.19 123.91a2.86 2.86 0 1 1-.001-5.719 2.86 2.86 0 0 1 .001 5.719" style="fill:#e0e0e0"/><path d="m70.66 81.65-2.15 2.05-11.79-12.28c-.39-.4-.37-1.04.03-1.43l.68-.65c.4-.38 1.04-.37 1.42.03z" style="fill:#636262"/><path d="m23.64 108.76 14-15.97c.87-1 1.39-2.25 1.47-3.57l1.37-22.35 15.42 1.7-4.86 23.06c-.79 3.73-2.88 7.06-5.91 9.37l-16.41 12.53z" style="fill:#646464"/><path d="m40.67 63.18 17.49 1.6 4.5 20.29c.83 3.74 1.12 7.59.85 11.42l-1.63 23.12h-6.64l-2.94-24.9s-4.98-13.26-5.14-13.33c-3.26-1.54-7.38-3.89-7.38-9.64 0-.82.89-8.56.89-8.56" style="fill:#7c7c7c"/><path d="M54.15 123.98c-.63 0-1.14-.51-1.14-1.14v-2.79c0-1.89 1.92-4.05 1.92-4.05h6.94l6.25 2.06a4 4 0 0 1 2.53 3.68V123c0 .55-.44 1-1 1z" style="fill:#4568ad"/><path d="M19.28 111.9c-.44-.45-.44-1.17 0-1.61l1.97-1.97c1.34-1.34 4.22-1.51 4.22-1.51l4.91 4.91 2.96 5.88a3.99 3.99 0 0 1-.81 4.39l-.89.89a.996.996 0 0 1-1.41 0z" style="fill:#325599"/><path d="M41.85 73.76h13.9c2.26 0 4.09-2.17 4.09-4.84L57.7 46.53c-.43-4.09-1.87-7.95-4.66-9.61-4.86-3.39-8.56-1.33-9.96.79-1 1.52-1.42 3.27-1.65 5.85L38.98 68.9c0 2.9.61 4.86 2.87 4.86" style="fill:#00bfa5"/><path d="m41.89 57.33 1.8-9.96 8 .86-2.46 9.94 9.36 9.69c2.65 2.67-2.19 5.24-3.9 4.14l-8.52-6.89c-1.51-1.3-4.73-3.51-4.28-7.78" style="fill:#e0bb95"/><path d="M57.43 68.37a.515.515 0 0 1-.18-.55c.08-.26.37-.41.63-.32.02.01 2.85.93 4.49 1.58.47.19 1.9.75 1.94 2.5.03 1.33.04 3.58.04 3.58l-2.31-2.4c.06.89.13 2.8.15 3.59.04 1.33-.98 1.86-2.35 1.12-2.06-1.11-3.26-1.39-4.19-2.88-.29-.48-.78-3.59-.96-4.24z" style="fill:#e0bb95"/><path d="m52.36 53.35-10.84-1.97 1.75-9.67a5.48 5.48 0 0 1 6.37-4.42l.05.01c2.98.54 4.96 3.39 4.42 6.37z" style="fill:#04a287"/><path d="M50.72 73.04c1.11-3.09 4.96-6.54 8.13-6.25 2.2 0 2.12 1.77 2.12 1.77l-2.25-.78c-2.33-.29-6.09 2.94-7.05 5.6-.37 1.04-.55 2.45.75 3.26.18.11.36.13.56.06.6-.22 1.76-1.76 2.41-2.92 0 0 .11.6.26.83.09.13.35.47.35.47-.63 1.03-1.86 2.26-2.68 2.55-.19.07-.39.1-.57.1-.3 0-.59-.08-.85-.25-1.45-.89-1.87-2.51-1.18-4.44" style="fill:#504f4f"/></svg>