<svg xmlns="http://www.w3.org/2000/svg" xml:space="preserve" id="Layer_1" x="0" y="0" version="1.1" viewBox="0 0 128 128"><g id="hairGroup"><path id="hair" d="M96.64 70.43c5.51-5.92-70.79-5.92-65.28 0-1.22 4.49-2.01 8.77-2.61 12.24-2.38 13.83-.65 25.66 7.85 34.86 3.69 4 11.43 4.01 11.43 4.01l15.97-.01 15.97.02s7.74-.01 11.43-4.01c8.49-9.2 10.23-21.03 7.85-34.86-.6-3.48-1.39-7.75-2.61-12.25" style="fill:#543930"/><path id="hairHighlights" d="M95.02 58.1C95 57.84 79.76 53.79 64 49.73c-15.76 4.06-31 8.11-31.02 8.37-1.1 16-7.53 26.88-4.4 43.57 1.6 8.52 4.55 11.84 7.31 17.03 1.35 2.57 3.3 4.19 5.19 5.24h45.84c1.89-1.05 3.84-2.67 5.19-5.24 2.76-5.19 5.71-8.51 7.31-17.03 3.13-16.69-3.3-27.57-4.4-43.57" style="fill:#6d4c41"/></g><g id="shirt_x5F_police_2_"><path d="M116.02 120.93v3.01h-104v-3.01c0-6.31 3.27-11.27 8.63-15.05.57-.4 1.17-.79 1.79-1.17.04-.02.08-.04.11-.06 1.79-1.09 3.76-2.06 5.89-2.92.04-.02.08-.03.12-.05.01 0 .01-.01.02-.01 6.93-2.81 15.45-4.51 24.36-5.26 3.65-.31 7.37-.46 11.08-.47h.14c3.58 0 7.17.16 10.69.48 9.01.8 17.61 2.65 24.59 5.56 2.82 1.18 5.38 2.53 7.6 4.06 5.57 3.84 8.98 8.79 8.98 14.89" style="fill:#3b78e7"/></g><path id="undershirt_2_" d="m64.01 121.88 9.32-17.07h-19.9z" style="fill:#212121"/><path id="neck" d="M54.92 86.08v13.98c0 4.51 3.7 8.17 8.26 8.17h1.65c4.56 0 8.26-3.66 8.26-8.17V86.08H54.92" style="fill:#99674f"/><path id="ears" d="M91.33 50.43H36.67c-5.89 0-10.71 5.14-10.71 11.41s4.82 11.41 10.71 11.41h54.65c5.89 0 10.71-5.14 10.71-11.41s-4.81-11.41-10.7-11.41" style="fill:#99674f"/><path id="head" d="M64 16.04c-17.2 0-33.13 12.79-33.13 39.91 0 21.78 13.49 34.67 25.23 38.83 2.8.99 5.5 1.49 7.9 1.49 2.38 0 5.07-.49 7.85-1.47 11.76-4.14 25.28-17.03 25.28-38.84 0-27.13-15.93-39.92-33.13-39.92" style="fill:#ba8d68"/><path id="mouth" d="M72.42 76.14c-3.18 1.89-13.63 1.89-16.81 0-1.83-1.09-3.7.58-2.94 2.24.75 1.63 6.44 5.42 11.37 5.42s10.55-3.79 11.3-5.42c.75-1.66-1.09-3.33-2.92-2.24" style="fill:#5d4037"/><path id="nose" d="M67.86 68.06c-.11-.04-.21-.07-.32-.08h-7.08c-.11.01-.22.04-.32.08-.64.26-.99.92-.69 1.63s1.71 2.69 4.55 2.69 4.25-1.99 4.55-2.69c.3-.71-.05-1.37-.69-1.63" style="fill:#99674f"/><g id="eyes"><ellipse cx="47.56" cy="58.81" rx="4.93" ry="5.1" style="fill:#49362e"/><ellipse cx="80.44" cy="58.81" rx="4.93" ry="5.1" style="fill:#49362e"/></g><path d="M54.8 49.82c-.93-1.23-3.07-3.01-7.23-3.01s-6.31 1.79-7.23 3.01c-.41.54-.31 1.17-.02 1.55.26.35 1.04.68 1.9.39s2.54-1.16 5.35-1.18c2.81.02 4.49.89 5.35 1.18s1.64-.03 1.9-.39c.28-.38.39-1.01-.02-1.55M87.67 49.82c-.93-1.23-3.07-3.01-7.23-3.01s-6.31 1.79-7.23 3.01c-.41.54-.31 1.17-.02 1.55.26.35 1.04.68 1.9.39s2.54-1.16 5.35-1.18c2.81.02 4.49.89 5.35 1.18s1.64-.03 1.9-.39c.28-.38.39-1.01-.02-1.55" style="fill:#613e31" id="eyebrows"/><g id="hair_2_"><path d="M103.98 41.47c0-5.25-1.08-34.34-39.91-34.34S24.31 32.94 24.31 42.87c0 16.47 8.37 25.17 8.37 25.17s-.1-4.16.32-9.1.31-11.88 6.4-13.25C61.76 40.65 74.41 28.8 74.41 28.8c3.29 7.18 13.58 14.19 17.27 16.86 3.03 2.19 4.53 21.79 4.53 21.79s7.77-9.05 7.77-25.98" style="fill:#543930"/><path id="hairHighlights_2_" d="M103.98 41.47c0-5.25-1.08-34.34-39.91-34.34S24.31 32.94 24.31 42.87c0 16.47 8.37 25.17 8.37 25.17s-.1-4.16.32-9.1.31-11.88 6.4-13.25C61.76 40.65 74.41 28.8 74.41 28.8c3.29 7.18 13.58 14.19 17.27 16.86 3.03 2.19 4.53 21.79 4.53 21.79s7.77-9.05 7.77-25.98" style="fill:#6d4c41"/></g><g id="epaulets_2_"><path d="M107.04 106.04c-.51.82-4.73 6.71-16.85 2.86-6.96-2.2-13.84-2.81-13.84-2.81-2.43-.68-1.66-8.3-1.5-9.67 12.66 1.13 24.49 4.31 32.19 9.62M51.45 106.09s-6.88.61-13.84 2.81c-12.26 3.9-16.52-2.31-16.96-3.02-.03-.05-.04-.07-.04-.07s.64-.43 1.83-1.1c.04-.02.08-.04.11-.06 1.35-.76 3.36-1.82 5.89-2.92.05-.02.09-.04.14-.06 6.93-2.81 15.45-4.51 24.36-5.26.16 1.35.93 9-1.49 9.68" style="fill:#283593" id="epaulets_x5F_fill_2_"/></g><path id="name_x5F_tag_x5F_fill_2_" d="M45.77 119.65H34.86c-1.2 0-2.17-.97-2.17-2.17s.97-2.17 2.17-2.17h10.92c1.2 0 2.17.97 2.17 2.17-.01 1.2-.98 2.17-2.18 2.17" style="fill:#e0e0e0"/><g id="patch_2_"><g id="patch_x5F_fill_2_"><path d="m113.9 113.11-5 .08-2.34 4.29 4.83 6.46h4.99c.27-7.37-2.48-10.83-2.48-10.83" style="fill:#666"/><path d="m19.1 113.19-5-.08s-2.74 3.46-2.48 10.83h4.99l4.83-6.46z" style="fill:#666"/></g><g id="patch_x5F_stroke_2_"><path d="m109.35 113.93 4.56-.08c.41-.01.74-.35.74-.76s-.32-.71-.76-.74l-5.44.09-3.02 5.55 4.23 5.95h1.84l-4.31-6.05z" style="fill:#bdbdbd"/><path d="m111.86 116.63 3.38-.14c.28-.01.49-.24.48-.52s-.25-.47-.52-.48l-3.87.16-1.57 2.28 3.95 6.01h1.2l-3.94-5.99zM19.55 112.45l-5.44-.09h-.01c-.41 0-.74.33-.75.74s.32.76.74.76l4.57.08 2.15 3.96-4.31 6.05h1.84l4.23-5.95z" style="fill:#bdbdbd"/><path d="m16.67 115.66-3.87-.16c-.28.01-.51.2-.52.48s.2.51.48.52l3.38.14.91 1.31-3.94 5.99h1.2l3.95-6.01z" style="fill:#bdbdbd"/></g></g><g id="lapels_2_"><path d="m47.12 97.12-8 16.23 10.87-3.27 14.02 11.8-9.11-25.67zM73.14 96.21l-9.1 25.67 14.79-11.64 10.1 3.11-8-16.23z" style="fill:#3674ce" id="lapels_x5F_fill_2_"/></g><g id="police_x5F_hat_1_"><g id="visor"><path d="M64.01 24.18c-32.94 0-38.23 11.14-38.23 11.14s10.15 9.72 38.23 9.9c28.07-.19 38.75-10.52 38.75-10.52s-5.81-10.52-38.75-10.52" style="fill:#666"/></g><path d="M21.03 34.25c1.68 6.07 3.28 8.64 3.28 8.64 1.7-1.96 11.82-11.1 39.84-11.1h.16c28.02 0 37.67 9.18 39.38 11.14 0 0 2.03-2.74 3.71-8.81 3.89-14.05-15.38-29.79-43.12-29.79-27.69.01-47.12 15.9-43.25 29.92" style="fill:#3b78e7"/><path d="M99.55 35.35a4.58 4.58 0 0 0-1.7-2.75c-3.71-2.85-14.79-9.9-33.58-9.9-19.27 0-30.06 7.05-33.63 9.9A4.53 4.53 0 0 0 29 35.3l-.01.06a4.44 4.44 0 0 0 .77 3.47c5.73-3.22 16.34-7.01 34.39-7.01h.16c18.34 0 28.81 3.93 34.33 7.2.78-.99 1.17-2.29.91-3.67" style="fill:#3b78e7"/><path d="m72.02 13.84-.31-.4a.78.78 0 0 0-.61-.29c-.26 0-.5.12-.64.33-.55.84-1.36 1.4-2.79 1.4-1.39 0-2.4-1.28-3.01-2.07-.19-.25-.49-.41-.82-.41s-.63.16-.82.41c-.6.79-1.56 2.07-2.95 2.07-1.43 0-2.24-.57-2.79-1.4a.76.76 0 0 0-.64-.33c-.24 0-.47.11-.61.29l-.31.4c-.37.48-.43 1.12-.15 1.65.42.8.64 1.68.64 2.57v3.48c0 2.54 4.14 7.72 7.65 7.72s7.65-5.18 7.65-7.72v-3.48c0-.89.22-1.77.64-2.57.3-.54.24-1.17-.13-1.65" style="fill:#fc0"/></g></svg>