<svg xmlns="http://www.w3.org/2000/svg" xml:space="preserve" id="Layer_1" x="0" y="0" version="1.1" viewBox="0 0 128 128"><g id="hair_x5F_white_4_"><path d="m65.23 117-34-.83-5.81-65 39.81.84z" style="fill:#e7e7e7"/><path d="m62.77 117 34-.83 5.81-65-39.81.84z" style="fill:#e7e7e7"/></g><g id="hairHighlight_x5F_white_5_"><path d="m62.77 115.11 34.17-.83 5.81-65-39.98.83z" style="fill:#fff"/></g><g id="hairHighlight_x5F_white_4_"><path d="m65.23 115.11-34.17-.83-5.81-65 39.98.83z" style="fill:#fff"/></g><g id="robe_2_"><g id="XMLID_1_"><path d="M64.13 96H64c-25.49.03-52 7.28-52 25.06v2.9h104v-2.9C116 104.31 89.74 96 64.13 96" style="fill:#00bfa5"/></g><path d="M44.98 123.96h36.88l7.82-13 14.78-6.47S91.03 95.45 64 96c-30.16.6-41.31 8.73-41.31 8.73l16.64 7.28z" style="fill:#00897b"/><path d="M89.12 87.25c-5.48-10.35-21-1.62-21-1.62L64 83.71l-4.12 1.92s-15.52-8.72-21 1.62c-2.85 5.37-1.38 12.38 6.88 18.38S64 119.84 64 119.84s10-8.2 18.25-14.2 9.72-13.02 6.87-18.39" style="fill:#87ceac"/><path d="M43.47 123.96h3.44c-.36-1.21-4.86-10.38-5.78-12.37a.94.94 0 0 0-.47-.47l-.03-.01c-1.37-.64-2.77-1.21-4.17-1.8-1.39-.59-2.81-1.14-4.22-1.69-2.83-1.07-9.14-2.88-9.14-2.88 2.03 1.71 10.38 5.64 16.16 7.94z" style="fill:#e0f2f1"/><path d="M37.54 113.84c-7.33-4.03-10.6 1.65-10.6 1.65s3.71 1.52 5.86 1.09c3.35-.67 4.74-2.74 4.74-2.74M45.9 118.26c4.96-5.8 1.62-9.82 1.62-9.82s-2.4 1.14-2.89 3.83c-.63 3.55 1.27 5.99 1.27 5.99M38.68 108.74c.28-6.69-4.06-7.61-4.06-7.61s-.94 2.39.08 4.54c1.17 2.46 3.98 3.07 3.98 3.07M84.53 123.96l4.2-11.29c5.78-2.29 14.14-6.22 16.16-7.94 0 0-6.3 1.81-9.14 2.88-1.41.55-2.82 1.1-4.22 1.69-1.39.59-2.79 1.17-4.17 1.8l-.03.01c-.21.1-.38.27-.47.47-.92 1.99-5.42 11.16-5.78 12.37z" style="fill:#e0f2f1"/><path d="M90.46 113.84c7.32-4.03 10.6 1.65 10.6 1.65s-3.71 1.52-5.86 1.09c-3.34-.67-4.74-2.74-4.74-2.74M82.1 118.26c-4.96-5.8-1.62-9.82-1.62-9.82s2.27 1.17 2.89 3.83c.82 3.55-1.27 5.99-1.27 5.99M89.32 108.74c-.28-6.69 4.06-7.61 4.06-7.61s.94 2.39-.08 4.54c-1.17 2.46-3.98 3.07-3.98 3.07" style="fill:#e0f2f1"/></g><path id="ears_2_" d="M87.5 50.44h-47l-20-11.93s.12 14.62 4 22.17c6 11.67 16 12.59 16 12.59h47.25l.01-.03c1.61-.24 10.31-2 15.74-12.56 3.88-7.55 4-22.17 4-22.17z" style="fill:#99674f"/><g id="neck_2_"><path id="neck" d="M64 90.08h-9.08v5.69c0 2.73 1.16 5.33 3.19 7.15l5.9 5.31 5.9-5.31a9.6 9.6 0 0 0 3.18-7.15v-5.69z" style="fill:#99674f"/></g><g id="head_2_"><path id="head" d="M64 11.07c-17.4 0-33.52 18.61-33.52 45.4 0 26.64 16.61 39.81 33.52 39.81S97.52 83.1 97.52 56.47c0-26.79-16.12-45.4-33.52-45.4" style="fill:#ba8d68"/></g><path id="hair_x5F_white" d="M64.03 4.04C35.14 4.06 25.8 25.7 24.94 41.07l2.68 1.88c.57 9.71 2.79 17.2 3.14 18.33l.14.71c.13.33.63.3.71-.05.98-4.26 4.45-19.06 6.2-23.57 1.04-2.67 3.9-4.22 6.79-3.71 4.24.74 18.06 1.65 19.42 1.74 1.36-.09 15.18-1 19.42-1.74 2.9-.51 5.76 1.04 6.79 3.71 1.75 4.51 5.22 19.31 6.2 23.57.08.35.58.38.71.05l.14-.71c.35-1.13 2.57-8.62 3.14-18.33l2.68-1.88C102.26 25.7 92.92 4.06 64.03 4.04" style="fill:#fff"/><path id="hairHighlight_x5F_white_6_" d="M64.03 4.04C35.14 4.06 25.8 25.7 24.94 41.07l2.68 1.88c.57 9.71 2.79 17.2 3.14 18.33l.14.71c.13.33.63.3.71-.05.98-4.26 4.45-19.06 6.2-23.57 1.04-2.67 3.9-4.22 6.79-3.71 4.24.74 18.06 1.65 19.42 1.74 1.36-.09 15.18-1 19.42-1.74 2.9-.51 5.76 1.04 6.79 3.71 1.75 4.51 5.22 19.31 6.2 23.57.08.35.58.38.71.05l.14-.71c.35-1.13 2.57-8.62 3.14-18.33l2.68-1.88C102.26 25.7 92.92 4.06 64.03 4.04" style="fill:#fff"/><g id="crown"><path d="M64 48.4" style="fill:#212121"/><path d="M103.67 38.38c-1.13.21-2.98.59-3.39.61-3.97.17-7.59-1.63-11.39-3.52 3.59-1.12 12.87-2.76 13.38-2.7.4.05.12-2.99-.15-3.02-.6-.06-3.65-.11-4.29-.08-4.27.21-9.22 1.61-14.04 3.47-3.1-1.15-6.22-1.66-9.13-1.43-5.32.41-10.65 4.15-10.65 4.15v-.01s-.01 0-.01.01c0 0-.01 0-.01-.01v.01h-.01s-5.33-3.73-10.65-4.15c-2.91-.23-6.03.29-9.13 1.43-4.82-1.86-9.77-3.26-14.04-3.48-.64-.03-3.69.02-4.29.08-.28.03-.56 3.07-.15 3.02.51-.06 9.79 1.58 13.38 2.7-3.8 1.89-7.42 3.69-11.39 3.52-.41-.02-2.26-.4-3.39-.61-.32-.06-.23 1.79.05 1.85 0 0 .91 1.38 3.36 1.52 4.46.25 8.94-1.7 12.79-3.62.86-.43 1.72-.85 2.59-1.26 4.01 1.56 7.94 3.51 11.35 5.4l9.44 6.05.09.07.01-.01v.04-.01l.09-.07 9.44-6.05c3.41-1.89 7.34-3.84 11.35-5.4.87.41 1.74.83 2.59 1.26 3.85 1.91 8.33 3.86 12.79 3.62 2.45-.14 3.36-1.52 3.36-1.52.28-.07.37-1.92.05-1.86m-39.5 4.79c-.09.05-.14.08-.17.1 0 0-.01 0-.01.01 0 0-.01 0-.01-.01-.03-.01-.08-.05-.17-.1-2.68-1.77-8.54-5.21-15.19-8.18 1.54-.3 3.04-.41 4.48-.28 6.06.54 10.88 4.74 10.88 4.74l.02-.01.02.01s4.82-4.2 10.88-4.74c1.43-.13 2.94-.02 4.48.28-6.67 2.97-12.53 6.4-15.21 8.18" style="opacity:.36;fill:#212121"/><path d="M64 42.22c-.01.01-.01.01-.02.01-4.81-3.31-21.4-13.02-32.89-13.6-.62-.03-3.58.02-4.17.08-.27.03-1.13.48-1.5 1.92-.34 1.34.1 2.24.49 2.19.5-.06 2.79-.1 3.89-.12 11.11-.26 27.13 9.44 33 13.7l1.17.97.03-.02zM64 42.22c.01.01.01.01.02.01 4.81-3.31 21.39-13.02 32.89-13.6.62-.03 3.58.02 4.17.08.27.03 1.13.48 1.5 1.92.34 1.34-.1 2.24-.49 2.19-.5-.06-2.79-.1-3.89-.12-11.11-.26-27.13 9.44-33 13.7l-1.17.97-.03-.02z" style="fill:#97b4c2"/><path d="M64 42.24c.02-.01 3.32-2.1 5.86-2.31 1.43-.12 3.89 1.01 3.89 1.01L64 47.36h.01l-9.74-6.43s2.46-1.12 3.89-1.01c2.53.21 5.83 2.29 5.86 2.31H64z" style="fill:#00bfa5"/><path d="M63.97 34.82s-5.18-3.73-10.35-4.15c-3.39-.27-7.08.51-10.67 2.18-1.06.5-2.12 1.03-3.16 1.57-3.7 1.89-7.22 3.7-11.09 3.53-.4-.02-2.5-.46-3.59-.67-.31-.06-1.25 0-1.4 1.22-.15 1.16.85 1.77 1.12 1.83.74.17 2.17.63 3.46.63.29 0 .59.01.92.01 4.35 0 8.19-1.96 11.94-3.88 1.01-.52 2.03-1.04 3.06-1.52 3.12-1.46 6.3-2.17 9.18-1.9 5.89.54 10.57 4.74 10.57 4.74l.04-.02V34.8c-.01.01-.02.01-.03.02M64.03 34.82s5.18-3.73 10.35-4.15c3.39-.27 7.08.51 10.67 2.18 1.07.5 2.11 1.03 3.16 1.57 3.7 1.89 7.22 3.7 11.09 3.53.4-.02 2.5-.46 3.6-.67.31-.06 1.25 0 1.4 1.22.15 1.16-.86 1.77-1.12 1.83-.74.17-2.17.63-3.46.63-.29 0-.59.01-.93.01-4.35 0-8.19-1.96-11.94-3.88-1.01-.52-2.03-1.04-3.07-1.52-3.12-1.46-6.3-2.17-9.18-1.9-5.89.54-10.57 4.74-10.57 4.74l-.03-.02V34.8c.01.01.02.01.03.02" style="fill:#97b4c2"/></g><g id="eyes_1_"><ellipse cx="47.56" cy="58.81" rx="4.93" ry="5.1" style="fill:#49362e"/><ellipse cx="80.43" cy="58.81" rx="4.93" ry="5.1" style="fill:#49362e"/></g><path id="nose_1_" d="M67.86 68.06c-.11-.04-.21-.07-.32-.08h-7.08c-.11.01-.22.04-.32.08-.64.26-.99.92-.69 1.63s1.71 2.69 4.55 2.69 4.25-1.99 4.55-2.69c.3-.71-.05-1.37-.69-1.63" style="fill:#99674f"/><path id="mouth_1_" d="M72.42 76.14c-3.18 1.89-13.63 1.89-16.81 0-1.83-1.09-3.7.58-2.94 2.24.75 1.63 6.44 5.42 11.37 5.42s10.55-3.79 11.3-5.42c.75-1.66-1.09-3.33-2.92-2.24" style="fill:#5d4037"/><path d="M88.1 50.78c0-.01-2.29-3.61-7.6-3.61s-7.6 3.6-7.6 3.6v.01c-.19.26-.3.58-.3.92 0 .87.71 1.58 1.57 1.58.18 0 .62-.13.66-.15 3.18-1.31 5.67-1.32 5.67-1.32s2.47.01 5.65 1.32c.04.02.48.15.66.15.87 0 1.57-.71 1.57-1.58.01-.35-.1-.66-.28-.92M55.09 50.78c.01-.01-2.29-3.61-7.59-3.61s-7.6 3.6-7.6 3.6l.01.01c-.19.26-.3.58-.3.92 0 .87.71 1.58 1.58 1.58.18 0 .62-.13.66-.15 3.18-1.31 5.67-1.32 5.67-1.32s2.47.01 5.65 1.32c.04.02.48.15.66.15.87 0 1.58-.71 1.58-1.58-.02-.35-.13-.66-.32-.92" style="fill:#613e31" id="eyebrows_2_"/></svg>