<svg xmlns="http://www.w3.org/2000/svg" xml:space="preserve" id="Layer_1" x="0" y="0" version="1.1" viewBox="0 0 128 128"><g id="hairGroup"><path id="hair_3_" d="M98.9 79.85c-1.25-2.27.34-4.58 3.06-7.44 4.31-4.54 9-15.07 4.64-25.76.03-.06-.86-1.86-.83-1.92l-1.79-.09c-.57-.08-20.26-.12-39.97-.12s-39.4.04-39.97.12c0 0-2.65 1.95-2.63 2.01-4.35 10.69.33 21.21 4.64 25.76 2.71 2.86 4.3 5.17 3.06 7.44-1.21 2.21-2.81 2.53-2.81 2.53s-1.17 2.26.83 3.48c1.85 1.13 4.13 1.39 5.7 1.43 0 0 6.15 8.51 22.23 8.51h17.9c16.08 0 22.23-8.51 22.23-8.51 1.57-.04 3.85-.3 5.7-1.43 2-1.22 2.83-3.48 2.83-3.48s-3.61-.32-4.82-2.53" style="fill:#232020"/><g id="hairHighlights_1_"><path d="M63.99 95.79v-9.44l28.57-2.26 2.6 3.2s-6.15 8.51-22.23 8.51z" style="fill:#444140"/><path d="M95.1 83.16c-4.28-6.5 5.21-8.93 5.21-8.93l.01.01c-1.65 2.05-2.4 3.84-1.43 5.61 1.21 2.21 4.81 2.53 4.81 2.53s-4.91 4.36-8.6.78" style="fill:#444140"/><path d="M106.62 46.65c4.25 10.35-.22 21.01-4.41 25.51-.57.62-3.01 3.01-3.57 4.92 0 0-9.54-13.31-12.39-21.13-.57-1.58-1.1-3.2-1.17-4.88-.05-1.26.14-2.76.87-3.83.89-1.31 20.16-1.7 20.16-1.7 0 .01.51 1.11.51 1.11" style="fill:#444140"/><path d="M21.4 46.65c-4.24 10.35.23 21.01 4.41 25.5.58.62 3.01 3.01 3.57 4.92 0 0 9.54-13.31 12.39-21.13.58-1.58 1.1-3.2 1.17-4.88.05-1.26-.14-2.76-.87-3.83-.89-1.31-1.93-.96-3.44-.96-2.88 0-15.49-.74-16.47-.74.01.02-.76 1.12-.76 1.12" style="fill:#444140"/><path d="M64.03 95.79v-9.44l-28.57-2.26-2.6 3.2s6.15 8.51 22.23 8.51z" style="fill:#444140"/><path d="M32.92 83.16c4.28-6.5-5.21-8.93-5.21-8.93l-.01.01c1.65 2.05 2.4 3.84 1.43 5.61-1.21 2.21-2.81 2.53-2.81 2.53s2.91 4.36 6.6.78" style="fill:#444140"/></g></g><path id="shirt" d="M112.18 123.94v-4.31c0-13.44-23.76-19.9-47.19-19.87-23.28.02-47.19 5.64-47.19 19.87v4.31z"/><path id="neck" d="M64 90.08h-9.08v9.98c0 4.51 3.7 8.17 8.26 8.17h1.65c4.56 0 8.26-3.66 8.26-8.17v-9.98z" style="fill:#3c2b24"/><path id="ears" d="M91.33 50.43H36.67c-5.89 0-10.71 5.14-10.71 11.41s4.82 11.41 10.71 11.41h54.65c5.89 0 10.71-5.14 10.71-11.41s-4.81-11.41-10.7-11.41" style="fill:#3c2b24"/><path id="head" d="M64 11.07c-17.4 0-33.52 18.61-33.52 45.4 0 26.64 16.61 39.81 33.52 39.81S97.52 83.1 97.52 56.46c0-26.78-16.12-45.39-33.52-45.39" style="fill:#70534a"/><path id="tattoo" d="m42.78 41.56 30.81-13.67-15.31 20.1 10.09-2.12-30.24 36.41 1.88-15.25-7.61 3.12z" style="fill:#ff6d00"/><g id="eyes"><ellipse cx="47.56" cy="58.81" rx="4.93" ry="5.1" style="fill:#1a1717"/><ellipse cx="80.44" cy="58.81" rx="4.93" ry="5.1" style="fill:#1a1717"/></g><path d="M54.99 50.32c-.93-1.23-3.07-3.01-7.23-3.01s-6.31 1.79-7.23 3.01c-.41.54-.31 1.17-.02 1.55.26.35 1.04.68 1.9.39s2.54-1.16 5.35-1.18c2.81.02 4.49.89 5.35 1.18s1.64-.03 1.9-.39c.28-.38.38-1.01-.02-1.55M87.48 50.32c-.93-1.23-3.07-3.01-7.23-3.01s-6.31 1.79-7.23 3.01c-.41.54-.31 1.17-.02 1.55.26.35 1.04.68 1.9.39s2.54-1.16 5.35-1.18c2.81.02 4.49.89 5.35 1.18s1.64-.03 1.9-.39c.29-.38.39-1.01-.02-1.55" style="fill:#1a1717" id="eyebrows"/><path id="nose" d="M67.86 68.06c-.11-.04-.21-.07-.32-.08h-7.08c-.11.01-.22.04-.32.08-.64.26-.99.92-.69 1.63s1.71 2.69 4.55 2.69 4.25-1.99 4.55-2.69c.3-.71-.05-1.37-.69-1.63" style="fill:#33251f"/><path id="mouth" d="M72.42 76.14c-3.18 1.89-13.63 1.89-16.81 0-1.83-1.09-3.7.58-2.94 2.24.75 1.63 6.44 5.42 11.37 5.42s10.55-3.79 11.3-5.42c.75-1.66-1.09-3.33-2.92-2.24" style="fill:#1a1717"/><g id="hand_1_"><g id="finger"><path d="m113.84 86.8.09-.01c1.72.18 3.27-.87 3.47-2.36l.83-6.02c.2-1.49-1.04-2.85-2.75-3.03-1.72-.18-3.27.87-3.47 2.36l-.83 6.02c-.2 1.49.94 2.86 2.66 3.04" style="fill:#70534a"/></g><path id="hand" d="M112.18 100.06c-4.97.15-10.43-.91-12.08-5.94-.88-2.69-.66-5.45-.1-8.03.62-2.86.67-4.31.47-6.57-.14-1.66-1.19-14.62-1.19-14.62s-.64-2.36 1.48-3.04c2.33-.89 3.19 1.68 3.19 1.68l2.52 17.84 10.98 1.25s.43-.71.67-2.49c.11-.76-.03-2.17.09-3.07.57-4.16 1.27-9.19 1.34-9.61.12-.72.9-1.78 2.39-1.57 1.5.2 1.89 1.31 1.82 2.03-.07.73-.61 6.56-.61 6.56-.16 2.8-.32 5.89-.06 8.68l.21 2.24c.34 3.61-.19 7.4-1.76 10.22-1.61 2.95-4.39 4.29-9.36 4.44" style="fill:#70534a"/><g id="finger_1_"><path d="M108.6 87.02c1.73.04 3.19-1.14 3.27-2.64l.34-6.91c.07-1.5-1.26-2.75-2.99-2.8-1.73-.04-3.19 1.14-3.27 2.64l-.34 6.91c-.08 1.51 1.26 2.76 2.99 2.8" style="fill:#70534a"/></g><path id="finger_2_" d="M113.84 82.79c-1.93-.34-4.32-.77-6.61-.89-.32-.02-.64-.03-.96-.04-3.01-.05-5.2 1.63-6.29 5.4-.04.12-.07.24-.11.37-.06.22-.12.46-.17.72v.03c-.07.34-.14.69-.19 1.07-.19 1.25-.07 2.45.22 3.42.79 3.46 3.22 5.1 3.22 5.1s6.29 3.15 7.73 0-.65-7.55-.65-7.55l-2.92-1.73c.61-.75 1.5-1.07 3.25-.97.55.03 1.22.1 2.04.18.08.01 1.08.12 1.15.12 1.11.06 1.98-.28 2.66-1.04.88-.99.77-2.67.84-3.47-.8-.08-2.15-.53-3.21-.72" style="fill:#70534a"/></g><g id="suit"><path d="m54.38 123.94-.87-21.59c-3.41 1.41-6.85 2.1-10.46 2.1-5.9 0-11.08-1.9-15.23-3.43-2.84-1.04-5.3-1.95-7.15-1.95-2.26 0-3.18 1.97-3.18 6.81v18.06z" style="fill:#666"/><path d="M111.8 123.94v-18.06c0-4.83-.92-6.81-3.18-6.81-1.83 0-4.39.88-7.34 1.91-4.41 1.53-9.9 3.43-16.04 3.43-3.72 0-7.22-.68-10.64-2.07l.12 21.6z" style="fill:#666"/><path d="M57.95 123.94 56.21 112l-33.09 6.22 4.11 5.72z" style="fill:#666"/><path d="M39.61 123.94h18.27l-2.96-27.03-29.6 7.2 12.82 17.72z" style="fill:#ff6d00"/><path d="m100.85 123.94 4.02-5.6L71.33 112l-1.64 11.94z" style="fill:#666"/><path d="m87.07 123.94 2.54-3.65 12.82-17.72-29.35-5.66-3.32 27.03z" style="fill:#ff6d00"/><path d="m121.73 123.94-.15-26-22.71.08.01 25.92z" style="fill:#666"/><circle cx="99.69" cy="107.95" r="4.11" style="fill:#e6e7e8"/><circle cx="110.3" cy="107.92" r="4.11" style="fill:#ff3d00"/><circle cx="120.9" cy="107.88" r="4.11" style="fill:#808285"/></g><g id="mike"><path d="m34.21 87.9-22.72 9.39-.34-.66c-.07.06-.14.12-.23.17l-1.25.73v26.41H6.54V99.33a1.794 1.794 0 0 1-1.65-3.18l4.22-2.46c.15-.09.31-.14.47-.18l-.63-1.26 21.19-12.73c-.04.37-.05.74-.04 1.12a8.98 8.98 0 0 0 4.11 7.26" style="fill:#5d5f61"/><path d="M42.68 86.85c-.22.11-.44.21-.67.29-.43.17-.87.3-1.31.38-1.5.28-3.03.1-4.39-.49l-.92.38a7.95 7.95 0 0 1-4.29-6.8c-.02-.59.03-1.18.14-1.74l.74-.45c.34-1.44 1.1-2.78 2.21-3.79.33-.33.68-.6 1.07-.84.21-.14.43-.27.66-.38 3.72-1.87 8.24-.37 10.1 3.34 1.87 3.71.38 8.23-3.34 10.1" style="fill:#5d5f61"/></g><path d="M17.5 112.52h104.23v11.42H17.5z" style="opacity:.3;fill:#212121"/><g id="hairGroup_1_"><path id="hair" d="M104.07 25.11c-2.44-3.69-7.91-8.64-12.82-8.97-.79-4.72-5.84-8.72-10.73-10.27-13.23-4.19-21.84.51-26.46 3.03-.96.52-7.17 3.97-11.51 1.5-2.72-1.55-2.67-5.74-2.67-5.74s-8.52 3.25-5.61 12.3c-2.93.12-6.77 1.36-8.8 5.47-2.42 4.9-1.56 8.99-.86 10.95-2.52 2.14-5.69 6.69-3.52 12.6 1.64 4.45 8.17 6.5 8.17 6.5-.46 8.01 1.03 12.94 1.82 14.93.14.35.63.32.72-.04.99-3.97 4.37-17.8 4.03-20.21 0 0 11.35-2.25 22.17-10.22 2.2-1.62 4.59-3 7.13-4.01 13.59-5.41 16.43 3.82 16.43 3.82s9.42-1.81 12.26 11.27c1.07 4.9 1.79 12.75 2.4 18.24.04.39.57.47.72.11.95-2.18 2.85-6.5 3.3-10.91.16-1.55 4.34-3.6 6.14-10.26 2.41-8.88-.54-17.42-2.31-20.09" style="fill:#232020"/><g id="hairHighlights"><path d="M100.22 55.5c.16-1.55 4.34-3.6 6.14-10.26.19-.71.35-1.43.5-2.15 1.46-8.09-1.16-15.52-2.79-17.98-2.26-3.41-7.1-7.89-11.69-8.81-.4-.05-.79-.1-1.16-.12 0 0 .33 2.15-.54 3.86-1.12 2.22-3.41 2.75-3.41 2.75 11.97 11.98 11.12 22 12.95 32.71" style="fill:#444140"/><path d="M56.95 7.39c-1.1.53-2.06 1.06-2.9 1.51-.96.52-7.17 3.97-11.51 1.5-2.67-1.52-2.67-5.58-2.67-5.72-1.23 1.57-4.95 12.78 5.93 13.53 4.69.32 7.58-3.77 9.3-7.23.62-1.26 1.59-3.1 1.85-3.59" style="fill:#444140"/><path d="M79.16 5.47c7.32 1.98 10.89 5.71 12.08 10.68.35 1.46.77 15.08-25.23-.4-9.67-5.76-7.03-9.36-5.9-9.77 4.42-1.6 10.85-2.73 19.05-.51" style="fill:#444140"/><path d="M39.84 4.68c-.01.01-.03.01-.06.03h-.01c-.93.39-8.24 3.78-5.51 12.25l7.78 1.25c-6.89-6.98-2.17-13.55-2.17-13.55s-.02.01-.03.02" style="fill:#444140"/><path d="m39.07 17.73-4.81-.77c-.19 0-.83.06-1.18.11-2.71.38-5.9 1.78-7.63 5.36-1.86 3.86-1.81 7.17-1.3 9.38.15.74.45 1.58.45 1.58s2.38-2.26 8.05-2.41z" style="fill:#444140"/><path d="M24.37 33.58c-2.37 2.1-5.56 6.79-3.21 12.61 1.77 4.39 8.09 6.29 8.09 6.29 0 .02 1.26.4 1.91.4l1.48-21.9c-3.03 0-5.94.91-7.82 2.22.03.03-.46.35-.45.38" style="fill:#444140"/></g></g><circle cx="39.07" cy="80.35" r="7.97" style="fill:#434444"/><path d="m35.39 87.41-1.18.49c-2.39-1.54-4-4.19-4.11-7.26-.01-.38 0-.75.04-1.12l1.1-.65a7.7 7.7 0 0 0-.14 1.74c.1 2.98 1.82 5.52 4.29 6.8" style="fill:#727475"/><path d="M42.72 87.44c-.42.22-.86.39-1.31.53l-.01-.01c-.39-.21-.79-.48-1.19-.81-1.4-1.13-2.75-2.83-3.84-4.82-.09-.17-.19-.34-.27-.51-1.49-2.9-2.11-5.76-1.88-7.82.36-.28.75-.52 1.16-.74.91-.48 1.94-.77 3.02-.86l.41-.03c.47-.02.94.01 1.4.08 3.76.53 6.71 3.7 6.83 7.63a7.77 7.77 0 0 1-.94 4.01c-.28.55-.64 1.06-1.05 1.51a7.7 7.7 0 0 1-2.33 1.84" style="fill:#434444"/><path d="M40.85 86.39c-1.41-1.13-2.78-2.91-3.84-5.01-1.74-3.41-2.15-6.46-1.61-8.1-.41.21-.8.46-1.16.74-.23 2.05.4 4.91 1.88 7.82.08.17.18.35.27.51 1.09 1.99 2.44 3.69 3.84 4.82.41.32.81.6 1.19.81l.01.01c.45-.14.89-.31 1.31-.53-.59-.18-1.22-.54-1.89-1.07" style="fill:#5d5f61"/><path id="tone" d="M118.18 77.58c-.18 1.35-1.35 5.21-1.35 5.21-1.5-.61-2.87-1.04-4.12-1.34-.12-.89-.41-3.05-.52-4.34-.25 1.06-.9 3.18-1.16 4.01-1.78-.28-3.28-.26-4.53-.06-.08-.69-.38-3.07-.54-3.75-.12.6-.22 1.91-.34 2.52-.11.56-.25 1.17-.32 1.48-1.31.36-2.27.91-2.96 1.43-.53.36-.99.79-1.32 1.34l-.1.15c.96-.87 2.29-1.35 3.53-1.65 3.41-.82 7.86-.51 11.07.91 1.32.59 1.58 1.6.71 2.73-1.27 1.67-3.45.91-5.2.76-1.52-.13-4.04.06-4.49 1.93 3.4.53 4.61 4.26 4.52 7.29 1.26-2.8.44-5.83-2.57-7.8 1.93-1.06 8.31 2.03 9.27-2.89.42-2.21.48-6.89.42-7.93" style="fill:#4a2f27"/></svg>