<svg xmlns="http://www.w3.org/2000/svg" xml:space="preserve" id="图层_1_copy" x="0" y="0" version="1.1" viewBox="0 0 128 128"><path d="m31.22 4.78 92.16 92.16c.87.87.87 2.29 0 3.17l-21.84 21.84c-.87.87-2.29.87-3.17 0L6.21 29.79c-.87-.87-.87-2.29 0-3.17L28.05 4.78c.87-.88 2.29-.88 3.17 0" style="fill:#eaa700"/><path d="m31.22 4.78 88.04 88.04c.87.87-19.07 19.47-19.95 20.34l1.01 9.41s-1.08.25-1.95-.63L6.21 29.79c-.87-.87-.87-2.29 0-3.17L28.05 4.78c.87-.88 2.29-.88 3.17 0" style="fill:#bf8400"/><path d="m31.22 4.78 89.69 89.69 2.86 2.86s-2.7.14-5.99 3.42-16.4 16.4-16.4 16.4c-.87.87-2.29.87-3.17 0L8.52 27.47c-.87-.87-.87-2.29 0-3.17L28.05 4.78c.87-.88 2.29-.88 3.17 0" style="fill:#fdd835"/><path d="M72.17 56.85a.79.79 0 0 1-1.12 0l-1.71-1.71a.79.79 0 0 1 0-1.12l5.14-5.14 2.83 2.83z" style="fill:#795548"/><path d="m77.73 51.29-1.99 1.99-2.83-2.83 1.99-1.99z" style="fill:#5d4037"/><path d="M53.34 38.02a.79.79 0 0 1-1.12 0l-1.71-1.71a.79.79 0 0 1 0-1.12l5.14-5.14 2.83 2.83z" style="fill:#795548"/><path d="m58.9 32.46-1.99 1.99-2.83-2.82 1.99-2z" style="fill:#5d4037"/><path d="M41.32 31.92a.79.79 0 0 1-1.12 0l-2.42-2.42a.79.79 0 0 1 0-1.12l8.52-8.52 3.54 3.54z" style="fill:#795548"/><path d="m49.84 23.4-1.99 1.99-3.54-3.53 2-1.99z" style="fill:#5d4037"/><path d="M91 75.67a.79.79 0 0 1-1.12 0l-1.71-1.71a.79.79 0 0 1 0-1.12l5.14-5.14 2.83 2.83z" style="fill:#795548"/><path d="m96.55 70.11-1.99 2-2.83-2.83 2-1.99z" style="fill:#5d4037"/><path d="M109.82 94.5a.79.79 0 0 1-1.12 0l-1.71-1.71a.79.79 0 0 1 0-1.12l5.14-5.14 2.83 2.83z" style="fill:#795548"/><path d="m115.38 88.94-1.99 1.99-2.83-2.83 1.99-1.99z" style="fill:#5d4037"/><path d="M60.15 50.75a.79.79 0 0 1-1.12 0l-2.42-2.42a.79.79 0 0 1 0-1.12l8.52-8.52 3.54 3.54z" style="fill:#795548"/><path d="m68.67 42.23-1.99 1.99-3.54-3.53 1.99-2z" style="fill:#5d4037"/><path d="M78.98 69.57a.79.79 0 0 1-1.12 0l-2.42-2.42a.79.79 0 0 1 0-1.12l8.52-8.52 3.54 3.54z" style="fill:#795548"/><path d="m87.5 61.06-2 1.99-3.53-3.54 1.99-1.99z" style="fill:#5d4037"/><path d="M97.8 88.4a.79.79 0 0 1-1.12 0l-2.42-2.42a.79.79 0 0 1 0-1.12l8.52-8.52 3.54 3.54z" style="fill:#795548"/><path d="m106.32 79.88-1.99 1.99-3.54-3.53 1.99-1.99z" style="fill:#5d4037"/><path d="M34.52 19.19a.79.79 0 0 1-1.12 0l-1.71-1.71a.79.79 0 0 1 0-1.12l5.14-5.14 2.83 2.83z" style="fill:#795548"/><path d="m40.08 13.64-2 1.99-2.82-2.83 1.99-1.99z" style="fill:#5d4037"/><path d="M34.52 19.19a.79.79 0 0 1-1.12 0l-1.71-1.71a.79.79 0 0 1 0-1.12l5.14-5.14 2.83 2.83z" style="fill:#795548"/><path d="m40.08 13.64-2 1.99-2.82-2.83 1.99-1.99z" style="fill:#5d4037"/></svg>