<svg xmlns="http://www.w3.org/2000/svg" xml:space="preserve" id="Layer_1" x="0" y="0" version="1.1" viewBox="0 0 128 128"><g id="hairGroup_1_"><path id="hair_1_" d="M103.04 58.65c0 1.3-.01 2.63-.02 3.98 0 .68-.01 1.36-.02 2.04l-.03 2.08a386 386 0 0 1-.8 19.44c-.05.77-.11 1.55-.17 2.32-.06.73-.11 1.47-.18 2.2a226.924 226.924 0 0 1-.51 5.35c-.04.4-.08.79-.13 1.19-.16 1.43-.33 2.86-.52 4.26-.07.56-.15 1.12-.23 1.67-.31 2.23-.67 4.41-1.06 6.53-.12.62-.24 1.25-.36 1.86q-.24 1.155-.48 2.28c-.12.54-.24 1.07-.37 1.59a79 79 0 0 1-1.4 5.18q-.24.81-.51 1.59c-.11.32-.21.64-.33.95-.09.27-.18.54-.28.8H32.42c-.1-.26-.19-.53-.28-.8-.11-.31-.22-.63-.33-.95-.13-.38-.25-.76-.37-1.15-.09-.27-.17-.55-.25-.82-.51-1.67-.98-3.44-1.4-5.28-.17-.72-.33-1.45-.49-2.18-.01-.05-.02-.1-.03-.16-.15-.73-.3-1.46-.44-2.2-.08-.39-.15-.78-.22-1.18-.1-.53-.19-1.06-.28-1.6-.08-.45-.16-.9-.23-1.36-.09-.54-.17-1.09-.26-1.64-.62-4.17-1.12-8.52-1.51-12.95a325.822 325.822 0 0 1-.76-10.88c-.07-1.43-.14-2.86-.2-4.28-.01-.41-.03-.82-.04-1.23-.11-2.9-.19-5.77-.23-8.55l-.03-2.08c-.01-.68-.02-1.36-.02-2.04-.01-1.35-.02-2.68-.02-3.98 0-.6-.32-38.73 39.56-38.73s38.45 38.13 38.45 38.73" style="fill:#312d2d"/><path id="hairHighlights_1_" d="M103.04 58.65c0 1.3-.01 2.63-.02 3.98 0 .68-.01 1.36-.02 2.04l-.03 2.08a386 386 0 0 1-.8 19.44c-.05.77-.11 1.55-.17 2.32-.06.73-.11 1.47-.18 2.2a226.924 226.924 0 0 1-.51 5.35c-.04.4-.08.79-.13 1.19-.16 1.43-.33 2.86-.52 4.26-.07.56-.15 1.12-.23 1.67-.31 2.23-.67 4.41-1.06 6.53-.12.62-.24 1.25-.36 1.86q-.24 1.155-.48 2.28c-.12.54-.24 1.07-.37 1.59a79 79 0 0 1-1.4 5.18q-.24.81-.51 1.59c-.11.32-.21.64-.33.95-.09.27-.18.54-.28.8H32.42c-.1-.26-.19-.53-.28-.8-.11-.31-.22-.63-.33-.95-.13-.38-.25-.76-.37-1.15-.09-.27-.17-.55-.25-.82-.51-1.67-.98-3.44-1.4-5.28-.17-.72-.33-1.45-.49-2.18-.01-.05-.02-.1-.03-.16-.15-.72-.3-1.45-.44-2.2-.08-.39-.15-.78-.22-1.18-.1-.53-.19-1.06-.28-1.6-.08-.45-.16-.9-.23-1.36-.09-.54-.17-1.09-.26-1.64-.62-4.17-1.12-8.52-1.51-12.95a325.822 325.822 0 0 1-.76-10.88c-.07-1.43-.14-2.86-.2-4.28-.01-.41-.03-.82-.04-1.23-.11-2.9-.19-5.77-.23-8.55l-.03-2.08c-.01-.68-.02-1.36-.02-2.04-.01-1.35-.02-2.68-.02-3.98 0-.6-.32-38.73 39.56-38.73s38.45 38.13 38.45 38.73" style="fill:#454140"/></g><path id="shirt" d="M113.05 91.9C99.03 77.41 68.83 76.36 64.5 76.28v-.01h-.54v.01c-4.33.08-34.54 1.13-48.55 15.62-10.21 10.56-8 20.8-5.88 23.81 4.01 5.68 14.75 8.25 14.75 8.25h79.9s10.74-2.57 14.75-8.25c2.12-3.01 4.33-13.25-5.88-23.81" style="fill:#651fff"/><path d="M64 92.7c-27.26 0-36.19 11.06-36.19 11.06l11.02 6.17c.78.53 1.07 1.54.68 2.39l-.55 1.23L54.04 124h19.92l15.08-10.45-.55-1.23c-.39-.85-.1-1.86.68-2.39l10.8-6.3c0 .01-8.71-10.93-35.97-10.93" style="opacity:.2;fill:#000"/><path id="neck" d="M64 87.08h-9.08v9.98c0 4.51 4.29 8.17 9.08 8.17s9.08-3.66 9.08-8.17v-9.98z" style="fill:#edc391"/><path id="hand_1_" d="m38.96 113.56 3.31.2c1.22 0 2.42.18 3.58.53 3.6 1.1 11.54 3.87 15.85 4.97 1.06.27 1.79 1.22 1.79 2.32 0 .66-.27 1.26-.7 1.69-.44.44-1.04.71-1.7.71H34.56z" style="fill:#f9ddbd"/><path id="hand" d="m89.04 113.56-3.31.2c-1.22 0-2.42.18-3.58.53-3.6 1.1-11.53 3.87-15.84 4.97-1.07.27-1.8 1.22-1.8 2.32 0 .66.27 1.26.7 1.69.44.44 1.04.71 1.7.71h26.46z" style="fill:#f9ddbd"/><path id="head" d="M64 25.31c-16.67 0-32.1 16.21-32.1 39.54 0 23.2 15.9 34.67 32.1 34.67s32.1-11.47 32.1-34.67c0-23.33-15.44-39.54-32.1-39.54" style="fill:#f9ddbd"/><path id="nose" d="M67.69 83.76c-.1-.04-.21-.06-.31-.07h-6.77c-.1.01-.21.03-.31.07-.61.23-.95.81-.66 1.42s1.64 2.35 4.36 2.35 4.07-1.73 4.36-2.35c.29-.61-.05-1.19-.67-1.42" style="fill:#dba689"/><g id="eyes"><ellipse cx="47.56" cy="74.81" rx="4.93" ry="4" style="fill:#312d2d"/><ellipse cx="80.44" cy="74.81" rx="4.93" ry="4" style="fill:#312d2d"/></g><path d="M54.99 65.82c-.93-1.23-3.07-3.01-7.23-3.01s-6.31 1.79-7.23 3.01c-.41.54-.31 1.17-.02 1.55.26.35 1.04.68 1.9.39s2.54-1.16 5.35-1.18c2.81.02 4.49.89 5.35 1.18s1.64-.04 1.9-.39c.28-.38.38-1.01-.02-1.55M87.48 65.82c-.93-1.23-3.07-3.01-7.23-3.01s-6.31 1.79-7.23 3.01c-.41.54-.31 1.17-.02 1.55.26.35 1.04.68 1.9.39s2.54-1.16 5.35-1.18c2.81.02 4.49.89 5.35 1.18s1.64-.04 1.9-.39c.29-.38.39-1.01-.02-1.55" style="fill:#454140" id="eyebrows"/><g id="hairGroup"><path id="hair" d="M32.42 81.72c.54-5.83 2.74-18.92 7.73-20.08C61.9 56.59 74.2 44.66 74.2 44.66c3.2 7.23 13.21 14.27 16.8 16.95 2.46 1.83 3.49 13.59 3.74 19.67l7.08 2.84h.47c0-.05.02-.1.02-.16.55-8.79.73-17.55.73-25.31 0-.6 1.43-38.73-38.45-38.73S25.03 58.05 25.03 58.65c0 7.8.18 16.62.73 25.47h.88z" style="fill:#312d2d"/><path id="hairHighlights" d="M32.42 81.72c.54-5.83 2.74-18.92 7.73-20.08C61.9 56.59 74.2 44.66 74.2 44.66c3.2 7.23 13.21 14.27 16.8 16.95 2.46 1.83 3.49 13.59 3.74 19.67l7.08 2.84h.47c0-.05.02-.1.02-.16.55-8.79.73-17.55.73-25.31 0-.6 1.43-38.73-38.45-38.73S25.03 58.05 25.03 58.65c0 7.8.18 16.62.73 25.47h.88z" style="fill:#454140"/></g><g id="lines"><path id="XMLID_56_" d="M52.56 15.99 49.86 5.9" style="fill:none;stroke:#b0bec5;stroke-width:4;stroke-linecap:round;stroke-miterlimit:10"/><path id="XMLID_55_" d="m36.96 22.58-6.66-6.54" style="fill:none;stroke:#b0bec5;stroke-width:4;stroke-linecap:round;stroke-miterlimit:10"/><path id="XMLID_54_" d="m90.31 23.42 7.39-7.38" style="fill:none;stroke:#b0bec5;stroke-width:4;stroke-linecap:round;stroke-miterlimit:10"/><path id="XMLID_53_" d="m75.44 15.99 2.7-10.09" style="fill:none;stroke:#b0bec5;stroke-width:4;stroke-linecap:round;stroke-miterlimit:10"/></g></svg>