<svg xmlns="http://www.w3.org/2000/svg" xml:space="preserve" id="Layer_7" x="0" y="0" version="1.1" viewBox="0 0 128 128"><g id="gold_00000017474218815335838940000003074807137798816404_"><path id="face_00000134933215444162423110000011147743369961211012_" d="M64 124c-25 0-52-15.7-52-50.1s27-50.1 52-50.1c13.9 0 26.7 4.6 36.2 12.9 10.3 9.1 15.8 22.1 15.8 37.2s-5.5 28-15.8 37.1c-9.5 8.3-22.4 13-36.2 13" style="fill:#fde030"/><path d="M106.9 44.1c4.8 7.7 7.3 16.9 7.3 27.1 0 15.2-5.5 28-15.8 37.1-9.5 8.3-22.4 13-36.2 13-16.2 0-33.2-6.6-43.2-20.6 9.6 15.8 27.8 23.3 45 23.3 13.8 0 26.7-4.7 36.2-13 10.3-9.1 15.8-22 15.8-37.1 0-11.5-3.1-21.6-9.1-29.8" style="fill:#eb8f00"/></g><g id="facial_expressions_00000069385602432109716340000017232438276675465613_"><g id="relieved-face_00000006674354916450258610000003542533979739874985_"><g id="eyes_00000142877458650344134320000012098703580094482597_"><path d="m51.1 81.9-.2.2c-.1.2-.3.3-.5.4l-.6.5-.9.6c-.3.2-.7.4-1.1.6s-.8.4-1.2.5-.9.2-1.3.3c-.5.1-.9.1-1.4.1h-.8l-.6-.1c-.5-.1-.9-.2-1.3-.3-.4-.2-.8-.3-1.2-.6-.4-.2-.7-.4-1.1-.6-.5-.4-1-.7-1.5-1.2l-.6-.5-.2-.2c-1.1-1-2.9-1.1-4.1-.2-.9.7-1.2 1.9-.7 2.9l.1.3c.1.3.3.5.4.8.9 1.5 2.2 2.9 3.7 3.9.7.5 1.5.9 2.3 1.3q1.35.6 2.7.9c.5.1 1 .2 1.6.2.3 0 .6.1.7.1h.7q1.5 0 3-.3 1.35-.3 2.7-.9c.8-.3 1.5-.8 2.3-1.3 1.1-.8 2.1-1.7 2.9-2.8l.4-.6.4-.6c.1-.2.3-.5.3-.7l.1-.2c.5-1.3-.1-2.8-1.4-3.3-.1 0-.2-.1-.3-.1-1.3-.3-2.5 0-3.3.9M91.4 81.9l-.2.2c-.1.2-.3.3-.5.4l-.5.5-.9.6c-.3.2-.7.4-1.1.6s-.8.4-1.2.5-.9.2-1.3.3c-.5.1-.9.1-1.4.1h-.8l-.6-.1c-.5-.1-.9-.2-1.3-.3-.4-.2-.8-.3-1.2-.6-.4-.2-.7-.4-1.1-.6-.5-.4-1-.7-1.5-1.2l-.6-.5-.2-.2c-1.1-1-2.9-1.1-4.1-.2-.9.7-1.2 1.9-.7 2.9l.1.3c.1.3.3.5.4.8.9 1.5 2.2 2.9 3.7 3.9.7.5 1.5.9 2.3 1.3q1.35.6 2.7.9c.5.1 1 .2 1.6.2.3 0 .6.1.7.1h.7q1.5 0 3-.3c.9-.2 1.9-.5 2.7-.9.8-.3 1.5-.8 2.3-1.3 1.1-.8 2.1-1.7 2.9-2.8l.4-.6.4-.6c.1-.2.3-.5.3-.7l.1-.2c.5-1.3-.1-2.8-1.4-3.3-.1 0-.2-.1-.3-.1-1.2-.3-2.5 0-3.4.9" style="fill:#422b0d" id="peepers_00000071527329038589895370000005779041439730716814_"/></g><path d="M80.4 104.1c-.4-.7-1.2-.7-2.5-.3-3.8 1.2-9.2 1.6-13.8 1.6s-10-.4-13.9-1.6c-1.3-.4-2.1-.4-2.5.3s-.4 1.6.4 2.7c1.6 2.3 8.8 5.7 16 5.7s14.3-3.5 16-5.7c.7-1.1.7-2 .3-2.7" style="fill:#422b0d"/></g></g><g id="lines_00000098203385351539163110000000097349340490915742_"><path id="XMLID_00000018916849331934550530000017805734775020808871_" d="m30.6 26.4-8.5-10.6" style="fill:none;stroke:#b0bec5;stroke-width:5;stroke-linecap:round;stroke-miterlimit:10"/><path id="XMLID_00000101781988475875228320000002106814448799351993_" d="M52.3 18.5 48.5 3.2" style="fill:none;stroke:#b0bec5;stroke-width:5;stroke-linecap:round;stroke-miterlimit:10"/></g><g id="lines_00000050638600932056272870000006303227320535829131_"><path id="XMLID_00000005957764186300516780000014482876088468405913_" d="m97.4 26.4 8.5-10.6" style="fill:none;stroke:#b0bec5;stroke-width:5;stroke-linecap:round;stroke-miterlimit:10"/><path id="XMLID_00000146464136326571224610000000004984912525994428_" d="m75.7 18.5 3.8-15.3" style="fill:none;stroke:#b0bec5;stroke-width:5;stroke-linecap:round;stroke-miterlimit:10"/></g></svg>