<svg xmlns="http://www.w3.org/2000/svg" xml:space="preserve" id="Layer_1" x="0" y="0" version="1.1" viewBox="0 0 128 128"><g id="gold"><path id="face" d="M63.6 118.8c-27.9 0-58-17.5-58-55.9S35.7 7 63.6 7c15.5 0 29.8 5.1 40.4 14.4 11.5 10.2 17.6 24.6 17.6 41.5s-6.1 31.2-17.6 41.4c-10.6 9.3-25 14.5-40.4 14.5" style="fill:#fde030"/><path d="M111.49 29.67c5.33 8.6 8.11 18.84 8.11 30.23 0 16.9-6.1 31.2-17.6 41.4-10.6 9.3-25 14.5-40.4 14.5-18.06 0-37-7.35-48.18-22.94 10.76 17.66 31 25.94 50.18 25.94 15.4 0 29.8-5.2 40.4-14.5 11.5-10.2 17.6-24.5 17.6-41.4 0-12.74-3.47-24.06-10.11-33.23" style="fill:#eb8f00"/></g><g id="facial_expressions"><g id="flushed-face"><g id="blush"><circle cx="27.2" cy="82.2" r="17.5" style="opacity:.8;fill:#ed7770"/><circle cx="94.88" cy="82.2" r="17.5" style="opacity:.8;fill:#ed7770"/><circle cx="99.8" cy="82.2" r="17.5" style="opacity:.8;fill:#ed7770"/></g><path id="mouth" d="M56 96h15" style="fill:none;stroke:#35220b;stroke-width:8;stroke-linecap:round;stroke-linejoin:round"/><g id="eyes"><g id="peepers"><path d="M89.2 41.8c9.61 0 17.4 7.79 17.4 17.4s-7.79 17.4-17.4 17.4-17.4-7.79-17.4-17.4c.01-9.61 7.79-17.39 17.4-17.4" style="fill:#fff"/><ellipse cx="89.2" cy="59.2" rx="7.5" ry="7.6" style="fill:#422b0d"/><path d="M38.7 41.7c9.61 0 17.4 7.79 17.4 17.4s-7.79 17.4-17.4 17.4-17.4-7.79-17.4-17.4c.01-9.61 7.79-17.39 17.4-17.4" style="fill:#fff"/><ellipse cx="38.7" cy="59.1" rx="7.5" ry="7.6" style="fill:#422b0d"/></g><path d="M46.56 27.27h.1a1.83 1.83 0 1 0 1.26-3.44c-1.79-.8-3.69-1.31-5.64-1.5-5.25-.63-10.55.77-14.8 3.92-2 1.51.07 4.06 2.05 3.06a26.2 26.2 0 0 1 17.03-2.04M80.86 27.27h-.1a1.83 1.83 0 1 1-1.26-3.44c1.79-.8 3.69-1.31 5.64-1.5 5.25-.63 10.55.77 14.8 3.92 2 1.51-.07 4.06-2 3.06-5.3-2.58-11.32-3.3-17.08-2.04" style="fill:#422b0d" id="eyebrows"/></g></g></g></svg>